<svg width="200" height="108" viewBox="0 0 200 108" fill="none" xmlns="http://www.w3.org/2000/svg">
<path d="M52.4289 85.7166L92.7959 96.2573L145.626 82.6738V84.7878L92.7959 99.7407L52.4287 87.8405L52.4289 85.7166Z" fill="#E0E4EC"/>
<path d="M52.4287 85.7167L92.7958 96.2575L145.626 82.674L142.767 82.1758L54.4845 85.5187L52.4287 85.7167Z" fill="#E0E4EC"/>
<path d="M52.4289 85.7167L92.7959 96.2575L145.626 82.674M52.4289 85.7167L52.4287 87.8407L92.7959 99.7409L145.626 84.7879V82.674M52.4289 85.7167L54.4846 85.5187L142.767 82.1758L145.626 82.674" stroke="#6E7E92" stroke-linecap="round" stroke-linejoin="round"/>
<path d="M52.4287 86.0992L92.7963 97.419L145.626 83.0464V84.7873L92.7963 99.7403L52.4287 87.8409V86.0992Z" fill="#E0E4EC" stroke="#6E7E92" stroke-linecap="round" stroke-linejoin="round"/>
<path d="M75.357 28.8001C67.548 23.7015 53.5713 19.0801 53.5713 19.0801V86.4001L92.857 96.8401V61.5601C92.857 41.4001 86.8677 36.3154 75.357 28.8001Z" fill="#E0E4EC" stroke="#6E7E92" stroke-linecap="round" stroke-linejoin="round"/>
<path d="M56.4752 26.4658L80.3088 33.8391V90.93L56.2949 85.0123L56.4752 26.4658Z" fill="#E0E4EC" stroke="#6E7E92" stroke-linecap="round" stroke-linejoin="round"/>
<path d="M64.484 43.7256L72.3057 45.6126V58.9101L64.4248 57.3519L64.484 43.7256Z" fill="#E0E4EC" stroke="#6E7E92" stroke-linecap="round" stroke-linejoin="round"/>
<path d="M93.459 61.5686L144.345 49.0884V83.3514L93.459 97.1315V61.5686Z" fill="#E0E4EC" stroke="#6E7E92" stroke-linecap="round" stroke-linejoin="round"/>
<path d="M106.214 88.7248V90.8935L112.175 89.2166V87.1099L106.214 88.7248Z" fill="#E0E4EC" stroke="#6E7E92" stroke-linecap="round" stroke-linejoin="round"/>
<path d="M127.192 82.9204V85.089L133.153 83.4114V81.3047L127.192 82.9204Z" fill="#E0E4EC" stroke="#6E7E92" stroke-linecap="round" stroke-linejoin="round"/>
<path d="M75.1631 28.7049L126.05 16.2246C139.8 27.1019 143.24 34.4685 144.345 49.0887L93.4595 61.5691C93.0295 43.6775 88.6031 36.8032 75.1631 28.7049Z" fill="#E0E4EC" stroke="#6E7E92" stroke-linecap="round" stroke-linejoin="round"/>
<path d="M95.1738 56.6243V60.0291L99.7481 58.947V55.5898L95.1738 56.6243Z" fill="#E0E4EC" stroke="#6E7E92" stroke-linecap="round" stroke-linejoin="round"/>
<path d="M53.7227 18.903L107.467 7.29346C115.206 10.5291 119.292 12.4863 126.05 16.2909L75.1638 28.7711C67.6779 24.5269 63.1634 22.2864 53.7227 18.903Z" fill="#E0E4EC" stroke="#6E7E92" stroke-linecap="round" stroke-linejoin="round"/>
</svg>
