<svg width="180" height="96" viewBox="0 0 180 96" fill="none" xmlns="http://www.w3.org/2000/svg">
<path d="M101.123 72.9337L147.945 61.2471V63.2571L101.123 75.4469L80.1533 70.7833V68.5285L101.123 72.9337Z" fill="#E0E4EC"/>
<path d="M101.123 72.9337L147.945 61.2471V63.2571L101.123 75.4469M101.123 72.9337L80.1533 68.5285V70.7833L101.123 75.4469M101.123 72.9337V75.4469" stroke="#6E7E92" stroke-linecap="round" stroke-linejoin="round"/>
<path d="M103.606 39.5249L145.459 29.4546V61.9974L103.606 72.0678V39.5249Z" fill="#E0E4EC" stroke="#6E7E92" stroke-linecap="round" stroke-linejoin="round"/>
<path d="M138.961 43.972L143.075 42.7603V49.0699L138.961 50.2817V43.972Z" fill="#E0E4EC" stroke="#6E7E92" stroke-linecap="round" stroke-linejoin="round"/>
<path d="M103.606 46.4623L114.322 43.884L125.037 41.3057V64.2529L114.322 66.8315L103.606 69.41V46.4623Z" fill="#E0E4EC"/>
<path d="M114.322 43.884L103.606 46.4623V69.41L114.322 66.8315M114.322 43.884L125.037 41.3057V64.2529L114.322 66.8315M114.322 43.884V66.8315" stroke="#6E7E92" stroke-linecap="round" stroke-linejoin="round"/>
<path d="M145.289 18.5684L147.821 17.9399V61.4082L145.289 62.0367V18.5684Z" fill="#E0E4EC" stroke="#6E7E92" stroke-linecap="round" stroke-linejoin="round"/>
<path d="M68.7865 18.7837L99.5511 24.7043C100.96 25.0199 102.382 27.0435 102.382 28.7315V69.6122C102.382 70.7182 101.752 71.3326 100.829 71.1258L71.5431 65.9329C70.1346 65.6174 68.7119 63.5937 68.7119 61.9056L68.7865 18.7837Z" fill="#6E7E92" stroke="#6E7E92" stroke-linecap="round" stroke-linejoin="round"/>
<path d="M100.987 29.1304L103.519 28.502V72.0409L100.987 72.6694V29.1304Z" fill="#E0E4EC" stroke="#6E7E92" stroke-linecap="round" stroke-linejoin="round"/>
<path d="M68.7949 18.7271L115.311 11.501L147.587 17.4704C148.221 20.9264 146.268 27.1864 145.372 33.4936C137.145 36.0071 130.816 35.6785 122.589 37.8921C114.268 40.1309 109.571 42.0912 101.388 41.3481C101.388 36.3471 101.388 27.5242 101.388 27.5242C101.388 27.5242 100.268 25.4872 98.5399 25.0107L68.7949 18.7271Z" fill="#E0E4EC" stroke="#6E7E92" stroke-linecap="round" stroke-linejoin="round"/>
<path fill-rule="evenodd" clip-rule="evenodd" d="M141.175 25.48C141.35 25.48 141.492 25.6207 141.492 25.7942V27.8832L146.485 34.0808C146.595 34.2163 146.573 34.414 146.437 34.5224C146.3 34.6308 146.101 34.6089 145.992 34.4733L141.309 28.6618L139.082 36.243L134.313 29.6136L131.463 37.7891L127.033 31.5055L124.176 39.6998L120.062 33.4161L117.196 41.6357L113.068 34.3831L109.908 42.541L105.474 34.9955L102.232 43.189C102.168 43.3506 101.985 43.4301 101.822 43.3666C101.659 43.3031 101.579 43.1208 101.643 42.9593L105.102 34.2176V32.0778C105.102 31.9043 105.244 31.7636 105.418 31.7636C105.593 31.7636 105.735 31.9043 105.735 32.0778V34.1922L109.79 41.0939L112.696 33.5904V31.4495C112.696 31.2759 112.838 31.1353 113.013 31.1353C113.188 31.1353 113.329 31.2759 113.329 31.4495V33.5661L117.057 40.1141L119.658 32.6534V30.1927C119.658 30.0192 119.8 29.8786 119.975 29.8786C120.15 29.8786 120.291 30.0192 120.291 30.1927V32.613L124.001 38.2799L126.62 30.7682V28.3076C126.62 28.1341 126.761 27.9935 126.936 27.9935C127.111 27.9935 127.252 28.1341 127.252 28.3076V30.722L131.27 36.4203L133.898 28.8832V27.0509C133.898 26.8774 134.039 26.7368 134.214 26.7368C134.389 26.7368 134.53 26.8774 134.53 27.0509V28.8353L138.839 34.8247L140.859 27.9486V25.7942C140.859 25.6207 141.001 25.48 141.175 25.48Z" fill="#6E7E92" stroke="#6E7E92" stroke-linecap="round" stroke-linejoin="round"/>
<path d="M34.1517 78.5204C33.7344 78.6964 33.2715 78.3924 33.2715 77.9419V57.9897C33.2715 57.8922 33.2944 57.796 33.3383 57.7088L36.6428 51.1469C36.7132 51.007 36.8337 50.8982 36.9807 50.8418L64.2803 40.3694C64.479 40.2932 64.7028 40.3213 64.8763 40.4442L68.7637 43.2011C68.9302 43.3191 69.0285 43.5096 69.0285 43.7124V63.3951C69.0285 63.6472 68.8768 63.8749 68.6435 63.9734L34.1517 78.5204Z" fill="#E0E4EC" stroke="#6E7E92" stroke-linecap="round" stroke-linejoin="round"/>
<path d="M62.0669 89.259L34.8535 79.2052L41.1822 76.0635L68.0791 86.4315L62.0669 89.259Z" fill="#E0E4EC" stroke="#6E7E92" stroke-linecap="round" stroke-linejoin="round"/>
<path fill-rule="evenodd" clip-rule="evenodd" d="M41.1659 75.7202L68.879 86.4031L62.0816 89.5999L34.0605 79.2479L41.1659 75.7202ZM41.1983 76.4069L35.6462 79.1628L62.052 88.9183L67.279 86.46L41.1983 76.4069Z" fill="#E0E4EC" stroke="#6E7E92" stroke-linecap="round" stroke-linejoin="round"/>
<path d="M67.4469 86.1171L41.1826 76.0634L47.5114 73.2358L73.4589 83.2896L67.4469 86.1171Z" fill="#E0E4EC" stroke="#6E7E92" stroke-linecap="round" stroke-linejoin="round"/>
<path fill-rule="evenodd" clip-rule="evenodd" d="M47.5025 72.8955L74.2575 83.2616L67.4592 86.459L40.3613 76.0859L47.5025 72.8955ZM47.5199 73.5765L42.0037 76.0411L67.4335 85.7755L72.6606 83.3179L47.5199 73.5765Z" fill="#E0E4EC" stroke="#6E7E92" stroke-linecap="round" stroke-linejoin="round"/>
<path d="M73.4595 82.9755L47.1953 73.2359L52.8911 70.7227L79.4715 80.1479L73.4595 82.9755Z" fill="#E0E4EC" stroke="#6E7E92" stroke-linecap="round" stroke-linejoin="round"/>
<path fill-rule="evenodd" clip-rule="evenodd" d="M52.8777 70.3838L80.2972 80.1067L73.4733 83.3163L46.3584 73.2606L52.8777 70.3838ZM52.9034 71.0603L48.0311 73.2107L73.4444 82.6347L78.6451 80.1886L52.9034 71.0603Z" fill="#E0E4EC" stroke="#6E7E92" stroke-linecap="round" stroke-linejoin="round"/>
<path d="M79.154 80.1478L52.8896 70.4083L58.5855 67.895L85.166 77.3203L79.154 80.1478Z" fill="#E0E4EC" stroke="#6E7E92" stroke-linecap="round" stroke-linejoin="round"/>
<path fill-rule="evenodd" clip-rule="evenodd" d="M58.5731 67.5566L85.9923 77.2795L79.169 80.4891L52.0537 70.4334L58.5731 67.5566ZM58.5987 68.2331L53.7264 70.3835L79.1394 79.8075L84.3408 77.3614L58.5987 68.2331Z" fill="#E0E4EC" stroke="#6E7E92" stroke-linecap="round" stroke-linejoin="round"/>
<path d="M85.4832 77.9489L58.9023 67.8951L64.5981 65.3818L91.4952 75.1214L85.4832 77.9489Z" fill="#E0E4EC" stroke="#6E7E92" stroke-linecap="round" stroke-linejoin="round"/>
<path fill-rule="evenodd" clip-rule="evenodd" d="M64.5863 65.043L92.3141 75.0833L85.4959 78.2897L58.0723 67.9172L64.5863 65.043ZM64.6095 65.7201L59.7318 67.8724L85.4689 77.6075L90.6754 75.1588L64.6095 65.7201Z" fill="#E0E4EC" stroke="#6E7E92" stroke-linecap="round" stroke-linejoin="round"/>
<path d="M62.9457 88.5758C62.5284 88.7512 62.0664 88.4465 62.0664 87.9972V68.0433C62.0664 67.9454 62.0892 67.8494 62.1332 67.7624L65.4376 61.1999C65.5083 61.0602 65.6285 60.9515 65.7751 60.895L96.2395 49.1665C96.4381 49.09 96.6625 49.118 96.836 49.2411L100.723 51.9978C100.889 52.1157 100.988 52.3061 100.988 52.5091V72.1912C100.988 72.4433 100.836 72.6712 100.601 72.7697L62.9457 88.5758Z" fill="#E0E4EC" stroke="#6E7E92" stroke-linecap="round" stroke-linejoin="round"/>
</svg>
