<svg width="194" height="104" viewBox="0 0 194 104" fill="none" xmlns="http://www.w3.org/2000/svg">
<path d="M61.9316 78.6934L106.704 89.8879L149.772 79.0026V82.081L106.704 94.6449L61.9318 81.8064L61.9316 78.6934Z" fill="#E0E4EC" stroke="#6E7E92" stroke-linecap="round" stroke-linejoin="round"/>
<path d="M43.3135 19.8843L86.3138 31.5094V61.4051L43.3135 49.78V19.8843Z" fill="#E0E4EC" stroke="#6E7E92" stroke-linecap="round" stroke-linejoin="round"/>
<path d="M43.3135 19.8843L86.3145 31.5094L149.818 17.5035L109.548 8.75488L43.3135 19.8843Z" fill="#E0E4EC" stroke="#6E7E92" stroke-linecap="round" stroke-linejoin="round"/>
<path d="M106.546 27.2966L106.666 89.9849L149.811 79.094V18.2809C149.811 17.7347 149.771 17.4688 149.771 17.4688L106.546 27.2966Z" fill="#E0E4EC" stroke="#6E7E92" stroke-linecap="round" stroke-linejoin="round"/>
<path d="M109.208 28.2808V45.7191L148.812 36.633V19.5312L109.208 28.2808Z" fill="#F8F9FD" stroke="#6E7E92" stroke-linecap="round" stroke-linejoin="round"/>
<path d="M109.208 49.046V66.4843L148.812 57.3981V40.2964L109.208 49.046Z" fill="#F8F9FD" stroke="#6E7E92" stroke-linecap="round" stroke-linejoin="round"/>
<path d="M109.208 69.8111V86.5766L148.812 76.144V60.3887L109.208 69.8111Z" fill="#F8F9FD" stroke="#6E7E92" stroke-linecap="round" stroke-linejoin="round"/>
<path d="M86.5771 31.3261L106.546 27.272L106.698 89.8623L86.7289 61.5554L86.5771 31.3261Z" fill="#E0E4EC" stroke="#6E7E92" stroke-linecap="round" stroke-linejoin="round"/>
<path d="M92.9004 45.1072L101.554 43.4248V54.8666L92.9004 56.4941V45.1072Z" fill="#E0E4EC" stroke="#6E7E92" stroke-linecap="round" stroke-linejoin="round"/>
<path d="M43.375 49.9702L86.1766 61.4494L106.727 90.0508L61.9055 78.6545L43.375 49.9702Z" fill="#E0E4EC" stroke="#6E7E92" stroke-linecap="round" stroke-linejoin="round"/>
</svg>
