<svg width="180" height="96" viewBox="0 0 180 96" fill="none" xmlns="http://www.w3.org/2000/svg">
<path d="M98.5579 88.0588L55.1738 75.9385V77.8482L98.5579 90.6054L134.377 81.8886V78.437L98.5579 88.0588Z" fill="#E0E4EC" stroke="#6E7E92" stroke-linecap="round" stroke-linejoin="round"/>
<path d="M44.3574 13.2417L90.2876 23.5933V68.2054L44.3574 55.6619V13.2417Z" fill="#E0E4EC" stroke="#6E7E92" stroke-linecap="round" stroke-linejoin="round"/>
<path d="M105.756 20.0473V86.0494L134.375 79.3006V13.9731L105.756 20.0473Z" fill="#E0E4EC" stroke="#6E7E92" stroke-linecap="round" stroke-linejoin="round"/>
<path d="M108.492 24.0457V51.8667L132.505 46.549V18.8936L108.492 24.0457Z" fill="#F8F9FD" stroke="#6E7E92" stroke-linecap="round" stroke-linejoin="round"/>
<path d="M108.488 55.6765V81.0329L132.529 75.4425V50.2241L108.488 55.6765Z" fill="#F8F9FD" stroke="#6E7E92" stroke-linecap="round" stroke-linejoin="round"/>
<path d="M90.1807 23.3933L106.102 19.98V85.8379L98.5905 87.8296L90.1807 68.2987V23.3933Z" fill="#E0E4EC" stroke="#6E7E92" stroke-linecap="round" stroke-linejoin="round"/>
<path d="M90.2375 68.2056L98.567 87.7256L55.4958 76.2056L44.3838 55.5928L90.2375 68.2056Z" fill="#E0E4EC" stroke="#6E7E92" stroke-linecap="round" stroke-linejoin="round"/>
<path d="M95.7256 38.1451L103.629 36.6655V49.0962L95.7256 50.5276V38.1451Z" fill="#E0E4EC" stroke="#6E7E92" stroke-linecap="round" stroke-linejoin="round"/>
<path d="M44.3574 13.2165L90.1398 23.5653L134.348 13.9821L96.1036 5.78564L44.3574 13.2165Z" fill="#E0E4EC" stroke="#6E7E92" stroke-linecap="round" stroke-linejoin="round"/>
</svg>
