<svg width="184" height="98" viewBox="0 0 184 98" fill="none" xmlns="http://www.w3.org/2000/svg">
<path d="M37.7725 80.2012L80.1355 91.854L145.571 74.5132V71.9104L141.643 71.2969L40.6861 77.6754L37.7725 77.9197V80.2012Z" fill="#E0E4EC" stroke="#6E7E92" stroke-linecap="round" stroke-linejoin="round"/>
<path d="M37.7725 78.1055L80.4444 88.9946L145.571 72.6685V74.8127L80.4444 91.8536L37.7725 80.2497V78.1055Z" fill="#E0E4EC" stroke="#6E7E92" stroke-linecap="round" stroke-linejoin="round"/>
<path d="M143.822 16.8279L129.612 20.0283V27.4959L97.6939 34.6972L95.1336 28.3725L87.5752 30.5061L70.6446 26.9501L61.2595 23.7497V25.5277V30.2068L51.6239 27.7176V21.6161L41.085 18.2952L54.6205 15.3081L68.8302 12.4545L73.6674 11.4831L77.9001 10.633L85.0051 9.20627L89.0492 8.39418L93.0926 7.58215L101.18 5.95801L116.901 9.34203L143.822 16.8279Z" fill="#E0E4EC"/>
<path d="M129.612 20.0283L143.822 16.8279L116.901 9.34203M129.612 20.0283V27.4959M129.612 20.0283L103.731 12.1603M116.901 9.34203L101.18 5.95801L93.0926 7.58215L89.0492 8.39418M116.901 9.34203L103.731 12.1603M129.612 27.4959L113.879 21.9717V16.9933M129.612 27.4959L97.6939 34.6972L95.1336 28.3725M103.731 12.1603L89.0492 8.39418M113.879 16.9933L113.576 17.0621L104.355 19.1613M113.879 16.9933L101.482 13.7929L92.4124 15.6555M95.1336 28.3725V21.2605M95.1336 28.3725L87.5752 30.5061M95.1336 28.3725L87.3826 25.5277M95.1336 21.2605L82.4357 17.7045L92.4124 15.6555M95.1336 21.2605L104.355 19.1613M92.4124 15.6555L104.355 19.1613M87.5752 30.5061L87.3826 25.5277M87.5752 30.5061L70.6446 26.9501M87.3826 25.5277L87.2729 22.6829M70.6446 26.9501L87.2729 22.6829M70.6446 26.9501L61.2595 23.7497M87.2729 22.6829L78.7241 20.0283L61.2595 23.7497M87.2729 22.6829L80.9236 13.7929M61.2595 23.7497V25.5277M80.9236 13.7929L51.6239 21.6161M80.9236 13.7929L73.6674 11.4831M61.2595 25.5277V30.2068L51.6239 27.7176M61.2595 25.5277L51.6239 27.7176M51.6239 27.7176V21.6161M51.6239 21.6161L41.085 18.2952L54.6205 15.3081L68.8302 12.4545L73.6674 11.4831M73.6674 11.4831L77.9001 10.633M89.0492 8.39418L85.0051 9.20627L77.9001 10.633M77.9001 10.633L93.9245 15.2152" stroke="#6E7E92" stroke-linecap="round" stroke-linejoin="round"/>
<path d="M61.1508 23.502L80.2294 28.3995V48.3974V68.3951V87.9853L61.1508 83.0872L40.4824 77.7822V37.7863V33.2969V18.5317L51.8145 21.4615V27.5833L61.1508 30.032V23.502Z" fill="#E0E4EC"/>
<path d="M61.1508 30.032V23.502L80.2294 28.3995V48.3974M61.1508 30.032V43.4999M61.1508 30.032L51.8145 27.5833M80.2294 48.3974L61.1508 43.4999M80.2294 48.3974V68.3951M61.1508 43.4999V57.376M51.8145 27.5833V21.4615L40.4824 18.5317V33.2969V37.7863M51.8145 27.5833V40.235M61.1508 57.376V63.2937M61.1508 57.376L51.8145 54.5192V40.235M40.4824 37.7863V77.7821L61.1508 83.0872M40.4824 37.7863L51.8145 40.235M61.1508 83.0872L80.2294 87.9853V68.3951M61.1508 83.0872V63.2937M80.2294 68.3951L61.1508 63.2937" stroke="#6E7E92" stroke-linecap="round" stroke-linejoin="round"/>
<path d="M129.43 20.125L144.065 16.9092V41.3849V53.6227V72.2731L127.873 76.7138L111.68 81.1552L97.3559 85.0837L96.4222 85.3398L80.2295 89.7811V72.4515V48.7097V28.8066L97.3559 24.5189V34.7746L105.453 32.6308L110.746 31.5531L119.465 29.7781L124.759 28.7004L129.43 27.9858V20.125Z" fill="#E0E4EC"/>
<path d="M129.43 27.9858V20.125L144.065 16.9092V41.3849M129.43 27.9858L124.759 28.7004L119.465 29.7781M129.43 27.9858V45.3411M144.065 41.3849L129.43 45.3411M144.065 41.3849V53.6227M119.465 29.7781L110.746 31.5531M119.465 29.7781V48.0346M129.43 45.3411L119.465 48.0346M97.3559 34.7746L105.453 32.6308L110.746 31.5531M97.3559 34.7746V24.5189L80.2295 28.8066V48.7097M97.3559 34.7746V43.886M110.746 31.5531V50.3254M80.2295 48.7097L97.3559 43.886M80.2295 48.7097V72.4515M97.3559 43.886V52.9974M97.3559 85.0837L96.4222 85.3398L80.2295 89.7811V72.4515M97.3559 85.0837L111.68 81.1552M97.3559 85.0837V67.9853M80.2295 72.4515L97.3559 67.9853M111.68 81.1552V68.8529M111.68 81.1552L127.873 76.7138M97.3559 67.9853L111.68 64.4441M97.3559 67.9853V52.9974M144.065 53.6227V72.2731L127.873 76.7138M144.065 53.6227L127.873 64.4441M111.68 68.8529L127.873 64.4441M111.68 68.8529V64.4441M127.873 76.7138V64.4441M119.465 48.0346L111.68 50.139M111.68 64.4441V50.139M111.68 50.139L110.746 50.3254M110.746 50.3254L97.3559 52.9974" stroke="#6E7E92" stroke-linecap="round" stroke-linejoin="round"/>
<path d="M84.1143 52.2666L90.6857 50.6333V59.78L84.1143 61.4133V52.2666Z" fill="#6E7E92"/>
<path fill-rule="evenodd" clip-rule="evenodd" d="M102.556 6.01744L103.265 5.87988C102.331 8.09621 101.997 15.9088 101.115 17.9391C101.318 18.9763 101.527 19.957 101.751 20.8842C102.496 23.9485 103.415 26.3782 104.893 28.2692C106.919 24.5062 109.031 20.5772 111.277 16.3896C111.03 15.0575 112.271 9.58758 111.94 8.05355L113.317 8.47319C113.593 9.75032 111.513 14.4253 111.724 15.5569C112.309 14.4658 115.217 9.88484 115.822 8.75673L116.328 9.08876C115.609 10.43 112.592 15.216 111.9 16.5054L111.915 16.5873L111.94 16.7178C112.211 18.1806 112.458 19.5115 112.744 20.7317C113.309 23.1444 114.012 25.0913 115.293 26.707L121.847 10.5905L122.385 10.7479C123.138 13.3436 125.156 18.6399 126.198 20.6702L133.557 13.9123L133.827 13.7415L133.967 14.0494L135.645 20.7802L141.765 25.8688L144 23.6495L144.104 24.4987L142.236 26.2608L144.088 27.4773L144.066 28.2281L141.902 26.7974L137.495 33.8599C138.848 35.025 140.299 36.2304 141.852 37.5165L144.104 34.5602V35.4386L142.325 37.9082C142.514 38.0652 143.914 38.3041 144.104 38.4611V39.1782C143.648 38.7997 142.45 38.8259 142.009 38.4611L142.007 38.4596L136.441 48.1407L140.782 52.5391L144.104 48.4681V49.2364L141.227 52.99L144.099 55.8177V56.5236L140.926 53.5683L135.789 63.4285L141.112 71.7215L144.104 64.5564V65.8317L141.355 72.416L141.146 72.6943L140.918 72.4343L135.484 64.0153L131.745 75.0574L131.562 75.4082L131.291 75.1364L125.259 67.5878L121.669 78.1829L121.496 78.4848L121.24 78.2659L114.599 70.552L110.852 80.8093L110.684 81.0785L110.442 80.8917L103.996 73.8291L100.492 84.2883L100.341 84.5392L100.103 84.3922C98.2489 83.2463 95.4429 79.3792 93.7797 78.2659L90.8054 87.0343L90.6273 87.3446L90.3698 87.1114C88.6112 85.514 86.0865 81.6339 84.4075 80.056L81.5778 88.7101L80.8162 88.9185L83.9554 79.6307C82.513 78.2698 81.0948 76.907 79.6918 75.5291C78.4485 77.7583 77.1625 80.0593 75.8265 82.4453C76.897 83.6788 79.3948 87.6896 80.5271 88.9577L79.8344 89.1818C78.7377 87.9529 76.5454 84.2132 75.5058 83.0176C74.716 84.4288 73.6172 86.5097 72.7899 87.9842L72.2891 87.6413C73.1441 86.117 74.2691 83.9885 75.0853 82.5315C72.9358 80.0495 70.9039 77.6309 68.9614 75.2527L64.9222 78.2594L71.6997 86.9605L71.2535 87.3851L64.43 78.6259L58.1098 83.3299L57.8881 83.4952L57.718 83.2672L51.2887 74.6615L44.921 79.5883L44.695 79.7627L44.5223 79.5249L40.6946 74.1578V73.1176L44.8091 78.8794L50.9124 74.1578L42.6263 63.066L40.6947 65.3351V64.4925L42.2511 62.5638L40.6947 60.2325V59.2096L42.7066 62.1505L47.9155 57.4245L41.0832 48.6532L40.4824 49.3893V48.5511L40.8266 48.2431L40.4824 47.8012V46.803L41.1567 47.7492L45.8704 43.5292C44.0788 40.8498 42.4091 38.1202 40.5124 35.251V33.7597C41.6662 32.805 42.6439 31.8428 43.7723 30.9228C42.6563 29.2497 41.858 27.6149 40.6947 25.8285V24.7124C42.0235 26.7593 42.9794 28.6368 44.2467 30.5364C46.8328 28.4323 49.3882 26.3869 52.0424 24.2838C51.9892 23.4379 53.4279 16.461 53.4023 15.5569L53.9888 15.4429C54.0103 16.2306 52.5645 23.097 52.6063 23.8372C53.8729 22.835 56.6403 15.7142 57.9693 14.6698L59.3209 14.4072C57.5279 15.8146 54.332 23.2718 52.654 24.6005C52.8565 27.5479 53.2525 30.1345 53.9619 32.5134C54.2532 33.49 54.5977 34.4327 55.0044 35.352L60.2857 30.6238C58.9332 27.4136 60.2551 18.142 60.4298 14.1918L61.0266 14.0758C60.846 17.9843 59.499 27.1181 60.7517 30.1846L70.5457 20.6716C70.5227 20.3593 70.4997 20.0444 70.4767 19.7269C70.4373 19.1858 71.1063 12.6021 71.0642 12.0457L71.6471 11.9325C71.6905 12.5108 71.0235 19.1151 71.0642 19.6752L71.0977 20.1356L74.6371 11.3516L75.7529 11.1348L71.1575 20.9447C71.3402 23.3876 71.5347 25.6393 71.8856 27.6995C72.2806 30.0152 72.8714 32.0783 73.863 33.8824L74.3131 33.4743L85.2112 19.0628L85.0863 9.36433L85.6699 9.25104V18.4565L89.3137 8.79946L90.214 8.62456L85.8624 19.2174L87.8273 26.982L96.4076 13.319L97.2165 13.1618L87.958 27.9281L87.4264 28.7934L93.0003 34.3055C95.4008 29.2982 97.8441 23.9627 100.497 17.8579C100.22 16.4277 99.3286 8.72883 99.0434 7.09184L99.0427 7.08897C98.9947 6.81209 99.092 6.83953 99.0427 6.5567L99.6236 6.44394C99.6742 6.73382 99.5776 6.71291 99.6269 6.996V6.99691C99.8563 8.3109 100.697 15.7185 100.916 16.8919C101.636 15.2264 101.802 7.80633 102.556 6.01744ZM85.4037 19.8237L87.3936 27.6873L86.7942 28.6631L86.7818 28.6825L86.7725 28.7037L81.2631 41.2313L77.4076 37.9357L77.4004 37.9292L77.3925 37.9234C76.0302 36.9074 74.9893 35.7433 74.1837 34.4339L74.7081 33.9583L74.7298 33.9389L74.7475 33.9155L85.4037 19.8237ZM77.0547 38.4573L80.9996 41.8296L76.5809 51.8769C72.711 48.145 70.0364 44.6795 67.3389 40.6444L73.7263 34.8489C74.5628 36.1965 75.6438 37.4032 77.0547 38.4573ZM66.8828 41.0583C69.6185 45.1472 72.3489 48.6783 76.3141 52.4837L74.9663 55.5478L72.0933 57.7705C69.0553 54.1356 65.9116 49.9955 62.4152 45.1117L66.8828 41.0583ZM61.9596 45.525C65.441 50.3873 68.5756 54.517 71.6064 58.1473L67.3277 61.4577C64.1795 57.8081 60.9805 53.8595 57.6326 49.4508L61.9596 45.525ZM72.0105 58.6295L67.7397 61.9339C70.0897 64.6427 72.4133 67.1886 74.7528 69.6386C75.6681 67.908 76.5533 66.2387 77.4129 64.6187C75.611 62.7653 73.8275 60.7858 72.0105 58.6295ZM57.1771 49.8641C60.5129 54.257 63.7014 58.1946 66.8394 61.8354L62.088 65.5115C59.0473 61.4894 56.1682 57.4876 53.3071 53.3754L57.1771 49.8641ZM67.2508 62.3118L62.4677 66.0126C64.5692 68.7808 66.7501 71.5614 69.0566 74.3962L74.3006 70.4932L74.4472 70.2155C72.0466 67.7048 69.6625 65.0941 67.2508 62.3118ZM52.8514 53.7888C55.7026 57.8864 58.573 61.8762 61.6036 65.8859L57.6605 68.937L48.7557 57.5049L52.8514 53.7888ZM61.9832 66.3877L58.0469 69.4328L64.535 77.7622L68.5631 74.764C66.2598 71.9318 64.0822 69.1532 61.9832 66.3877ZM48.3001 57.9182L57.1753 69.312L51.3967 73.7827L43.0818 62.6527L48.3001 57.9182ZM57.5617 69.8085L51.7731 74.2865L58.0022 82.625L64.0428 78.1287L57.5617 69.8085ZM48.3711 57.0112L41.5413 48.2431L46.2211 44.0534C48.3411 47.2196 50.4131 50.276 52.4922 53.2721L48.3711 57.0112ZM52.948 52.8586C50.8705 49.8645 48.7994 46.8092 46.6795 43.643L50.2783 40.4212C52.5275 43.6113 54.693 46.5793 56.7988 49.3647L52.948 52.8586ZM46.3288 43.1188L49.9163 39.9071C48.0478 37.2479 46.121 34.4352 44.1223 31.4468C42.9392 32.4113 41.9062 33.4193 40.6947 34.4225C42.6911 37.443 44.4511 40.3104 46.3288 43.1188ZM57.2542 48.9515C55.1496 46.1676 52.985 43.2007 50.7362 40.0112L54.8107 36.3635C56.2738 39.3881 58.4232 42.1706 61.5421 45.0612L57.2542 48.9515ZM50.3743 39.497L54.5348 35.7723C54.0909 34.7855 53.7166 33.7711 53.4023 32.7173C52.7071 30.3862 52.308 27.8694 52.0948 25.0437C49.5465 27.0644 47.0857 29.0353 44.5967 31.0605C46.5898 34.0405 48.5111 36.8454 50.3743 39.497ZM62.0056 44.6406C58.8483 41.729 56.7125 38.9541 55.2773 35.9459L60.5918 31.188C61.3642 32.4035 62.0901 33.5586 62.7842 34.6634C64.1151 36.7814 65.3298 38.7144 66.5332 40.5328L62.0056 44.6406ZM63.2726 34.2984C62.5687 33.1783 61.8313 32.0049 61.0446 30.7672L70.6068 21.4797C70.7797 23.7419 70.9729 25.862 71.3067 27.82C71.7161 30.2234 72.3397 32.3934 73.403 34.2996L66.9893 40.1188C65.7998 38.3199 64.5956 36.4035 63.2726 34.2984ZM75.4053 81.9599C73.3202 79.5484 71.3448 77.1977 69.4555 74.8849L74.6857 70.9917L74.7416 70.9505L74.7758 70.8859L74.8875 70.6748C76.3299 72.1749 77.7795 73.641 79.245 75.0888C78.0095 77.3042 76.7321 79.5896 75.4053 81.9599ZM79.5591 74.5256C78.0904 73.0739 76.6381 71.6032 75.1924 70.0979C76.1091 68.3653 76.9956 66.6934 77.8558 65.0713C79.3495 66.5869 80.8589 68.0197 82.4137 69.3976C81.4852 71.0688 80.535 72.7753 79.5591 74.5256ZM82.7246 68.8383C81.1678 67.4565 79.657 66.0192 78.1614 64.4965L78.7068 63.4682C79.8936 61.2316 81.0324 59.0857 82.1351 56.9995L87.1445 60.8561C85.7159 63.4449 84.2485 66.0943 82.7246 68.8383ZM87.452 60.299L82.4334 56.4352C84.1118 53.2557 85.708 50.2093 87.2634 47.184L92.2958 51.4863C90.7108 54.3811 89.1061 57.3009 87.452 60.299ZM81.9485 56.0617C83.6321 52.8717 85.2329 49.8162 86.7923 46.7815L81.476 42.2367L77.0527 52.293L81.9485 56.0617ZM81.7388 41.6383L87.086 46.2092C88.9937 42.4882 90.8436 38.7878 92.7158 34.898L87.132 29.3763L81.7388 41.6383ZM92.6034 50.9254L87.5572 46.6118C89.4583 42.9042 91.3029 39.2175 93.1679 35.3452L93.2671 35.4431L93.2684 35.4449L98.289 40.4893C96.3852 43.9988 94.5071 47.4465 92.6034 50.9254ZM93.6614 34.9595L93.4524 34.7529C95.78 29.9032 98.1457 24.7487 100.702 18.889C100.856 19.6409 101.015 20.3622 101.182 21.0531C101.957 24.2399 102.935 26.8332 104.576 28.8573C102.517 32.6797 100.542 36.3343 98.5978 39.9196L93.6634 34.9612L93.6614 34.9595ZM99.0427 40.3664C100.981 36.794 102.947 33.1538 104.998 29.3482L110.215 35.2819L104.161 45.5083L99.0427 40.3664ZM104.602 45.952L110.637 35.7604L114.752 40.4405L109.028 50.3992L104.602 45.952ZM110.967 35.202L115.077 39.8754L119.616 31.9784L115.404 27.7101L110.967 35.202ZM109.47 50.8439L115.174 40.9206L119.868 46.2576L114.233 55.6288L109.47 50.8439ZM115.499 40.3555L120.201 45.7026L125.108 37.5425L120.057 32.4254L115.499 40.3555ZM114.674 56.072L120.288 46.7355L125.234 52.3605L119.741 61.1639L114.674 56.072ZM120.621 46.1805L125.576 51.8139L130.85 43.3604L125.548 37.988L120.621 46.1805ZM120.182 61.606L125.653 52.8367L130.121 57.9172L125.137 66.585L120.182 61.606ZM125.994 52.29L130.446 57.3522L135.678 48.252L131.289 43.8047L125.994 52.29ZM125.579 67.0299L130.544 58.3973L135.057 63.5297L131.417 74.3818L125.579 67.0299ZM130.868 57.8322L135.362 62.9429L140.481 53.1174L136.12 48.699L130.868 57.8322ZM141.534 38.068L136 47.6937L131.627 43.2634L137.159 34.3977C138.522 35.5701 139.979 36.78 141.534 38.068ZM136.694 33.996L131.188 42.819L125.878 37.4389L131.134 28.6973C132.778 30.484 134.625 32.2008 136.694 33.996ZM130.709 28.2282L125.438 36.9935L120.378 31.867L126.14 21.8436C127.438 24.199 128.953 26.2629 130.709 28.2282ZM125.802 21.2157L119.937 31.42L115.73 27.1579L122.173 11.242C122.925 13.7078 124.779 19.26 125.802 21.2157ZM110.546 34.7234L114.963 27.2642L114.916 27.2167L114.905 27.2054L114.895 27.1929C113.497 25.454 112.753 23.3745 112.173 20.8948C111.916 19.7956 111.689 18.6111 111.453 17.3387C109.297 21.3578 107.264 25.1399 105.31 28.7687L110.546 34.7234ZM131.042 27.6739C129.282 25.6929 127.777 23.6146 126.494 21.2333L133.623 14.4658L135.073 20.9713L131.042 27.6739ZM131.467 28.1446L135.485 21.4622L141.43 26.4055L137.03 33.458C134.948 31.651 133.102 29.9312 131.467 28.1446ZM119.844 62.147L124.817 67.1429L121.345 77.5322L114.934 70.015L119.844 62.147ZM119.404 61.7049L114.468 69.6158L109.224 65.1342L114.344 56.6207L119.404 61.7049ZM113.903 56.1775L108.757 64.7347L103.882 60.5668L109.15 51.4018L113.903 56.1775ZM108.43 65.2785L103.565 61.119L98.9488 69.1493L103.839 72.9145L108.43 65.2785ZM108.707 50.9572L103.413 60.1667L98.6143 56.0639L104.275 46.5039L108.707 50.9572ZM103.096 60.7188L98.2903 56.6107L93.3966 64.8755L98.4644 68.7769L103.096 60.7188ZM103.833 46.0602L98.1464 55.6642L93.0726 51.3265C94.9684 47.8621 96.8387 44.4292 98.7339 40.9361L103.833 46.0602ZM97.8231 56.2109L92.765 51.8874C91.1853 54.7728 89.5858 57.6834 87.9363 60.672L92.9129 64.5031L97.8231 56.2109ZM83.1892 69.2473C84.7203 66.4902 86.1936 63.8291 87.6295 61.2291L92.5902 65.0483L87.845 73.0621C86.2304 71.8221 84.6874 70.5585 83.1892 69.2473ZM88.33 73.4326L93.0739 65.4207L98.1484 69.327L93.618 77.2082C91.7576 75.9525 90.005 74.7033 88.33 73.4326ZM94.1214 77.5466L98.632 69.7001L103.513 73.4567L100.152 83.6762C98.3961 82.5884 95.7044 78.6056 94.1214 77.5466ZM88.0073 73.9774C89.6843 75.2495 91.4402 76.5006 93.3019 77.7583L90.4867 86.3744C88.8012 84.8417 86.3447 81.0223 84.7328 79.5072L88.0073 73.9774ZM87.5224 73.607L84.2807 79.0813C82.8343 77.7158 81.4122 76.349 80.006 74.9659C80.9877 73.2045 81.9439 71.4876 82.8783 69.8059C84.3733 71.1119 85.9124 72.3709 87.5224 73.607ZM108.898 65.6781L104.322 73.2869L110.442 79.6752L114.133 70.1528L108.898 65.6781ZM81.6501 56.626L76.7919 52.886L75.4625 55.9085L75.4296 55.9845L75.3665 56.0329L72.4981 58.2524C74.254 60.3333 75.9777 62.248 77.7184 64.0431L78.1988 63.1385L78.2047 63.1271C79.3981 60.8786 80.5422 58.7221 81.6501 56.626Z" fill="#9EA9B9"/>
</svg>
