<svg width="138" height="74" viewBox="0 0 138 74" fill="none" xmlns="http://www.w3.org/2000/svg">
<path d="M24.6514 60.6521L51.0653 65.1833L113.765 51.4756V53.8283L51.0653 69.0595L24.6514 63.0211V60.6521Z" fill="#E0E4EC"/>
<path d="M24.6514 60.6519L51.0653 65.1832L113.765 51.4754L110.315 50.9214L26.8931 59.9874L24.6514 60.6519Z" fill="#E0E4EC"/>
<path d="M24.6514 60.6519L51.0653 65.1832L113.765 51.4754M24.6514 60.6519V63.0209L51.0653 69.0593L113.765 53.8281V51.4754M24.6514 60.6519L26.8931 59.9874L110.315 50.9214L113.765 51.4754" stroke="#6E7E92" stroke-linecap="round" stroke-linejoin="round"/>
<path d="M16.501 19.5981L43.4618 24.8481V56.1927L16.501 46.9549V19.5981Z" fill="#E0E4EC" stroke="#6E7E92" stroke-linecap="round" stroke-linejoin="round"/>
<path d="M16.5439 19.6342L43.4213 24.6626L79.0122 18.3061L51.7108 12.689L16.5439 19.6342Z" fill="#E0E4EC" stroke="#6E7E92" stroke-linecap="round" stroke-linejoin="round"/>
<path d="M51.6152 12.7971L78.5923 18.0847L114.269 11.5675L86.9684 5.94971L51.6152 12.7971Z" fill="#E0E4EC" stroke="#6E7E92" stroke-linecap="round" stroke-linejoin="round"/>
<path d="M94.0442 4.80762L121.108 9.93362L114.27 11.5676L86.9688 5.94985L94.0442 4.80762Z" fill="#E0E4EC" stroke="#6E7E92" stroke-linecap="round" stroke-linejoin="round"/>
<path d="M53.6748 23.2721V66.2305L113.466 52.2963V11.8164L53.6748 23.2721Z" fill="#F8F9FD" stroke="#6E7E92" stroke-linecap="round" stroke-linejoin="round"/>
<path fill-rule="evenodd" clip-rule="evenodd" d="M113.502 11.8598C113.541 12.0242 113.443 12.1899 113.283 12.2301C112.327 12.4693 111.294 12.5463 110.369 12.7686C110.417 13.7815 110.552 14.737 110.587 15.4287C110.689 17.4132 110.744 18.4889 110.777 21.0296L112.82 20.5662C112.981 20.5297 113.14 20.6341 113.176 20.7993C113.212 20.9646 113.11 21.1281 112.949 21.1645L110.783 21.6555C110.809 24.0475 110.817 26.3741 110.825 28.6666V28.6682V28.6709C110.831 30.3968 110.838 32.1039 110.851 33.8058C111.427 33.7293 112.414 33.6528 113.003 33.5764C113.166 33.5551 113.316 33.674 113.336 33.8419C113.358 34.0097 113.241 34.163 113.078 34.1843C112.465 34.2638 111.455 34.3434 110.856 34.423C110.889 38.2094 110.962 41.9788 111.155 45.8858L113.138 45.3637C113.514 45.2647 113.658 45.8592 113.286 45.9572L111.185 46.5104C111.271 48.4929 110.85 50.4611 111.079 52.4399C111.765 52.3165 112.459 52.1932 113.161 52.0704C113.544 52.0033 113.641 52.6081 113.262 52.6742C99.6256 55.3831 85.9311 59.8912 71.9694 62.1225C69.932 62.7801 67.8166 62.9178 65.7866 63.606C63.5712 64.3563 61.1754 64.4131 58.9797 65.1827L58.5238 65.3425L59.2646 60.1808L52.885 61.8606C52.7249 61.9025 52.5622 61.8038 52.5213 61.64C52.4799 61.4758 52.5765 61.309 52.7362 61.2671L59.3114 59.536L58.8417 46.3139C56.9353 46.9419 54.9605 47.6052 52.9047 48.3072C52.7485 48.3606 52.579 48.2739 52.5272 48.1133C52.475 47.9527 52.5597 47.7793 52.716 47.7258C54.8313 47.0036 56.8609 46.3221 58.819 45.6778L58.3873 33.5203L52.8752 34.7685C52.714 34.805 52.5543 34.7006 52.5188 34.5354C52.4834 34.3702 52.5849 34.2067 52.746 34.1701L58.3622 32.8984L57.9063 22.7462C56.2715 23.1624 54.6031 23.119 52.8909 23.61C52.5169 23.7173 52.3601 23.1259 52.7303 23.0199C54.5716 22.4918 56.3626 22.5043 58.1157 22.0618C66.6175 19.9161 75.4929 18.4667 84.1317 17.021C86.143 16.6845 88.1628 16.2439 90.2786 15.8702C92.457 15.4856 94.7636 15.1099 97.0992 14.6548C99.0288 14.2788 100.761 13.9881 102.827 13.5442C105.075 13.0615 107.549 12.815 109.991 12.2301C110.991 11.9903 112.104 11.8945 113.141 11.6348C113.301 11.5947 113.463 11.6954 113.502 11.8598ZM58.4977 22.5967L58.9541 32.7644L65.7304 31.23C65.6042 28.579 65.4287 27.1883 65.1798 25.2134C65.0571 24.2381 64.8664 22.9409 64.7047 21.4582C62.6579 21.897 60.6303 22.0617 58.4977 22.5967ZM65.2922 21.3332C65.4539 22.8205 65.6461 24.1258 65.7698 25.112C66.0172 27.077 66.1951 28.4871 66.3223 31.0959L72.3361 29.7341C72.1503 26.4725 71.6348 23.2541 71.3573 20.0026C69.3346 20.3758 67.3474 20.8989 65.2922 21.3332ZM71.9478 19.8922C72.2233 23.1357 72.7388 26.3476 72.9271 29.6003L79.3327 28.1499C79.1859 25.2704 78.9064 23.8313 78.4214 21.3332C78.2775 20.5946 78.1164 19.7634 77.935 18.775C75.9414 19.1433 73.93 19.5014 71.9478 19.8922ZM78.5244 18.6734C78.7024 19.6418 78.8616 20.4616 79.004 21.194C79.4865 23.6774 79.7733 25.1558 79.9242 28.0159L85.2549 26.8088C84.9617 23.743 84.3264 20.7141 83.9227 17.6607C81.9705 18.1396 80.1381 18.6622 78.5244 18.6734ZM84.5146 17.5778C84.9163 20.6146 85.5472 23.6269 85.8429 26.6757L90.2692 25.6734C90.2564 24.8695 90.2436 24.0555 90.2308 23.2305V23.2213C90.1958 20.9912 90.0839 18.764 90.0381 16.5345C88.1401 16.8682 86.3264 17.2743 84.5146 17.5778ZM90.6335 16.4293C90.6793 18.6907 90.7931 20.9497 90.8281 23.2115C90.8404 23.997 90.8523 24.7723 90.8646 25.5385L97.4083 24.0568C97.3545 21.6678 97.2599 20.5936 97.0992 18.7735C97.0307 17.9956 96.978 16.5317 96.8834 15.3204C94.7513 15.7337 92.633 16.0752 90.6335 16.4293ZM97.4738 15.2054C97.5699 16.435 97.6231 17.9126 97.6931 18.7034C97.8518 20.5042 97.9484 21.5948 98.0027 23.9221L102.969 22.7976L102.596 14.2197C100.745 14.615 99.2141 14.8649 97.4738 15.2054ZM103.191 14.0919L103.564 22.6628L110.181 21.1645C110.149 18.545 110.094 17.4789 109.991 15.4665C109.956 14.7998 109.823 13.8756 109.777 12.9102C107.544 13.4424 105.261 13.6457 103.191 14.0919ZM110.188 21.7905L103.575 23.2879L103.774 34.7983C105.857 34.488 108.01 34.1857 110.254 33.8853C110.24 32.1583 110.234 30.4269 110.228 28.6773V28.6742V28.6716C110.22 26.419 110.212 24.1356 110.188 21.7905ZM110.259 34.5026C108.017 34.803 105.866 35.1055 103.785 35.4158L103.999 47.7698L110.564 46.0413C110.368 42.1035 110.293 38.3086 110.259 34.5026ZM110.594 46.6662L104.01 48.3996L104.245 54.0896C106.301 53.6801 108.281 52.9465 110.49 52.5459C110.261 50.5795 110.67 48.6331 110.594 46.6662ZM103.649 54.2085L103.415 48.5562L97.3023 50.1656C97.3856 51.6678 97.668 53.7798 97.8573 55.5824C99.741 55.1655 101.659 54.6086 103.649 54.2085ZM97.2698 55.7126C97.081 53.9218 96.7976 51.8178 96.7124 50.321L91.2712 51.7536C91.4048 53.2075 91.6389 55.2361 91.8557 56.946C93.6014 56.5182 95.46 56.1172 97.2698 55.7126ZM91.2712 57.0895C91.0548 55.386 90.8198 53.3604 90.6852 51.908L86.0371 53.1315C86.0026 54.6229 86.0474 56.5691 86.0341 58.3194C87.77 57.8512 89.5053 57.5266 91.2712 57.0895ZM85.4353 58.4817C85.4481 56.7289 85.4023 54.7812 85.4353 53.2904L78.2465 55.1828C78.247 56.7042 78.2923 58.3436 78.3963 60.1359C80.7359 59.4329 83.1169 59.1127 85.4353 58.4817ZM77.8034 60.237C77.6994 58.4679 77.6526 56.8463 77.6491 55.3402L72.3701 56.7299C72.3184 58.1803 72.2735 59.7407 72.2405 61.4402C74.1494 61.233 76.0035 60.645 77.8034 60.237ZM71.6392 61.6321C71.6713 59.9208 71.7151 58.3495 71.7664 56.8892L65.827 58.4526C65.8526 59.8246 65.8989 61.2996 65.9724 62.9035C67.8285 62.3337 69.7826 62.1955 71.6392 61.6321ZM65.3834 63.0954C65.3075 61.4787 65.2592 59.9918 65.2326 58.6095L59.8885 60.0165L59.3001 64.5902C61.2942 63.9557 63.3918 63.7342 65.3834 63.0954ZM65.8171 57.8226L71.7895 56.2504C72.0069 50.4226 72.3356 46.3727 72.4879 42.0908C70.4726 42.666 68.4026 43.282 66.2543 43.9449C66.0349 48.0734 65.7348 52.0102 65.8171 57.8226ZM65.6456 44.1333C65.4258 48.2163 65.1335 52.1675 65.2217 57.9795L59.9038 59.3796L59.4326 46.1196C61.5845 45.4139 63.649 44.7534 65.6456 44.1333ZM66.2878 43.2947C68.4312 42.6348 70.4973 42.0215 72.5091 41.4487C72.6097 38.2214 72.6033 34.8051 72.3701 30.354L66.3504 31.717C66.5554 36.4627 66.4554 39.9739 66.2878 43.2947ZM65.758 31.8512C65.96 36.6201 65.8521 40.131 65.6801 43.4825C63.6653 44.1068 61.5815 44.7722 59.41 45.4837L58.9807 33.3859L65.758 31.8512ZM72.9611 30.2201C73.1962 34.6532 73.2075 38.0674 73.1124 41.2778C75.1035 40.716 77.0434 40.1937 78.9552 39.705C79.3066 36.5175 79.5447 33.128 79.3613 28.7709L72.9611 30.2201ZM79.9537 28.6367C80.1425 32.9841 79.9163 36.3814 79.5737 39.5477C81.6807 39.0153 83.7561 38.5231 85.8306 38.0631C85.8207 34.9576 85.6871 31.6462 85.3111 27.4236L79.9537 28.6367ZM85.8996 27.2904C86.2766 31.5059 86.4136 34.8261 86.4269 37.9317C87.7 37.6532 88.9735 37.3864 90.2554 37.1297C90.2569 36.9821 90.2589 36.8337 90.2608 36.6844C90.2978 33.7289 90.3392 30.4346 90.2786 26.2987L85.8996 27.2904ZM90.8745 26.1638C90.938 30.3953 90.8961 33.7404 90.8582 36.7298C90.8572 36.8236 90.8562 36.9172 90.8547 37.0104C92.8976 36.6068 94.9637 36.2276 97.0805 35.8654C97.3038 32.7181 97.5009 29.2778 97.4206 24.6815L90.8745 26.1638ZM98.016 24.5467C98.1007 29.1573 97.9085 32.6198 97.6872 35.7623C99.4738 35.4608 101.298 35.1706 103.178 34.8875L102.98 23.4227L98.016 24.5467ZM103.189 35.5053C101.29 35.7917 99.4462 36.0854 97.6424 36.3909C97.6192 36.7107 97.5956 37.0277 97.5729 37.3428C97.5162 38.1159 97.46 38.8775 97.4093 39.6411C97.2096 42.6301 97.083 45.6586 97.2698 49.5415L103.404 47.9265L103.189 35.5053ZM96.6793 49.6969C96.4822 45.7252 96.6098 42.6394 96.8129 39.5993C96.8642 38.831 96.9203 38.0662 96.977 37.2913C96.9967 37.027 97.016 36.7616 97.0352 36.4944C94.9317 36.8555 92.8784 37.2336 90.8473 37.636C90.7917 42.198 90.7744 46.025 91.216 51.1355L96.6793 49.6969ZM90.63 51.2899C90.1815 46.1521 90.1933 42.2987 90.2475 37.7556C88.9691 38.0125 87.6985 38.2793 86.4284 38.5581C86.4244 42.9022 86.1903 46.911 86.0518 52.4951L90.63 51.2899ZM85.4501 52.6535C85.5861 47.0153 85.8222 43.0081 85.8306 38.69C83.7334 39.1565 81.6344 39.6561 79.5018 40.1972C78.9946 44.6508 78.2958 48.7356 78.2489 54.5494L85.4501 52.6535ZM77.6506 54.7072C77.6851 48.8652 78.3736 44.7535 78.8818 40.3554C76.9877 40.8415 75.0651 41.3609 73.0917 41.9192C72.9438 46.2426 72.6136 50.2865 72.3938 56.0915L77.6506 54.7072Z" fill="#6E7E92"/>
<path d="M43.4678 25.0123L53.67 23.064V66.314L50.5783 66.9005L43.4678 53.0448V25.0123Z" fill="#E0E4EC" stroke="#6E7E92" stroke-linecap="round" stroke-linejoin="round"/>
<path d="M46.9971 34.9452L51.4101 34.0752V41.3845L46.9971 42.2261V34.9452Z" fill="#E0E4EC" stroke="#6E7E92" stroke-linecap="round" stroke-linejoin="round"/>
<path d="M16.5195 47.1045L43.3246 53.0726L50.9251 66.8519L49.7467 67.0537L24.6461 60.6295L16.5195 47.1045Z" fill="#E0E4EC" stroke="#6E7E92" stroke-linecap="round" stroke-linejoin="round"/>
<path d="M121.833 9.97363L113.196 12.0191V52.0148L114.463 51.7257L121.833 36.4381V9.97363Z" fill="#E0E4EC" stroke="#6E7E92" stroke-linecap="round" stroke-linejoin="round"/>
</svg>
