<svg width="158" height="66" viewBox="0 0 158 66" fill="none" xmlns="http://www.w3.org/2000/svg">
<path d="M14.5805 52.3484L13.1325 52.2164C13.0828 51.0832 12.914 50.0127 12.9155 49.1811C12.9173 48.2423 13.1362 47.608 13.9882 47.5314L24.256 45.4199V50.3029L14.5805 52.3484Z" fill="#C9CFDB"/>
<path d="M14.5805 52.3484L13.1325 52.2164C13.0828 51.0832 12.914 50.0127 12.9155 49.1811M14.5805 52.3484L24.256 50.3029V45.4199L13.9882 47.5314C13.1362 47.608 12.9173 48.2423 12.9155 49.1811M14.5805 52.3484C14.5382 51.2253 14.4013 50.1832 14.4175 49.379M12.9155 49.1811L14.4175 49.379M14.4175 49.379C14.4354 48.4886 14.6409 47.8897 15.3704 47.7954" stroke="#6E7E92" stroke-width="0.6" stroke-linecap="round" stroke-linejoin="round"/>
<path d="M24.2559 51.1606V45.4199L42.6852 46.1458L40.0524 52.3484L24.2559 51.1606Z" fill="#C9CFDB" stroke="#6E7E92" stroke-width="0.6" stroke-linecap="round" stroke-linejoin="round"/>
<path d="M18.2008 57.2315C20.1274 57.2315 21.6892 54.8681 21.6892 51.9527C21.6892 49.0373 20.1274 46.6738 18.2008 46.6738C16.2742 46.6738 14.7124 49.0373 14.7124 51.9527C14.7124 54.8681 16.2742 57.2315 18.2008 57.2315Z" fill="#C9CFDB" stroke="#6E7E92" stroke-width="0.6" stroke-linecap="round" stroke-linejoin="round"/>
<path d="M22.4792 51.6885C21.8868 54.5919 20.8084 57.1654 18.9908 57.1654C16.2922 57.1654 15.7656 54.6039 15.7656 51.6885C15.7656 48.773 17.3707 46.4097 19.1882 46.4097C21.0058 46.4097 22.4792 48.773 22.4792 51.6885Z" fill="#C9CFDB" stroke="#6E7E92" stroke-width="0.6" stroke-linecap="round" stroke-linejoin="round"/>
<path d="M18.0034 51.8865C18.0034 52.7975 18.5043 53.5361 19.1223 53.5361L31.957 54.7898L32.5495 51.5565L19.1223 50.2368C18.5043 50.2368 18.0034 50.9754 18.0034 51.8865Z" fill="#C9CFDB" stroke="#6E7E92" stroke-width="0.6" stroke-linecap="round" stroke-linejoin="round"/>
<path d="M36.0378 53.5362C36.0378 56.4516 34.3374 58.881 32.4836 58.881C30.6297 58.881 29.3242 56.4516 29.3242 53.5362C29.3242 50.6208 30.8271 48.2573 32.681 48.2573C34.5349 48.2573 36.0378 50.6208 36.0378 53.5362Z" fill="#C9CFDB" stroke="#6E7E92" stroke-width="0.6" stroke-linecap="round" stroke-linejoin="round"/>
<path d="M50.1029 52.6976C49.7413 55.4992 47.8198 57.6235 46.0534 57.3944C44.2869 57.1652 43.3443 54.6694 43.7059 51.8679C44.0675 49.0663 45.7927 46.981 47.5591 47.2101C49.3255 47.4393 50.4644 49.8961 50.1029 52.6976Z" fill="#C9CFDB" stroke="#6E7E92" stroke-width="0.6" stroke-linecap="round" stroke-linejoin="round"/>
<path d="M36.5641 53.5362C36.5641 56.4516 34.8638 58.881 33.0098 58.881C31.156 58.881 29.8506 56.4516 29.8506 53.5362C29.8506 50.6208 31.3535 48.2573 33.2073 48.2573C35.0612 48.2573 36.5641 50.6208 36.5641 53.5362Z" fill="#C9CFDB" stroke="#6E7E92" stroke-width="0.6" stroke-linecap="round" stroke-linejoin="round"/>
<path d="M50.6248 52.7655C50.2633 55.5671 48.3418 57.6914 46.5753 57.4622C44.8089 57.2331 43.8664 54.7373 44.2279 51.9357C44.5894 49.1342 46.3146 47.0488 48.0811 47.2779C49.8476 47.5071 50.9864 49.964 50.6248 52.7655Z" fill="#C9CFDB" stroke="#6E7E92" stroke-width="0.6" stroke-linecap="round" stroke-linejoin="round"/>
<path d="M36.63 53.7033C36.63 56.4195 35.0503 58.683 34.3263 58.683C32.4725 58.683 31.167 56.4195 31.167 53.7033C31.167 50.9871 32.6699 48.7852 34.5237 48.7852C36.1034 48.7852 36.63 50.9871 36.63 53.7033Z" fill="#C9CFDB" stroke="#6E7E92" stroke-width="0.6" stroke-linecap="round" stroke-linejoin="round"/>
<path d="M50.608 52.8987C50.2742 55.4848 48.5238 57.4488 47.8491 57.3612C46.1212 57.1371 45.1828 54.8244 45.5165 52.2383C45.8503 49.6523 47.5215 47.7376 49.2493 47.9617C50.7215 48.1527 50.9417 50.3128 50.608 52.8987Z" fill="#C9CFDB" stroke="#6E7E92" stroke-width="0.6" stroke-linecap="round" stroke-linejoin="round"/>
<path d="M34.8066 54.7899L33.3585 54.6579C33.3088 53.5247 33.14 52.4542 33.1416 51.6226C33.1433 50.6838 33.3622 50.0496 34.2142 49.9729L41.0399 48.5872V47.3335H42.6195V48.7852L35.5964 50.2369C34.8669 50.3313 34.6614 50.9301 34.6435 51.8206C34.6273 52.6248 34.7642 53.6669 34.8066 54.7899Z" fill="#C9CFDB"/>
<path d="M34.6435 51.8206C34.6273 52.6248 34.7642 53.6669 34.8066 54.7899L33.3585 54.6579C33.3088 53.5247 33.14 52.4542 33.1416 51.6226M34.6435 51.8206C34.6614 50.9301 34.8669 50.3313 35.5964 50.2369L42.6195 48.7852V47.3335H41.0399V48.5872L34.2142 49.9729C33.3622 50.0496 33.1433 50.6838 33.1416 51.6226M34.6435 51.8206L33.1416 51.6226" stroke="#6E7E92" stroke-width="0.6" stroke-linecap="round" stroke-linejoin="round"/>
<path d="M34.6439 51.8203C34.6278 52.6246 34.7647 53.6666 34.807 54.7897H35.5968V51.8863L38.1443 51.5564L40.6453 56.9013L46.5033 56.1754L49.136 50.2367L51.6371 49.9728L51.703 52.9421L52.0979 52.8101C52.3071 50.9352 53.2826 48.3891 51.8346 48.3891L44.7919 48.5211V47.0034L42.6199 47.3333V48.785L35.5968 50.2367C34.8674 50.3311 34.6618 50.9299 34.6439 51.8203Z" fill="#C9CFDB" stroke="#6E7E92" stroke-width="0.6" stroke-linecap="round" stroke-linejoin="round"/>
<path d="M51.6375 49.9731L51.7033 52.9425V54.0593L49.2943 54.3056L47.5736 53.7621L46.5036 56.1757L40.6457 56.9017L39.0107 56.6556L38.1446 54.6637L35.5972 54.7901V51.8867L38.1446 51.5568L40.6457 56.9017L46.5036 56.1757L47.5736 53.7621L49.1364 50.2371L51.6375 49.9731Z" fill="#C9CFDB"/>
<path d="M40.6457 56.9017L46.5036 56.1757L47.5736 53.7621M40.6457 56.9017L38.1446 51.5568L35.5972 51.8867V54.7901L38.1446 54.6637L39.0107 56.6556L40.6457 56.9017ZM47.5736 53.7621L49.1364 50.2371L51.6375 49.9731L51.7033 52.9425V54.0593L49.2943 54.3056L47.5736 53.7621Z" stroke="#6E7E92" stroke-width="0.6" stroke-linecap="round" stroke-linejoin="round"/>
<path d="M35.7744 53.9981C35.7744 54.8363 36.2164 55.5158 36.7617 55.5158H37.4199C37.9652 55.5158 38.4072 54.8363 38.4072 53.9981C38.4072 53.1599 37.9652 52.4805 37.4199 52.4805H36.7617C36.2164 52.4805 35.7744 53.1599 35.7744 53.9981Z" fill="#C9CFDB" stroke="#6E7E92" stroke-width="0.6" stroke-linecap="round" stroke-linejoin="round"/>
<path d="M49.4648 52.2823C49.4648 53.1204 49.8848 53.8 50.4027 53.8H51.0281C51.546 53.8 51.9659 53.1204 51.9659 52.2823C51.9659 51.4441 51.546 50.7646 51.0281 50.7646H50.4027C49.8848 50.7646 49.4648 51.4441 49.4648 52.2823Z" fill="#C9CFDB" stroke="#6E7E92" stroke-width="0.6" stroke-linecap="round" stroke-linejoin="round"/>
<path d="M37.4199 55.5158C37.9652 55.5158 38.4072 54.8363 38.4072 53.9981C38.4072 53.16 37.9652 52.4805 37.4199 52.4805C36.8746 52.4805 36.4326 53.16 36.4326 53.9981C36.4326 54.8363 36.8746 55.5158 37.4199 55.5158Z" fill="#C9CFDB" stroke="#6E7E92" stroke-width="0.6" stroke-linecap="round" stroke-linejoin="round"/>
<path d="M51.0445 53.8C51.5534 53.8 51.966 53.1205 51.966 52.2823C51.966 51.4441 51.5534 50.7646 51.0445 50.7646C50.5356 50.7646 50.123 51.4441 50.123 52.2823C50.123 53.1205 50.5356 53.8 51.0445 53.8Z" fill="#C9CFDB" stroke="#6E7E92" stroke-width="0.6" stroke-linecap="round" stroke-linejoin="round"/>
<path d="M105.696 40.7444L104.249 40.6124C104.198 39.4791 104.03 38.4087 104.031 37.5771C104.033 36.6383 104.252 36.004 105.104 35.9274L115.372 33.8159V38.6988L105.696 40.7444Z" fill="#C9CFDB"/>
<path d="M105.696 40.7444L104.249 40.6124C104.198 39.4791 104.03 38.4087 104.031 37.5771M105.696 40.7444L115.372 38.6988V33.8159L105.104 35.9274C104.252 36.004 104.033 36.6383 104.031 37.5771M105.696 40.7444C105.654 39.6213 105.517 38.5792 105.533 37.775M104.031 37.5771L105.533 37.775M105.533 37.775C105.551 36.8846 105.757 36.2857 106.486 36.1913" stroke="#6E7E92" stroke-width="0.6" stroke-linecap="round" stroke-linejoin="round"/>
<path d="M115.371 39.5567V33.8159L133.801 34.5418L131.168 40.7444L115.371 39.5567Z" fill="#C9CFDB" stroke="#6E7E92" stroke-width="0.6" stroke-linecap="round" stroke-linejoin="round"/>
<path d="M109.316 45.6275C111.243 45.6275 112.804 43.2641 112.804 40.3487C112.804 37.4332 111.243 35.0698 109.316 35.0698C107.389 35.0698 105.828 37.4332 105.828 40.3487C105.828 43.2641 107.389 45.6275 109.316 45.6275Z" fill="#C9CFDB" stroke="#6E7E92" stroke-width="0.6" stroke-linecap="round" stroke-linejoin="round"/>
<path d="M113.596 40.0845C113.003 42.9878 111.924 45.5613 110.106 45.5613C107.408 45.5613 106.881 42.9999 106.881 40.0845C106.881 37.169 108.487 34.8057 110.304 34.8057C112.122 34.8057 113.596 37.169 113.596 40.0845Z" fill="#C9CFDB" stroke="#6E7E92" stroke-width="0.6" stroke-linecap="round" stroke-linejoin="round"/>
<path d="M109.119 40.2824C109.119 41.1935 109.62 41.9321 110.238 41.9321L123.073 43.1858L123.665 39.9525L110.238 38.6328C109.62 38.6328 109.119 39.3714 109.119 40.2824Z" fill="#C9CFDB" stroke="#6E7E92" stroke-width="0.6" stroke-linecap="round" stroke-linejoin="round"/>
<path d="M127.153 41.9322C127.153 44.8476 125.453 47.277 123.599 47.277C121.745 47.277 120.439 44.8476 120.439 41.9322C120.439 39.0167 121.942 36.6533 123.796 36.6533C125.65 36.6533 127.153 39.0167 127.153 41.9322Z" fill="#C9CFDB" stroke="#6E7E92" stroke-width="0.6" stroke-linecap="round" stroke-linejoin="round"/>
<path d="M141.218 41.0936C140.857 43.8952 138.936 46.0195 137.169 45.7904C135.403 45.5612 134.46 43.0654 134.822 40.2639C135.183 37.4623 136.909 35.377 138.675 35.6061C140.441 35.8353 141.58 38.2921 141.218 41.0936Z" fill="#C9CFDB" stroke="#6E7E92" stroke-width="0.6" stroke-linecap="round" stroke-linejoin="round"/>
<path d="M127.68 41.9322C127.68 44.8476 125.98 47.277 124.125 47.277C122.271 47.277 120.966 44.8476 120.966 41.9322C120.966 39.0167 122.469 36.6533 124.323 36.6533C126.177 36.6533 127.68 39.0167 127.68 41.9322Z" fill="#C9CFDB" stroke="#6E7E92" stroke-width="0.6" stroke-linecap="round" stroke-linejoin="round"/>
<path d="M141.741 41.1615C141.379 43.9631 139.457 46.0873 137.691 45.8582C135.924 45.6291 134.982 43.1333 135.344 40.3317C135.705 37.5302 137.43 35.4448 139.196 35.6739C140.963 35.9031 142.102 38.36 141.741 41.1615Z" fill="#C9CFDB" stroke="#6E7E92" stroke-width="0.6" stroke-linecap="round" stroke-linejoin="round"/>
<path d="M127.745 42.0993C127.745 44.8155 126.166 47.079 125.442 47.079C123.588 47.079 122.283 44.8155 122.283 42.0993C122.283 39.3831 123.785 37.1812 125.639 37.1812C127.219 37.1812 127.745 39.3831 127.745 42.0993Z" fill="#C9CFDB" stroke="#6E7E92" stroke-width="0.6" stroke-linecap="round" stroke-linejoin="round"/>
<path d="M141.724 41.2947C141.39 43.8808 139.639 45.8448 138.964 45.7572C137.237 45.5331 136.298 43.2203 136.632 40.6343C136.966 38.0483 138.637 36.1336 140.365 36.3577C141.837 36.5487 142.058 38.7088 141.724 41.2947Z" fill="#C9CFDB" stroke="#6E7E92" stroke-width="0.6" stroke-linecap="round" stroke-linejoin="round"/>
<path d="M125.923 43.1859L124.475 43.0539C124.425 41.9207 124.256 40.8502 124.257 40.0186C124.26 39.0798 124.478 38.4456 125.33 38.3689L132.156 36.9832V35.7295H133.736V37.1812L126.712 38.6329C125.983 38.7272 125.777 39.3261 125.759 40.2166C125.744 41.0207 125.88 42.0629 125.923 43.1859Z" fill="#C9CFDB"/>
<path d="M125.759 40.2166C125.744 41.0207 125.88 42.0629 125.923 43.1859L124.475 43.0539C124.425 41.9207 124.256 40.8502 124.257 40.0186M125.759 40.2166C125.777 39.3261 125.983 38.7272 126.712 38.6329L133.736 37.1812V35.7295H132.156V36.9832L125.33 38.3689C124.478 38.4456 124.26 39.0798 124.257 40.0186M125.759 40.2166L124.257 40.0186" stroke="#6E7E92" stroke-width="0.6" stroke-linecap="round" stroke-linejoin="round"/>
<path d="M125.76 40.2164C125.743 41.0206 125.881 42.0627 125.923 43.1858H126.713V40.2824L129.26 39.9524L131.761 45.2973L137.619 44.5714L140.252 38.6328L142.753 38.3688L142.819 41.3382L143.214 41.2062C143.423 39.3313 144.398 36.7852 142.95 36.7852L135.908 36.9171V35.3994L133.735 35.7294V37.1811L126.713 38.6328C125.983 38.7271 125.778 39.3259 125.76 40.2164Z" fill="#C9CFDB" stroke="#6E7E92" stroke-width="0.6" stroke-linecap="round" stroke-linejoin="round"/>
<path d="M142.753 38.3691L142.819 41.3385V42.4553L140.41 42.7016L138.69 42.1581L137.619 44.5717L131.761 45.2976L130.126 45.0516L129.261 43.0597L126.713 43.1861V40.2827L129.261 39.9528L131.761 45.2976L137.619 44.5717L138.69 42.1581L140.252 38.6331L142.753 38.3691Z" fill="#C9CFDB"/>
<path d="M131.761 45.2976L137.619 44.5717L138.69 42.1581M131.761 45.2976L129.261 39.9528L126.713 40.2827V43.1861L129.261 43.0597L130.126 45.0516L131.761 45.2976ZM138.69 42.1581L140.252 38.6331L142.753 38.3691L142.819 41.3385V42.4553L140.41 42.7016L138.69 42.1581Z" stroke="#6E7E92" stroke-width="0.6" stroke-linecap="round" stroke-linejoin="round"/>
<path d="M126.891 42.3941C126.891 43.2323 127.333 43.9118 127.877 43.9118H128.536C129.081 43.9118 129.523 43.2323 129.523 42.3941C129.523 41.5559 129.081 40.8765 128.536 40.8765H127.877C127.333 40.8765 126.891 41.5559 126.891 42.3941Z" fill="#C9CFDB" stroke="#6E7E92" stroke-width="0.6" stroke-linecap="round" stroke-linejoin="round"/>
<path d="M140.581 40.6783C140.581 41.5165 141.001 42.196 141.519 42.196H142.144C142.662 42.196 143.082 41.5165 143.082 40.6783C143.082 39.8402 142.662 39.1606 142.144 39.1606H141.519C141.001 39.1606 140.581 39.8402 140.581 40.6783Z" fill="#C9CFDB" stroke="#6E7E92" stroke-width="0.6" stroke-linecap="round" stroke-linejoin="round"/>
<path d="M128.536 43.9118C129.081 43.9118 129.523 43.2323 129.523 42.3941C129.523 41.5559 129.081 40.8765 128.536 40.8765C127.99 40.8765 127.548 41.5559 127.548 42.3941C127.548 43.2323 127.99 43.9118 128.536 43.9118Z" fill="#C9CFDB" stroke="#6E7E92" stroke-width="0.6" stroke-linecap="round" stroke-linejoin="round"/>
<path d="M142.161 42.196C142.67 42.196 143.082 41.5165 143.082 40.6783C143.082 39.8401 142.67 39.1606 142.161 39.1606C141.652 39.1606 141.239 39.8401 141.239 40.6783C141.239 41.5165 141.652 42.196 142.161 42.196Z" fill="#C9CFDB" stroke="#6E7E92" stroke-width="0.6" stroke-linecap="round" stroke-linejoin="round"/>
<path d="M29.3921 46.0691L155.086 31.8105V34.8475L104.631 40.8674L45.5589 47.8742L29.3921 49.7918V46.0691Z" fill="#C9CFDB" stroke="#6E7E92" stroke-width="0.6" stroke-linecap="round" stroke-linejoin="round"/>
<path d="M29.3922 46.03L155.161 32.5832V8.81152L29.3921 20.3138L29.3922 46.03Z" fill="#E0E4EC" stroke="#6E7E92" stroke-width="0.6" stroke-linecap="round" stroke-linejoin="round"/>
<path d="M91.7114 39.7269L93.2042 39.2758V11.8369L91.7114 12.1839V39.7269Z" fill="#6E7E92" stroke="#6E7E92" stroke-width="0.6" stroke-linecap="round" stroke-linejoin="round"/>
<path d="M136.183 34.7263L137.57 34.307V8.81152L136.183 9.13393V34.7263Z" fill="#6E7E92" stroke="#6E7E92" stroke-width="0.6" stroke-linecap="round" stroke-linejoin="round"/>
<path d="M48.2026 44.2197L49.8585 43.7538V15.4238L48.2026 15.782V44.2197Z" fill="#6E7E92" stroke="#6E7E92" stroke-width="0.6" stroke-linecap="round" stroke-linejoin="round"/>
<path d="M3.12207 18.242L128.685 7.19141L155.104 8.77548L29.3923 20.137L3.12207 18.242Z" fill="#9EA9B9" stroke="#6E7E92" stroke-width="0.6" stroke-linecap="round" stroke-linejoin="round"/>
<path d="M155.161 8.77209L128.743 7.18799V11.1587L155.161 8.77209Z" fill="#C9CFDB" stroke="#6E7E92" stroke-width="0.6" stroke-linecap="round" stroke-linejoin="round"/>
<path d="M29.3924 46.0299L3.16358 43.5728L3.16357 18.4341L29.3924 20.3138V46.0299Z" fill="#E0E4EC" stroke="#6E7E92" stroke-width="0.6" stroke-linecap="round" stroke-linejoin="round"/>
<path d="M29.3924 46.0692L3.15234 43.5757V46.8621L29.3924 49.7919V46.0692Z" fill="#C9CFDB" stroke="#6E7E92" stroke-width="0.6" stroke-linecap="round" stroke-linejoin="round"/>
<path d="M4.76124 44.8525L6.8195 46.7097L5.32726 46.5549L3.68066 44.8525H4.76124Z" fill="#C9CFDB" stroke="#6E7E92" stroke-width="0.6" stroke-linecap="round" stroke-linejoin="round"/>
<path d="M9.44337 45.4199L11.5016 47.2771L10.0094 47.1223L8.36279 45.4199H9.44337Z" fill="#C9CFDB" stroke="#6E7E92" stroke-width="0.6" stroke-linecap="round" stroke-linejoin="round"/>
<path d="M19.0324 46.3999L21.1244 48.3602L19.6076 48.1968L17.9341 46.3999H19.0324Z" fill="#C9CFDB" stroke="#6E7E92" stroke-width="0.6" stroke-linecap="round" stroke-linejoin="round"/>
<path d="M23.6638 46.916L25.7558 48.8763L24.2391 48.7129L22.5654 46.916H23.6638Z" fill="#C9CFDB" stroke="#6E7E92" stroke-width="0.6" stroke-linecap="round" stroke-linejoin="round"/>
<path d="M4.76172 44.8521L6.81997 46.7093L7.07725 46.6061L7.02579 44.5942L4.76172 44.8521Z" fill="#C9CFDB" stroke="#6E7E92" stroke-width="0.6" stroke-linecap="round" stroke-linejoin="round"/>
<path d="M9.44385 45.4201L11.502 47.2772L11.7594 47.174L11.7079 45.1621L9.44385 45.4201Z" fill="#C9CFDB" stroke="#6E7E92" stroke-width="0.6" stroke-linecap="round" stroke-linejoin="round"/>
<path d="M19.0659 46.4581L21.17 48.3605L21.433 48.2548L21.3804 46.1938L19.0659 46.4581Z" fill="#C9CFDB" stroke="#6E7E92" stroke-width="0.6" stroke-linecap="round" stroke-linejoin="round"/>
<path d="M23.6973 46.9737L25.8012 48.8761L26.0642 48.7704L26.0116 46.7095L23.6973 46.9737Z" fill="#C9CFDB" stroke="#6E7E92" stroke-width="0.6" stroke-linecap="round" stroke-linejoin="round"/>
<path d="M4.76173 44.8523H3.68115L5.27629 44.4912L7.02582 44.5943L4.76173 44.8523Z" fill="#C9CFDB" stroke="#6E7E92" stroke-width="0.6" stroke-linecap="round" stroke-linejoin="round"/>
<path d="M9.44337 45.4198H8.36279L9.95793 45.0586L11.7075 45.1618L9.44337 45.4198Z" fill="#C9CFDB" stroke="#6E7E92" stroke-width="0.6" stroke-linecap="round" stroke-linejoin="round"/>
<path d="M19.0313 46.3999H17.9341L19.5537 46.0903L21.3302 46.1788L19.0313 46.3999Z" fill="#C9CFDB" stroke="#6E7E92" stroke-width="0.6" stroke-linecap="round" stroke-linejoin="round"/>
<path d="M23.6627 46.916H22.5654L24.1852 46.6064L25.9616 46.6949L23.6627 46.916Z" fill="#C9CFDB" stroke="#6E7E92" stroke-width="0.6" stroke-linecap="round" stroke-linejoin="round"/>
</svg>
