<svg width="192" height="80" viewBox="0 0 192 80" fill="none" xmlns="http://www.w3.org/2000/svg">
<path d="M35.9738 66.3483L34.3404 66.1998C34.2843 64.9248 34.0939 63.7203 34.0957 62.7846C34.0977 61.7284 34.3445 61.0147 35.3056 60.9285L46.8876 58.5527V64.0468L35.9738 66.3483Z" fill="#C9CFDB"/>
<path d="M35.9738 66.3483L34.3404 66.1998C34.2843 64.9248 34.0939 63.7203 34.0957 62.7846M35.9738 66.3483L46.8876 64.0468V58.5527L35.3056 60.9285C34.3445 61.0147 34.0977 61.7284 34.0957 62.7846M35.9738 66.3483C35.9261 65.0847 35.7716 63.9122 35.7898 63.0074M34.0957 62.7846L35.7898 63.0074M35.7898 63.0074C35.81 62.0055 36.0419 61.3317 36.8647 61.2255" stroke="#6E7E92" stroke-width="0.6" stroke-linecap="round" stroke-linejoin="round"/>
<path d="M46.8877 65.0119V58.5527L67.6759 59.3694L64.7061 66.3483L46.8877 65.0119Z" fill="#6E7E92" stroke="#6E7E92" stroke-width="0.6" stroke-linecap="round" stroke-linejoin="round"/>
<path d="M40.0575 71.8424C42.2307 71.8424 43.9924 69.1832 43.9924 65.9029C43.9924 62.6226 42.2307 59.9634 40.0575 59.9634C37.8843 59.9634 36.1226 62.6226 36.1226 65.9029C36.1226 69.1832 37.8843 71.8424 40.0575 71.8424Z" fill="#C9CFDB" stroke="#6E7E92" stroke-width="0.6" stroke-linecap="round" stroke-linejoin="round"/>
<path d="M44.8825 65.606C44.2143 68.8727 42.9977 71.7682 40.9476 71.7682C37.9036 71.7682 37.3096 68.8863 37.3096 65.606C37.3096 62.3257 39.1201 59.6665 41.1703 59.6665C43.2205 59.6665 44.8825 62.3257 44.8825 65.606Z" fill="#C9CFDB" stroke="#6E7E92" stroke-width="0.6" stroke-linecap="round" stroke-linejoin="round"/>
<path d="M39.8345 65.8288C39.8345 66.8539 40.3996 67.6849 41.0966 67.6849L55.5741 69.0955L56.2423 65.4576L41.0966 63.9727C40.3996 63.9727 39.8345 64.8037 39.8345 65.8288Z" fill="#C9CFDB" stroke="#6E7E92" stroke-width="0.6" stroke-linecap="round" stroke-linejoin="round"/>
<path d="M60.1769 67.6846C60.1769 70.9649 58.2589 73.6983 56.1677 73.6983C54.0765 73.6983 52.604 70.9649 52.604 67.6846C52.604 64.4043 54.2992 61.7451 56.3904 61.7451C58.4816 61.7451 60.1769 64.4043 60.1769 67.6846Z" fill="#C9CFDB" stroke="#6E7E92" stroke-width="0.6" stroke-linecap="round" stroke-linejoin="round"/>
<path d="M76.0423 66.7415C75.6344 69.8937 73.467 72.2839 71.4745 72.026C69.4819 71.7682 68.4187 68.96 68.8266 65.8079C69.2344 62.6557 71.1803 60.3094 73.1729 60.5672C75.1655 60.8251 76.4501 63.5894 76.0423 66.7415Z" fill="#C9CFDB" stroke="#6E7E92" stroke-width="0.6" stroke-linecap="round" stroke-linejoin="round"/>
<path d="M60.7716 67.6846C60.7716 70.9649 58.8536 73.6983 56.7624 73.6983C54.6712 73.6983 53.1987 70.9649 53.1987 67.6846C53.1987 64.4043 54.894 61.7451 56.9852 61.7451C59.0763 61.7451 60.7716 64.4043 60.7716 67.6846Z" fill="#C9CFDB" stroke="#6E7E92" stroke-width="0.6" stroke-linecap="round" stroke-linejoin="round"/>
<path d="M76.6311 66.8177C76.2232 69.9698 74.0559 72.36 72.0633 72.1022C70.0707 71.8444 69.0075 69.0362 69.4154 65.8841C69.8232 62.7319 71.7691 60.3856 73.7617 60.6434C75.7543 60.9013 77.0389 63.6656 76.6311 66.8177Z" fill="#C9CFDB" stroke="#6E7E92" stroke-width="0.6" stroke-linecap="round" stroke-linejoin="round"/>
<path d="M60.8454 67.8726C60.8454 70.9288 59.0635 73.4755 58.2468 73.4755C56.1557 73.4755 54.6831 70.9288 54.6831 67.8726C54.6831 64.8164 56.3784 62.3389 58.4696 62.3389C60.2514 62.3389 60.8454 64.8164 60.8454 67.8726Z" fill="#C9CFDB" stroke="#6E7E92" stroke-width="0.6" stroke-linecap="round" stroke-linejoin="round"/>
<path d="M76.6119 66.9675C76.2355 69.8771 74.2611 72.0869 73.4999 71.9884C71.551 71.7362 70.4923 69.134 70.8688 66.2244C71.2453 63.3147 73.1304 61.1604 75.0794 61.4126C76.7401 61.6274 76.9884 64.0578 76.6119 66.9675Z" fill="#C9CFDB" stroke="#6E7E92" stroke-width="0.6" stroke-linecap="round" stroke-linejoin="round"/>
<path d="M58.7883 69.0951L57.155 68.9467C57.0988 67.6716 56.9084 66.4671 56.9102 65.5314C56.9122 64.4752 57.1591 63.7615 58.1201 63.6754L65.8194 62.1162V60.7056H67.6013V62.339L59.6793 63.9723C58.8564 64.0785 58.6246 64.7523 58.6044 65.7542C58.5862 66.659 58.7406 67.8315 58.7883 69.0951Z" fill="#C9CFDB"/>
<path d="M58.6044 65.7542C58.5862 66.659 58.7406 67.8315 58.7883 69.0951L57.155 68.9467C57.0988 67.6716 56.9084 66.4671 56.9102 65.5314M58.6044 65.7542C58.6246 64.7523 58.8564 64.0785 59.6793 63.9723L67.6013 62.339V60.7056H65.8194V62.1162L58.1201 63.6754C57.1591 63.7615 56.9122 64.4752 56.9102 65.5314M58.6044 65.7542L56.9102 65.5314" stroke="#6E7E92" stroke-width="0.6" stroke-linecap="round" stroke-linejoin="round"/>
<path d="M58.604 65.7543C58.5858 66.6591 58.7402 67.8316 58.788 69.0952H59.6789V65.8285L62.5524 65.4573L65.3736 71.471L71.9813 70.6543L74.9511 63.9724L77.7723 63.6754L77.8466 67.0164L78.292 66.8679C78.528 64.7584 79.6284 61.8936 77.9951 61.8936L70.051 62.0421V60.3345L67.6009 60.7057V62.3391L59.6789 63.9724C58.8561 64.0786 58.6242 64.7524 58.604 65.7543Z" fill="#C9CFDB" stroke="#6E7E92" stroke-width="0.6" stroke-linecap="round" stroke-linejoin="round"/>
<path d="M77.7726 63.6753L77.8468 67.0163V68.2728L75.1295 68.55L73.1885 67.9385L71.9816 70.6542L65.3739 71.4709L63.5296 71.1941L62.5526 68.9529L59.6792 69.0951V65.8284L62.5526 65.4572L65.3739 71.4709L71.9816 70.6542L73.1885 67.9385L74.9513 63.9723L77.7726 63.6753Z" fill="#C9CFDB"/>
<path d="M65.3739 71.4709L71.9816 70.6542L73.1885 67.9385M65.3739 71.4709L62.5526 65.4572L59.6792 65.8284V69.0951L62.5526 68.9529L63.5296 71.1941L65.3739 71.4709ZM73.1885 67.9385L74.9513 63.9723L77.7726 63.6753L77.8468 67.0163V68.2728L75.1295 68.55L73.1885 67.9385Z" stroke="#6E7E92" stroke-width="0.6" stroke-linecap="round" stroke-linejoin="round"/>
<path d="M59.8799 68.2042C59.8799 69.1473 60.3785 69.9118 60.9935 69.9118H61.736C62.351 69.9118 62.8496 69.1473 62.8496 68.2042C62.8496 67.2611 62.351 66.4966 61.736 66.4966H60.9935C60.3785 66.4966 59.8799 67.2611 59.8799 68.2042Z" fill="#C9CFDB" stroke="#6E7E92" stroke-width="0.6" stroke-linecap="round" stroke-linejoin="round"/>
<path d="M75.3232 66.274C75.3232 67.2171 75.7969 67.9816 76.3812 67.9816H77.0865C77.6708 67.9816 78.1445 67.2171 78.1445 66.274C78.1445 65.3309 77.6708 64.5664 77.0865 64.5664H76.3812C75.7969 64.5664 75.3232 65.3309 75.3232 66.274Z" fill="#C9CFDB" stroke="#6E7E92" stroke-width="0.6" stroke-linecap="round" stroke-linejoin="round"/>
<path d="M61.7367 69.9118C62.3518 69.9118 62.8503 69.1473 62.8503 68.2042C62.8503 67.2611 62.3518 66.4966 61.7367 66.4966C61.1216 66.4966 60.623 67.2611 60.623 68.2042C60.623 69.1473 61.1216 69.9118 61.7367 69.9118Z" fill="#C9CFDB" stroke="#6E7E92" stroke-width="0.6" stroke-linecap="round" stroke-linejoin="round"/>
<path d="M77.1053 67.9816C77.6794 67.9816 78.1447 67.2171 78.1447 66.274C78.1447 65.3309 77.6794 64.5664 77.1053 64.5664C76.5313 64.5664 76.0659 65.3309 76.0659 66.274C76.0659 67.2171 76.5313 67.9816 77.1053 67.9816Z" fill="#C9CFDB" stroke="#6E7E92" stroke-width="0.6" stroke-linecap="round" stroke-linejoin="round"/>
<path d="M116.98 57.3178L115.359 57.1758C115.304 55.9568 115.115 54.8054 115.116 53.9109C115.118 52.9012 115.363 52.2188 116.317 52.1365L127.807 49.8652V55.1175L116.98 57.3178Z" fill="#C9CFDB"/>
<path d="M116.98 57.3178L115.359 57.1758C115.304 55.9568 115.115 54.8054 115.116 53.9109M116.98 57.3178L127.807 55.1175V49.8652L116.317 52.1365C115.363 52.2188 115.118 52.9012 115.116 53.9109M116.98 57.3178C116.932 56.1097 116.779 54.9888 116.797 54.1238M115.116 53.9109L116.797 54.1238M116.797 54.1238C116.817 53.166 117.047 52.5219 117.864 52.4204" stroke="#6E7E92" stroke-width="0.6" stroke-linecap="round" stroke-linejoin="round"/>
<path d="M127.808 56.0402V49.8652L148.432 50.646L145.486 57.3178L127.808 56.0402Z" fill="#6E7E92" stroke="#6E7E92" stroke-width="0.6" stroke-linecap="round" stroke-linejoin="round"/>
<path d="M121.032 62.5701C123.188 62.5701 124.936 60.0279 124.936 56.892C124.936 53.756 123.188 51.2139 121.032 51.2139C118.876 51.2139 117.128 53.756 117.128 56.892C117.128 60.0279 118.876 62.5701 121.032 62.5701Z" fill="#C9CFDB" stroke="#6E7E92" stroke-width="0.6" stroke-linecap="round" stroke-linejoin="round"/>
<path d="M125.819 56.6078C125.156 59.7308 123.949 62.4989 121.915 62.4989C118.895 62.4989 118.306 59.7438 118.306 56.6078C118.306 53.4719 120.102 50.9297 122.136 50.9297C124.17 50.9297 125.819 53.4719 125.819 56.6078Z" fill="#C9CFDB" stroke="#6E7E92" stroke-width="0.6" stroke-linecap="round" stroke-linejoin="round"/>
<path d="M120.811 56.8208C120.811 57.8008 121.372 58.5952 122.063 58.5952L136.426 59.9438L137.089 56.4659L122.063 55.0464C121.372 55.0464 120.811 55.8408 120.811 56.8208Z" fill="#C9CFDB" stroke="#6E7E92" stroke-width="0.6" stroke-linecap="round" stroke-linejoin="round"/>
<path d="M140.993 58.5951C140.993 61.7311 139.09 64.3442 137.015 64.3442C134.941 64.3442 133.48 61.7311 133.48 58.5951C133.48 55.4592 135.162 52.917 137.236 52.917C139.311 52.917 140.993 55.4592 140.993 58.5951Z" fill="#C9CFDB" stroke="#6E7E92" stroke-width="0.6" stroke-linecap="round" stroke-linejoin="round"/>
<path d="M156.732 57.6936C156.327 60.707 154.177 62.992 152.2 62.7455C150.223 62.4991 149.168 59.8144 149.573 56.801C149.978 53.7876 151.908 51.5445 153.885 51.791C155.862 52.0375 157.136 54.6801 156.732 57.6936Z" fill="#C9CFDB" stroke="#6E7E92" stroke-width="0.6" stroke-linecap="round" stroke-linejoin="round"/>
<path d="M141.582 58.5951C141.582 61.7311 139.679 64.3442 137.604 64.3442C135.529 64.3442 134.069 61.7311 134.069 58.5951C134.069 55.4592 135.75 52.917 137.825 52.917C139.9 52.917 141.582 55.4592 141.582 58.5951Z" fill="#C9CFDB" stroke="#6E7E92" stroke-width="0.6" stroke-linecap="round" stroke-linejoin="round"/>
<path d="M157.317 57.7662C156.912 60.7796 154.762 63.0647 152.785 62.8182C150.808 62.5717 149.753 59.8871 150.158 56.8737C150.563 53.8602 152.493 51.6172 154.47 51.8637C156.447 52.1101 157.721 54.7528 157.317 57.7662Z" fill="#C9CFDB" stroke="#6E7E92" stroke-width="0.6" stroke-linecap="round" stroke-linejoin="round"/>
<path d="M141.656 58.7751C141.656 61.6967 139.888 64.1314 139.078 64.1314C137.003 64.1314 135.542 61.6967 135.542 58.7751C135.542 55.8534 137.224 53.4849 139.299 53.4849C141.066 53.4849 141.656 55.8534 141.656 58.7751Z" fill="#C9CFDB" stroke="#6E7E92" stroke-width="0.6" stroke-linecap="round" stroke-linejoin="round"/>
<path d="M157.297 57.9097C156.923 60.6913 154.965 62.8038 154.209 62.7097C152.276 62.4686 151.226 59.9809 151.599 57.1993C151.973 54.4177 153.843 52.3582 155.776 52.5992C157.424 52.8046 157.67 55.1281 157.297 57.9097Z" fill="#C9CFDB" stroke="#6E7E92" stroke-width="0.6" stroke-linecap="round" stroke-linejoin="round"/>
<path d="M139.614 59.9441L137.994 59.8022C137.938 58.5832 137.749 57.4317 137.751 56.5372C137.753 55.5275 137.998 54.8452 138.951 54.7628L146.59 53.2723V51.9238H148.358V53.4853L140.498 55.0467C139.682 55.1482 139.452 55.7924 139.432 56.7502C139.414 57.6152 139.567 58.7361 139.614 59.9441Z" fill="#C9CFDB"/>
<path d="M139.432 56.7502C139.414 57.6152 139.567 58.7361 139.614 59.9441L137.994 59.8022C137.938 58.5832 137.749 57.4317 137.751 56.5372M139.432 56.7502C139.452 55.7924 139.682 55.1482 140.498 55.0467L148.358 53.4853V51.9238H146.59V53.2723L138.951 54.7628C137.998 54.8452 137.753 55.5275 137.751 56.5372M139.432 56.7502L137.751 56.5372" stroke="#6E7E92" stroke-width="0.6" stroke-linecap="round" stroke-linejoin="round"/>
<path d="M139.433 56.7501C139.415 57.6151 139.568 58.736 139.615 59.944H140.499V56.8211L143.35 56.4662L146.149 62.2153L152.704 61.4345L155.651 55.0467L158.45 54.7628L158.523 57.9567L158.965 57.8148C159.199 55.7982 160.291 53.0593 158.671 53.0593L150.789 53.2013V51.5688L148.358 51.9237V53.4852L140.499 55.0467C139.683 55.1482 139.453 55.7923 139.433 56.7501Z" fill="#C9CFDB" stroke="#6E7E92" stroke-width="0.6" stroke-linecap="round" stroke-linejoin="round"/>
<path d="M158.449 54.7627L158.523 57.9566V59.1579L155.827 59.4229L153.901 58.8383L152.704 61.4345L146.148 62.2152L144.319 61.9506L143.349 59.808L140.499 59.9439V56.821L143.349 56.4661L146.148 62.2152L152.704 61.4345L153.901 58.8383L155.65 55.0466L158.449 54.7627Z" fill="#C9CFDB"/>
<path d="M146.148 62.2152L152.704 61.4345L153.901 58.8383M146.148 62.2152L143.349 56.4661L140.499 56.821V59.9439L143.349 59.808L144.319 61.9506L146.148 62.2152ZM153.901 58.8383L155.65 55.0466L158.449 54.7627L158.523 57.9566V59.1579L155.827 59.4229L153.901 58.8383Z" stroke="#6E7E92" stroke-width="0.6" stroke-linecap="round" stroke-linejoin="round"/>
<path d="M140.698 59.092C140.698 59.9936 141.193 60.7244 141.803 60.7244H142.539C143.15 60.7244 143.644 59.9936 143.644 59.092C143.644 58.1904 143.15 57.4595 142.539 57.4595H141.803C141.193 57.4595 140.698 58.1904 140.698 59.092Z" fill="#C9CFDB" stroke="#6E7E92" stroke-width="0.6" stroke-linecap="round" stroke-linejoin="round"/>
<path d="M156.019 57.2467C156.019 58.1483 156.489 58.8792 157.068 58.8792H157.768C158.348 58.8792 158.818 58.1483 158.818 57.2467C158.818 56.3451 158.348 55.6143 157.768 55.6143H157.068C156.489 55.6143 156.019 56.3451 156.019 57.2467Z" fill="#C9CFDB" stroke="#6E7E92" stroke-width="0.6" stroke-linecap="round" stroke-linejoin="round"/>
<path d="M142.54 60.7249C143.15 60.7249 143.645 59.994 143.645 59.0924C143.645 58.1908 143.15 57.46 142.54 57.46C141.93 57.46 141.435 58.1908 141.435 59.0924C141.435 59.994 141.93 60.7249 142.54 60.7249Z" fill="#C9CFDB" stroke="#6E7E92" stroke-width="0.6" stroke-linecap="round" stroke-linejoin="round"/>
<path d="M157.786 58.8792C158.356 58.8792 158.817 58.1483 158.817 57.2467C158.817 56.3451 158.356 55.6143 157.786 55.6143C157.217 55.6143 156.755 56.3451 156.755 57.2467C156.755 58.1483 157.217 58.8792 157.786 58.8792Z" fill="#C9CFDB" stroke="#6E7E92" stroke-width="0.6" stroke-linecap="round" stroke-linejoin="round"/>
<path d="M57.207 56.3996L168.275 44.0752V49.198L147.042 51.7103L133.529 56.8451L90.6166 61.9679L76.5103 60.0552L57.207 62.3391V56.3996Z" fill="#C9CFDB" stroke="#6E7E92" stroke-width="0.6" stroke-linecap="round" stroke-linejoin="round"/>
<path d="M168.275 44.0752L57.207 56.3996V57.5875L168.275 45.1146V44.0752Z" fill="#C9CFDB" stroke="#6E7E92" stroke-width="0.6" stroke-linecap="round" stroke-linejoin="round"/>
<path d="M57.207 56.3531L168.275 44.0287V8.18799L57.207 18.1966V56.3531Z" fill="#C9CFDB" stroke="#6E7E92" stroke-width="0.6" stroke-linecap="round" stroke-linejoin="round"/>
<path d="M57.207 22.7137L168.275 12.3556V8.18799L57.207 18.1966V22.7137Z" fill="#9EA9B9" stroke="#6E7E92" stroke-width="0.6" stroke-linecap="round" stroke-linejoin="round"/>
<path d="M59.9028 56.0118L63.8139 55.6385L81.0634 25.8435L78.0279 24.6182L59.9028 56.0118Z" fill="#9EA9B9" stroke="#6E7E92" stroke-width="0.6" stroke-linecap="round" stroke-linejoin="round"/>
<path d="M92.8315 52.4343L95.5371 52.1326L83.0221 24.7485L80.8677 26.1443L92.8315 52.4343Z" fill="#9EA9B9" stroke="#6E7E92" stroke-width="0.6" stroke-linecap="round" stroke-linejoin="round"/>
<path d="M77.4116 25.5444L83.2135 25.0034V20.3311L77.4116 20.8539V25.5444Z" fill="#C9CFDB" stroke="#6E7E92" stroke-width="0.6" stroke-linecap="round" stroke-linejoin="round"/>
<path d="M78.3213 53.9224L82.3048 53.4557V25.0688L78.3213 25.4278V53.9224Z" fill="#C9CFDB" stroke="#6E7E92" stroke-width="0.6" stroke-linecap="round" stroke-linejoin="round"/>
<path d="M100.49 50.2732C100.49 50.9823 101.107 51.5335 101.811 51.4535L126.754 48.6204C127.354 48.5522 127.808 48.0443 127.808 47.4401V22.8799C127.808 22.1817 127.208 21.6341 126.513 21.6968L101.571 23.9444C100.959 23.9996 100.49 24.5128 100.49 25.1275V50.2732Z" fill="#6E7E92" stroke="#6E7E92" stroke-width="0.6" stroke-linecap="round" stroke-linejoin="round"/>
<path d="M145.019 46.6371L148.438 46.2365V18.4644L145.019 18.7725V46.6371Z" fill="#C9CFDB" stroke="#6E7E92" stroke-width="0.6" stroke-linecap="round" stroke-linejoin="round"/>
<path d="M162.123 44.7477L164.379 44.5047L148.214 16.5049L146.588 17.8579L162.123 44.7477Z" fill="#9EA9B9" stroke="#6E7E92" stroke-width="0.6" stroke-linecap="round" stroke-linejoin="round"/>
<path d="M131.487 48.1391L133.854 47.8576L147.35 17.0482L145.327 16.4233L131.487 48.1391Z" fill="#9EA9B9" stroke="#6E7E92" stroke-width="0.6" stroke-linecap="round" stroke-linejoin="round"/>
<path d="M144.037 18.86L149.279 18.3711V14.1494L144.037 14.6218V18.86Z" fill="#C9CFDB" stroke="#6E7E92" stroke-width="0.6" stroke-linecap="round" stroke-linejoin="round"/>
<path d="M25.8408 15.9397L136.732 6.30127L168.276 8.1879L57.2076 18.1966L25.8408 15.9397Z" fill="#C9CFDB" stroke="#6E7E92" stroke-width="0.6" stroke-linecap="round" stroke-linejoin="round"/>
<path d="M57.2071 56.3531L25.8897 53.4268L25.8896 15.958L57.2071 18.1967V56.3531Z" fill="#C9CFDB" stroke="#6E7E92" stroke-width="0.6" stroke-linecap="round" stroke-linejoin="round"/>
<path d="M57.2073 56.3995L25.8765 53.4297V58.8495L57.2073 62.3389V56.3995Z" fill="#C9CFDB" stroke="#6E7E92" stroke-width="0.6" stroke-linecap="round" stroke-linejoin="round"/>
<path d="M25.2827 54.1724L28.2525 56.8451L26.0994 56.6224L23.7236 54.1724H25.2827Z" fill="#C9CFDB" stroke="#6E7E92" stroke-width="0.6" stroke-linecap="round" stroke-linejoin="round"/>
<path d="M32.0391 54.9888L35.0088 57.6616L32.8558 57.4389L30.48 54.9888H32.0391Z" fill="#C9CFDB" stroke="#6E7E92" stroke-width="0.6" stroke-linecap="round" stroke-linejoin="round"/>
<path d="M45.8737 56.3999L48.8922 59.2211L46.7038 58.986L44.2891 56.3999H45.8737Z" fill="#C9CFDB" stroke="#6E7E92" stroke-width="0.6" stroke-linecap="round" stroke-linejoin="round"/>
<path d="M52.5559 57.1421L55.5743 59.9633L53.3859 59.7282L50.9712 57.1421H52.5559Z" fill="#C9CFDB" stroke="#6E7E92" stroke-width="0.6" stroke-linecap="round" stroke-linejoin="round"/>
<path d="M25.2832 54.1726L28.253 56.8453L28.6242 56.6968L28.55 53.8013L25.2832 54.1726Z" fill="#C9CFDB" stroke="#6E7E92" stroke-width="0.6" stroke-linecap="round" stroke-linejoin="round"/>
<path d="M32.0396 54.9889L35.0093 57.6617L35.3805 57.5132L35.3063 54.6177L32.0396 54.9889Z" fill="#C9CFDB" stroke="#6E7E92" stroke-width="0.6" stroke-linecap="round" stroke-linejoin="round"/>
<path d="M45.9229 56.4833L48.9585 59.2212L49.3381 59.0691L49.2621 56.103L45.9229 56.4833Z" fill="#C9CFDB" stroke="#6E7E92" stroke-width="0.6" stroke-linecap="round" stroke-linejoin="round"/>
<path d="M52.604 57.2255L55.6398 59.9634L56.0193 59.8113L55.9434 56.8452L52.604 57.2255Z" fill="#C9CFDB" stroke="#6E7E92" stroke-width="0.6" stroke-linecap="round" stroke-linejoin="round"/>
<path d="M25.2827 54.1725H23.7236L26.0252 53.6528L28.5495 53.8013L25.2827 54.1725Z" fill="#C9CFDB" stroke="#6E7E92" stroke-width="0.6" stroke-linecap="round" stroke-linejoin="round"/>
<path d="M32.0391 54.9889H30.48L32.7815 54.4692L35.3058 54.6176L32.0391 54.9889Z" fill="#C9CFDB" stroke="#6E7E92" stroke-width="0.6" stroke-linecap="round" stroke-linejoin="round"/>
<path d="M45.8722 56.3996H44.2891L46.626 55.9541L49.1891 56.0814L45.8722 56.3996Z" fill="#C9CFDB" stroke="#6E7E92" stroke-width="0.6" stroke-linecap="round" stroke-linejoin="round"/>
<path d="M52.5543 57.1422H50.9712L53.3082 56.6968L55.8713 56.824L52.5543 57.1422Z" fill="#C9CFDB" stroke="#6E7E92" stroke-width="0.6" stroke-linecap="round" stroke-linejoin="round"/>
<path d="M62.5537 58.3302V56.9939L66.1174 56.6226V58.7015L62.5537 58.3302Z" fill="#C9CFDB" stroke="#6E7E92" stroke-width="0.6" stroke-linecap="round" stroke-linejoin="round"/>
<path d="M75.6665 56.8415V55.5322L79.158 55.1685V57.2052L75.6665 56.8415Z" fill="#C9CFDB" stroke="#6E7E92" stroke-width="0.6" stroke-linecap="round" stroke-linejoin="round"/>
<path d="M89.2197 55.2963V54.0086L92.6535 53.6509V55.6539L89.2197 55.2963Z" fill="#C9CFDB" stroke="#6E7E92" stroke-width="0.6" stroke-linecap="round" stroke-linejoin="round"/>
<path d="M103.738 53.5909V52.3971L106.922 52.0654V53.9226L103.738 53.5909Z" fill="#C9CFDB" stroke="#6E7E92" stroke-width="0.6" stroke-linecap="round" stroke-linejoin="round"/>
<path d="M117.434 52.0314V50.8952L120.463 50.5796V52.347L117.434 52.0314Z" fill="#C9CFDB" stroke="#6E7E92" stroke-width="0.6" stroke-linecap="round" stroke-linejoin="round"/>
<path d="M131.628 50.4049V49.2687L134.658 48.9531V50.7205L131.628 50.4049Z" fill="#C9CFDB" stroke="#6E7E92" stroke-width="0.6" stroke-linecap="round" stroke-linejoin="round"/>
<path d="M145.243 48.758V47.697L148.072 47.4023V49.0527L145.243 48.758Z" fill="#C9CFDB" stroke="#6E7E92" stroke-width="0.6" stroke-linecap="round" stroke-linejoin="round"/>
<path d="M158.813 47.1478V46.1353L161.513 45.854V47.4291L158.813 47.1478Z" fill="#C9CFDB" stroke="#6E7E92" stroke-width="0.6" stroke-linecap="round" stroke-linejoin="round"/>
<path d="M67.1566 58.5529V56.4741L66.1172 56.6226V58.7014L67.1566 58.5529Z" fill="#C9CFDB" stroke="#6E7E92" stroke-width="0.6" stroke-linecap="round" stroke-linejoin="round"/>
<path d="M80.1761 57.0596V55.0229L79.1577 55.1684V57.2051L80.1761 57.0596Z" fill="#C9CFDB" stroke="#6E7E92" stroke-width="0.6" stroke-linecap="round" stroke-linejoin="round"/>
<path d="M93.6544 55.5109V53.5078L92.6528 53.6509V55.6539L93.6544 55.5109Z" fill="#C9CFDB" stroke="#6E7E92" stroke-width="0.6" stroke-linecap="round" stroke-linejoin="round"/>
<path d="M107.851 53.7898V51.9326L106.923 52.0653V53.9224L107.851 53.7898Z" fill="#C9CFDB" stroke="#6E7E92" stroke-width="0.6" stroke-linecap="round" stroke-linejoin="round"/>
<path d="M121.347 52.221V50.4536L120.463 50.5799V52.3472L121.347 52.221Z" fill="#C9CFDB" stroke="#6E7E92" stroke-width="0.6" stroke-linecap="round" stroke-linejoin="round"/>
<path d="M135.542 50.594V48.8267L134.658 48.9529V50.7203L135.542 50.594Z" fill="#C9CFDB" stroke="#6E7E92" stroke-width="0.6" stroke-linecap="round" stroke-linejoin="round"/>
<path d="M148.898 48.9346V47.2842L148.073 47.4021V49.0525L148.898 48.9346Z" fill="#C9CFDB" stroke="#6E7E92" stroke-width="0.6" stroke-linecap="round" stroke-linejoin="round"/>
<path d="M162.3 47.3168V45.7417L161.513 45.8542V47.4293L162.3 47.3168Z" fill="#C9CFDB" stroke="#6E7E92" stroke-width="0.6" stroke-linecap="round" stroke-linejoin="round"/>
</svg>
