<svg width="158" height="66" viewBox="0 0 158 66" fill="none" xmlns="http://www.w3.org/2000/svg">
<path d="M35.8174 54.8502L34.8955 54.7661C34.8638 54.0446 34.7563 53.3631 34.7573 52.8336C34.7585 52.236 34.8978 51.8321 35.4403 51.7834L41.9774 50.439V53.5478L35.8174 54.8502Z" fill="#C9CFDB"/>
<path d="M35.8174 54.8502L34.8955 54.7661C34.8638 54.0446 34.7563 53.3631 34.7573 52.8336M35.8174 54.8502L41.9774 53.5478V50.439L35.4403 51.7834C34.8978 51.8321 34.7585 52.236 34.7573 52.8336M35.8174 54.8502C35.7904 54.1351 35.7033 53.4717 35.7136 52.9597M34.7573 52.8336L35.7136 52.9597M35.7136 52.9597C35.725 52.3927 35.8558 52.0115 36.3203 51.9514" stroke="#6E7E92" stroke-width="0.6" stroke-linecap="round" stroke-linejoin="round"/>
<path d="M41.9766 54.094V50.439L53.7099 50.9011L52.0337 54.8502L41.9766 54.094Z" fill="#6E7E92" stroke="#6E7E92" stroke-width="0.6" stroke-linecap="round" stroke-linejoin="round"/>
<path d="M38.1213 57.9586C39.3479 57.9586 40.3423 56.4538 40.3423 54.5977C40.3423 52.7415 39.3479 51.2368 38.1213 51.2368C36.8947 51.2368 35.9004 52.7415 35.9004 54.5977C35.9004 56.4538 36.8947 57.9586 38.1213 57.9586Z" fill="#C9CFDB" stroke="#6E7E92" stroke-width="0.6" stroke-linecap="round" stroke-linejoin="round"/>
<path d="M40.8446 54.4297C40.4675 56.2781 39.7808 57.9166 38.6237 57.9166C36.9056 57.9166 36.5703 56.2858 36.5703 54.4297C36.5703 52.5735 37.5922 51.0688 38.7494 51.0688C39.9066 51.0688 40.8446 52.5735 40.8446 54.4297Z" fill="#C9CFDB" stroke="#6E7E92" stroke-width="0.6" stroke-linecap="round" stroke-linejoin="round"/>
<path d="M37.9961 54.5557C37.9961 55.1357 38.315 55.6059 38.7084 55.6059L46.8799 56.4042L47.257 54.3456L38.7084 53.5054C38.315 53.5054 37.9961 53.9756 37.9961 54.5557Z" fill="#C9CFDB" stroke="#6E7E92" stroke-width="0.6" stroke-linecap="round" stroke-linejoin="round"/>
<path d="M49.4789 55.606C49.4789 57.4622 48.3964 59.0089 47.216 59.0089C46.0357 59.0089 45.2046 57.4622 45.2046 55.606C45.2046 53.7498 46.1615 52.2451 47.3418 52.2451C48.5221 52.2451 49.4789 53.7498 49.4789 55.606Z" fill="#C9CFDB" stroke="#6E7E92" stroke-width="0.6" stroke-linecap="round" stroke-linejoin="round"/>
<path d="M58.4324 55.0725C58.2023 56.8562 56.9789 58.2087 55.8543 58.0628C54.7296 57.917 54.1296 56.3279 54.3597 54.5443C54.5899 52.7606 55.6883 51.433 56.8129 51.5788C57.9375 51.7248 58.6627 53.2889 58.4324 55.0725Z" fill="#C9CFDB" stroke="#6E7E92" stroke-width="0.6" stroke-linecap="round" stroke-linejoin="round"/>
<path d="M49.8139 55.606C49.8139 57.4622 48.7313 59.0089 47.551 59.0089C46.3707 59.0089 45.5396 57.4622 45.5396 55.606C45.5396 53.7498 46.4964 52.2451 47.6767 52.2451C48.857 52.2451 49.8139 53.7498 49.8139 55.606Z" fill="#C9CFDB" stroke="#6E7E92" stroke-width="0.6" stroke-linecap="round" stroke-linejoin="round"/>
<path d="M58.765 55.1155C58.5348 56.8992 57.3114 58.2517 56.1868 58.1057C55.0622 57.9599 54.4621 56.3708 54.6923 54.5872C54.9224 52.8035 56.0208 51.4759 57.1455 51.6218C58.27 51.7677 58.9952 53.3319 58.765 55.1155Z" fill="#C9CFDB" stroke="#6E7E92" stroke-width="0.6" stroke-linecap="round" stroke-linejoin="round"/>
<path d="M49.8551 55.7127C49.8551 57.4421 48.8493 58.8831 48.3884 58.8831C47.2081 58.8831 46.377 57.4421 46.377 55.7127C46.377 53.9835 47.3338 52.5815 48.5141 52.5815C49.5198 52.5815 49.8551 53.9835 49.8551 55.7127Z" fill="#C9CFDB" stroke="#6E7E92" stroke-width="0.6" stroke-linecap="round" stroke-linejoin="round"/>
<path d="M58.7553 55.2005C58.5427 56.8469 57.4283 58.0973 56.9988 58.0416C55.8987 57.8988 55.3012 56.4265 55.5137 54.78C55.7262 53.1336 56.7902 51.9145 57.8902 52.0573C58.8275 52.1788 58.9678 53.5541 58.7553 55.2005Z" fill="#C9CFDB" stroke="#6E7E92" stroke-width="0.6" stroke-linecap="round" stroke-linejoin="round"/>
<path d="M48.6939 56.4044L47.772 56.3205C47.7403 55.5989 47.6328 54.9174 47.6338 54.388C47.6349 53.7903 47.7743 53.3864 48.3167 53.3377L52.6624 52.4554V51.6572H53.6681V52.5815L49.1968 53.5057C48.7323 53.5658 48.6015 53.9471 48.59 54.514C48.5797 55.026 48.667 55.6894 48.6939 56.4044Z" fill="#C9CFDB"/>
<path d="M48.59 54.514C48.5797 55.026 48.667 55.6894 48.6939 56.4044L47.772 56.3205C47.7403 55.5989 47.6328 54.9174 47.6338 54.388M48.59 54.514C48.6015 53.9471 48.7323 53.5658 49.1968 53.5057L53.6681 52.5815V51.6572H52.6624V52.4554L48.3167 53.3377C47.7743 53.3864 47.6349 53.7903 47.6338 54.388M48.59 54.514L47.6338 54.388" stroke="#6E7E92" stroke-width="0.6" stroke-linecap="round" stroke-linejoin="round"/>
<path d="M48.5912 54.514C48.5808 55.026 48.668 55.6895 48.695 56.4045H49.1978V54.5561L50.8197 54.346L52.4121 57.7489L56.1416 57.2868L57.8178 53.5058L59.4102 53.3378L59.452 55.2282L59.7035 55.1443C59.8367 53.9506 60.4578 52.3295 59.5359 52.3295L55.0521 52.4135V51.4473L53.6692 51.6573V52.5816L49.1978 53.5058C48.7334 53.5659 48.6025 53.9472 48.5912 54.514Z" fill="#C9CFDB" stroke="#6E7E92" stroke-width="0.6" stroke-linecap="round" stroke-linejoin="round"/>
<path d="M59.4101 53.3374L59.452 55.2279V55.9389L57.9182 56.0958L56.8227 55.7498L56.1415 57.2864L52.412 57.7485L51.371 57.5919L50.8196 56.3237L49.1978 56.4042V54.5558L50.8196 54.3456L52.412 57.7485L56.1415 57.2864L56.8227 55.7498L57.8176 53.5055L59.4101 53.3374Z" fill="#C9CFDB"/>
<path d="M52.412 57.7485L56.1415 57.2864L56.8227 55.7498M52.412 57.7485L50.8196 54.3456L49.1978 54.5558V56.4042L50.8196 56.3237L51.371 57.5919L52.412 57.7485ZM56.8227 55.7498L57.8176 53.5055L59.4101 53.3374L59.452 55.2279V55.9389L57.9182 56.0958L56.8227 55.7498Z" stroke="#6E7E92" stroke-width="0.6" stroke-linecap="round" stroke-linejoin="round"/>
<path d="M49.3105 55.9003C49.3105 56.4339 49.592 56.8666 49.9391 56.8666H50.3581C50.7053 56.8666 50.9867 56.4339 50.9867 55.9003C50.9867 55.3667 50.7053 54.9341 50.3581 54.9341H49.9391C49.592 54.9341 49.3105 55.3667 49.3105 55.9003Z" fill="#C9CFDB" stroke="#6E7E92" stroke-width="0.6" stroke-linecap="round" stroke-linejoin="round"/>
<path d="M58.0259 54.808C58.0259 55.3416 58.2932 55.7743 58.623 55.7743H59.0211C59.3509 55.7743 59.6182 55.3416 59.6182 54.808C59.6182 54.2744 59.3509 53.8418 59.0211 53.8418H58.623C58.2932 53.8418 58.0259 54.2744 58.0259 54.808Z" fill="#C9CFDB" stroke="#6E7E92" stroke-width="0.6" stroke-linecap="round" stroke-linejoin="round"/>
<path d="M50.3581 56.8666C50.7052 56.8666 50.9866 56.434 50.9866 55.9003C50.9866 55.3667 50.7052 54.9341 50.3581 54.9341C50.0109 54.9341 49.7295 55.3667 49.7295 55.9003C49.7295 56.434 50.0109 56.8666 50.3581 56.8666Z" fill="#C9CFDB" stroke="#6E7E92" stroke-width="0.6" stroke-linecap="round" stroke-linejoin="round"/>
<path d="M59.033 55.7743C59.357 55.7743 59.6196 55.3417 59.6196 54.808C59.6196 54.2744 59.357 53.8418 59.033 53.8418C58.7089 53.8418 58.4463 54.2744 58.4463 54.808C58.4463 55.3417 58.7089 55.7743 59.033 55.7743Z" fill="#C9CFDB" stroke="#6E7E92" stroke-width="0.6" stroke-linecap="round" stroke-linejoin="round"/>
<path d="M17.6459 57.8029L16.6689 57.7139C16.6353 56.9492 16.5214 56.2269 16.5225 55.6658C16.5237 55.0324 16.6713 54.6043 17.2462 54.5527L24.1744 53.1279V56.4226L17.6459 57.8029Z" fill="#C9CFDB"/>
<path d="M17.6459 57.8029L16.6689 57.7139C16.6353 56.9492 16.5214 56.2269 16.5225 55.6658M17.6459 57.8029L24.1744 56.4226V53.1279L17.2462 54.5527C16.6713 54.6043 16.5237 55.0324 16.5225 55.6658M17.6459 57.8029C17.6174 57.0451 17.525 56.342 17.5359 55.7994M16.5225 55.6658L17.5359 55.7994M17.5359 55.7994C17.548 55.1985 17.6866 54.7944 18.1789 54.7308" stroke="#6E7E92" stroke-width="0.6" stroke-linecap="round" stroke-linejoin="round"/>
<path d="M24.1743 57.0015V53.1279L36.6093 53.6177L34.8329 57.8029L24.1743 57.0015Z" fill="#6E7E92" stroke="#6E7E92" stroke-width="0.6" stroke-linecap="round" stroke-linejoin="round"/>
<path d="M20.0886 61.0974C21.3886 61.0974 22.4424 59.5027 22.4424 57.5355C22.4424 55.5683 21.3886 53.9736 20.0886 53.9736C18.7887 53.9736 17.7349 55.5683 17.7349 57.5355C17.7349 59.5027 18.7887 61.0974 20.0886 61.0974Z" fill="#C9CFDB" stroke="#6E7E92" stroke-width="0.6" stroke-linecap="round" stroke-linejoin="round"/>
<path d="M22.9752 57.3573C22.5755 59.3163 21.8478 61.0527 20.6214 61.0527C18.8006 61.0527 18.4453 59.3245 18.4453 57.3573C18.4453 55.3901 19.5283 53.7954 20.7547 53.7954C21.9811 53.7954 22.9752 55.3901 22.9752 57.3573Z" fill="#C9CFDB" stroke="#6E7E92" stroke-width="0.6" stroke-linecap="round" stroke-linejoin="round"/>
<path d="M19.9561 57.491C19.9561 58.1057 20.294 58.6041 20.711 58.6041L29.3712 59.4501L29.7709 57.2684L20.711 56.3779C20.294 56.3779 19.9561 56.8762 19.9561 57.491Z" fill="#C9CFDB" stroke="#6E7E92" stroke-width="0.6" stroke-linecap="round" stroke-linejoin="round"/>
<path d="M32.1241 58.6043C32.1241 60.5715 30.9769 62.2107 29.726 62.2107C28.4751 62.2107 27.5942 60.5715 27.5942 58.6043C27.5942 56.6372 28.6083 55.0425 29.8592 55.0425C31.1101 55.0425 32.1241 56.6372 32.1241 58.6043Z" fill="#C9CFDB" stroke="#6E7E92" stroke-width="0.6" stroke-linecap="round" stroke-linejoin="round"/>
<path d="M41.615 58.0385C41.3711 59.9288 40.0746 61.3622 38.8827 61.2076C37.6907 61.053 37.0547 59.3689 37.2987 57.4787C37.5427 55.5883 38.7067 54.1812 39.8986 54.3358C41.0905 54.4904 41.859 56.1482 41.615 58.0385Z" fill="#C9CFDB" stroke="#6E7E92" stroke-width="0.6" stroke-linecap="round" stroke-linejoin="round"/>
<path d="M32.4791 58.6043C32.4791 60.5715 31.3318 62.2107 30.0809 62.2107C28.83 62.2107 27.9492 60.5715 27.9492 58.6043C27.9492 56.6372 28.9633 55.0425 30.2141 55.0425C31.465 55.0425 32.4791 56.6372 32.4791 58.6043Z" fill="#C9CFDB" stroke="#6E7E92" stroke-width="0.6" stroke-linecap="round" stroke-linejoin="round"/>
<path d="M41.9666 58.0839C41.7226 59.9742 40.4261 61.4077 39.2341 61.2531C38.0422 61.0985 37.4063 59.4144 37.6503 57.5241C37.8942 55.6338 39.0582 54.2266 40.2501 54.3812C41.442 54.5359 42.2105 56.1936 41.9666 58.0839Z" fill="#C9CFDB" stroke="#6E7E92" stroke-width="0.6" stroke-linecap="round" stroke-linejoin="round"/>
<path d="M32.5246 58.717C32.5246 60.5497 31.4586 62.077 30.9701 62.077C29.7192 62.077 28.8384 60.5497 28.8384 58.717C28.8384 56.8842 29.8525 55.3984 31.1034 55.3984C32.1692 55.3984 32.5246 56.8842 32.5246 58.717Z" fill="#C9CFDB" stroke="#6E7E92" stroke-width="0.6" stroke-linecap="round" stroke-linejoin="round"/>
<path d="M41.9551 58.1744C41.7299 59.9192 40.5488 61.2444 40.0936 61.1854C38.9278 61.0341 38.2945 59.4736 38.5197 57.7287C38.7449 55.9838 39.8726 54.6919 41.0384 54.8431C42.0317 54.972 42.1803 56.4294 41.9551 58.1744Z" fill="#C9CFDB" stroke="#6E7E92" stroke-width="0.6" stroke-linecap="round" stroke-linejoin="round"/>
<path d="M31.2944 59.45L30.3173 59.361C30.2837 58.5964 30.1698 57.874 30.1709 57.313C30.1721 56.6795 30.3198 56.2515 30.8947 56.1999L35.5002 55.2649V54.4189H36.566V55.3985L31.8273 56.378C31.3351 56.4416 31.1964 56.8457 31.1843 57.4465C31.1734 57.9891 31.2658 58.6923 31.2944 59.45Z" fill="#C9CFDB"/>
<path d="M31.1843 57.4465C31.1734 57.9891 31.2658 58.6923 31.2944 59.45L30.3173 59.361C30.2837 58.5964 30.1698 57.874 30.1709 57.313M31.1843 57.4465C31.1964 56.8457 31.3351 56.4416 31.8273 56.378L36.566 55.3985V54.4189H35.5002V55.2649L30.8947 56.1999C30.3198 56.2515 30.1721 56.6795 30.1709 57.313M31.1843 57.4465L30.1709 57.313" stroke="#6E7E92" stroke-width="0.6" stroke-linecap="round" stroke-linejoin="round"/>
<path d="M31.1835 57.4465C31.1726 57.9891 31.265 58.6922 31.2935 59.4501H31.8265V57.491L33.5453 57.2684L35.2329 60.8748L39.1855 60.385L40.962 56.3779L42.6495 56.1998L42.694 58.2034L42.9604 58.1143C43.1016 56.8492 43.7598 55.1313 42.7828 55.1313L38.0308 55.2203V54.1963L36.5652 54.4189V55.3984L31.8265 56.3779C31.3343 56.4416 31.1955 56.8457 31.1835 57.4465Z" fill="#C9CFDB" stroke="#6E7E92" stroke-width="0.6" stroke-linecap="round" stroke-linejoin="round"/>
<path d="M42.6484 56.1997L42.6927 58.2032V58.9568L41.0673 59.123L39.9062 58.7563L39.1843 60.3848L35.2317 60.8746L34.1285 60.7087L33.5441 59.3647L31.8252 59.4499V57.4908L33.5441 57.2682L35.2317 60.8746L39.1843 60.3848L39.9062 58.7563L40.9607 56.3777L42.6484 56.1997Z" fill="#C9CFDB"/>
<path d="M35.2317 60.8746L39.1843 60.3848L39.9062 58.7563M35.2317 60.8746L33.5441 57.2682L31.8252 57.4908V59.4499L33.5441 59.3647L34.1285 60.7087L35.2317 60.8746ZM39.9062 58.7563L40.9607 56.3777L42.6484 56.1997L42.6927 58.2032V58.9568L41.0673 59.123L39.9062 58.7563Z" stroke="#6E7E92" stroke-width="0.6" stroke-linecap="round" stroke-linejoin="round"/>
<path d="M31.9468 58.9156C31.9468 59.4811 32.245 59.9397 32.6129 59.9397H33.0571C33.425 59.9397 33.7232 59.4811 33.7232 58.9156C33.7232 58.3501 33.425 57.8916 33.0571 57.8916H32.6129C32.245 57.8916 31.9468 58.3501 31.9468 58.9156Z" fill="#C9CFDB" stroke="#6E7E92" stroke-width="0.6" stroke-linecap="round" stroke-linejoin="round"/>
<path d="M41.1846 57.7584C41.1846 58.324 41.4679 58.7824 41.8174 58.7824H42.2393C42.5888 58.7824 42.8722 58.324 42.8722 57.7584C42.8722 57.1928 42.5888 56.7344 42.2393 56.7344H41.8174C41.4679 56.7344 41.1846 57.1928 41.1846 57.7584Z" fill="#C9CFDB" stroke="#6E7E92" stroke-width="0.6" stroke-linecap="round" stroke-linejoin="round"/>
<path d="M33.0568 59.9397C33.4247 59.9397 33.723 59.4812 33.723 58.9156C33.723 58.3501 33.4247 57.8916 33.0568 57.8916C32.6889 57.8916 32.3906 58.3501 32.3906 58.9156C32.3906 59.4812 32.6889 59.9397 33.0568 59.9397Z" fill="#C9CFDB" stroke="#6E7E92" stroke-width="0.6" stroke-linecap="round" stroke-linejoin="round"/>
<path d="M42.2502 58.782C42.5936 58.782 42.8719 58.3235 42.8719 57.7579C42.8719 57.1924 42.5936 56.7339 42.2502 56.7339C41.9068 56.7339 41.6284 57.1924 41.6284 57.7579C41.6284 58.3235 41.9068 58.782 42.2502 58.782Z" fill="#C9CFDB" stroke="#6E7E92" stroke-width="0.6" stroke-linecap="round" stroke-linejoin="round"/>
<path d="M123.639 43.8764L122.717 43.7925C122.686 43.0709 122.578 42.3894 122.579 41.8599C122.581 41.2623 122.72 40.8584 123.262 40.8097L129.799 39.4653V42.5741L123.639 43.8764Z" fill="#C9CFDB"/>
<path d="M123.639 43.8764L122.717 43.7925C122.686 43.0709 122.578 42.3894 122.579 41.8599M123.639 43.8764L129.799 42.5741V39.4653L123.262 40.8097C122.72 40.8584 122.581 41.2623 122.579 41.8599M123.639 43.8764C123.613 43.1614 123.525 42.4979 123.535 41.986M122.579 41.8599L123.535 41.986M123.535 41.986C123.547 41.419 123.678 41.0378 124.143 40.9777" stroke="#6E7E92" stroke-width="0.6" stroke-linecap="round" stroke-linejoin="round"/>
<path d="M129.799 43.1202V39.4653L141.533 39.9274L139.857 43.8764L129.799 43.1202Z" fill="#6E7E92" stroke="#6E7E92" stroke-width="0.6" stroke-linecap="round" stroke-linejoin="round"/>
<path d="M125.944 46.9849C127.171 46.9849 128.165 45.4802 128.165 43.6241C128.165 41.7679 127.171 40.2632 125.944 40.2632C124.718 40.2632 123.723 41.7679 123.723 43.6241C123.723 45.4802 124.718 46.9849 125.944 46.9849Z" fill="#C9CFDB" stroke="#6E7E92" stroke-width="0.6" stroke-linecap="round" stroke-linejoin="round"/>
<path d="M128.667 43.456C128.29 45.3045 127.604 46.943 126.447 46.943C124.729 46.943 124.393 45.3122 124.393 43.456C124.393 41.5999 125.415 40.0952 126.572 40.0952C127.73 40.0952 128.667 41.5999 128.667 43.456Z" fill="#C9CFDB" stroke="#6E7E92" stroke-width="0.6" stroke-linecap="round" stroke-linejoin="round"/>
<path d="M125.819 43.5825C125.819 44.1625 126.137 44.6328 126.531 44.6328L134.702 45.4309L135.079 43.3724L126.531 42.5322C126.137 42.5322 125.819 43.0024 125.819 43.5825Z" fill="#C9CFDB" stroke="#6E7E92" stroke-width="0.6" stroke-linecap="round" stroke-linejoin="round"/>
<path d="M137.301 44.6324C137.301 46.4885 136.218 48.0352 135.038 48.0352C133.858 48.0352 133.027 46.4885 133.027 44.6324C133.027 42.7762 133.983 41.2715 135.164 41.2715C136.344 41.2715 137.301 42.7762 137.301 44.6324Z" fill="#C9CFDB" stroke="#6E7E92" stroke-width="0.6" stroke-linecap="round" stroke-linejoin="round"/>
<path d="M146.255 44.0989C146.025 45.8826 144.801 47.235 143.677 47.0891C142.552 46.9433 141.952 45.3542 142.183 43.5706C142.412 41.7869 143.511 40.4593 144.636 40.6052C145.76 40.7511 146.486 42.3153 146.255 44.0989Z" fill="#C9CFDB" stroke="#6E7E92" stroke-width="0.6" stroke-linecap="round" stroke-linejoin="round"/>
<path d="M137.635 44.6324C137.635 46.4885 136.553 48.0352 135.373 48.0352C134.192 48.0352 133.361 46.4885 133.361 44.6324C133.361 42.7762 134.318 41.2715 135.498 41.2715C136.679 41.2715 137.635 42.7762 137.635 44.6324Z" fill="#C9CFDB" stroke="#6E7E92" stroke-width="0.6" stroke-linecap="round" stroke-linejoin="round"/>
<path d="M146.587 44.1419C146.356 45.9255 145.133 47.278 144.009 47.1321C142.884 46.9862 142.284 45.3972 142.514 43.6136C142.744 41.8299 143.842 40.5022 144.967 40.6482C146.091 40.794 146.817 42.3582 146.587 44.1419Z" fill="#C9CFDB" stroke="#6E7E92" stroke-width="0.6" stroke-linecap="round" stroke-linejoin="round"/>
<path d="M137.678 44.7392C137.678 46.4685 136.673 47.9096 136.212 47.9096C135.031 47.9096 134.2 46.4685 134.2 44.7392C134.2 43.0098 135.157 41.6079 136.337 41.6079C137.343 41.6079 137.678 43.0098 137.678 44.7392Z" fill="#C9CFDB" stroke="#6E7E92" stroke-width="0.6" stroke-linecap="round" stroke-linejoin="round"/>
<path d="M146.577 44.2264C146.365 45.8728 145.25 47.1232 144.821 47.0675C143.721 46.9248 143.123 45.4524 143.335 43.806C143.548 42.1595 144.612 40.9405 145.712 41.0831C146.649 41.2047 146.789 42.58 146.577 44.2264Z" fill="#C9CFDB" stroke="#6E7E92" stroke-width="0.6" stroke-linecap="round" stroke-linejoin="round"/>
<path d="M136.517 45.4308L135.594 45.3467C135.563 44.6253 135.455 43.9437 135.456 43.4143C135.458 42.8166 135.597 42.4127 136.139 42.364L140.485 41.4818V40.6836H141.491V41.6078L137.02 42.532C136.555 42.5921 136.424 42.9734 136.412 43.5403C136.402 44.0523 136.49 44.7158 136.517 45.4308Z" fill="#C9CFDB"/>
<path d="M136.412 43.5403C136.402 44.0523 136.49 44.7158 136.517 45.4308L135.594 45.3467C135.563 44.6253 135.455 43.9437 135.456 43.4143M136.412 43.5403C136.424 42.9734 136.555 42.5921 137.02 42.532L141.491 41.6078V40.6836H140.485V41.4818L136.139 42.364C135.597 42.4127 135.458 42.8166 135.456 43.4143M136.412 43.5403L135.456 43.4143" stroke="#6E7E92" stroke-width="0.6" stroke-linecap="round" stroke-linejoin="round"/>
<path d="M136.414 43.5404C136.403 44.0525 136.491 44.7159 136.518 45.4309H137.02V43.5825L138.642 43.3724L140.235 46.7753L143.964 46.3131L145.641 42.5322L147.233 42.3641L147.275 44.2546L147.526 44.1706C147.659 42.9769 148.28 41.3559 147.359 41.3559L142.875 41.4399V40.4736L141.492 40.6837V41.6079L137.02 42.5322C136.556 42.5922 136.426 42.9735 136.414 43.5404Z" fill="#C9CFDB" stroke="#6E7E92" stroke-width="0.6" stroke-linecap="round" stroke-linejoin="round"/>
<path d="M147.232 42.3638L147.274 44.2543V44.9653L145.74 45.1222L144.645 44.7762L143.963 46.3128L140.234 46.775L139.193 46.6183L138.641 45.3501L137.02 45.4306V43.5821L138.641 43.3721L140.234 46.775L143.963 46.3128L144.645 44.7762L145.64 42.5318L147.232 42.3638Z" fill="#C9CFDB"/>
<path d="M140.234 46.775L143.963 46.3128L144.645 44.7762M140.234 46.775L138.641 43.3721L137.02 43.5821V45.4306L138.641 45.3501L139.193 46.6183L140.234 46.775ZM144.645 44.7762L145.64 42.5318L147.232 42.3638L147.274 44.2543V44.9653L145.74 45.1222L144.645 44.7762Z" stroke="#6E7E92" stroke-width="0.6" stroke-linecap="round" stroke-linejoin="round"/>
<path d="M137.132 44.9267C137.132 45.4603 137.414 45.8929 137.761 45.8929H138.18C138.527 45.8929 138.809 45.4603 138.809 44.9267C138.809 44.393 138.527 43.9604 138.18 43.9604H137.761C137.414 43.9604 137.132 44.393 137.132 44.9267Z" fill="#C9CFDB" stroke="#6E7E92" stroke-width="0.6" stroke-linecap="round" stroke-linejoin="round"/>
<path d="M145.849 43.8344C145.849 44.3681 146.116 44.8006 146.446 44.8006H146.844C147.174 44.8006 147.441 44.3681 147.441 43.8344C147.441 43.3008 147.174 42.8682 146.844 42.8682H146.446C146.116 42.8682 145.849 43.3008 145.849 43.8344Z" fill="#C9CFDB" stroke="#6E7E92" stroke-width="0.6" stroke-linecap="round" stroke-linejoin="round"/>
<path d="M138.181 45.8929C138.528 45.8929 138.809 45.4603 138.809 44.9267C138.809 44.3931 138.528 43.9604 138.181 43.9604C137.834 43.9604 137.552 44.3931 137.552 44.9267C137.552 45.4603 137.834 45.8929 138.181 45.8929Z" fill="#C9CFDB" stroke="#6E7E92" stroke-width="0.6" stroke-linecap="round" stroke-linejoin="round"/>
<path d="M146.856 44.8007C147.18 44.8007 147.443 44.3681 147.443 43.8344C147.443 43.3008 147.18 42.8682 146.856 42.8682C146.532 42.8682 146.27 43.3008 146.27 43.8344C146.27 44.3681 146.532 44.8007 146.856 44.8007Z" fill="#C9CFDB" stroke="#6E7E92" stroke-width="0.6" stroke-linecap="round" stroke-linejoin="round"/>
<path d="M105.469 46.8293L104.492 46.7402C104.458 45.9756 104.344 45.2533 104.345 44.6922C104.346 44.0587 104.493 43.6307 105.069 43.5791L111.997 42.1543V45.4491L105.469 46.8293Z" fill="#C9CFDB"/>
<path d="M105.469 46.8293L104.492 46.7402C104.458 45.9756 104.344 45.2533 104.345 44.6922M105.469 46.8293L111.997 45.4491V42.1543L105.069 43.5791C104.493 43.6307 104.346 44.0587 104.345 44.6922M105.469 46.8293C105.44 46.0715 105.348 45.3684 105.358 44.8257M104.345 44.6922L105.358 44.8257M105.358 44.8257C105.371 44.2249 105.509 43.8209 106.001 43.7572" stroke="#6E7E92" stroke-width="0.6" stroke-linecap="round" stroke-linejoin="round"/>
<path d="M111.996 46.0278V42.1543L124.431 42.6441L122.654 46.8293L111.996 46.0278Z" fill="#6E7E92" stroke="#6E7E92" stroke-width="0.6" stroke-linecap="round" stroke-linejoin="round"/>
<path d="M107.911 50.1237C109.211 50.1237 110.265 48.529 110.265 46.5619C110.265 44.5947 109.211 43 107.911 43C106.611 43 105.557 44.5947 105.557 46.5619C105.557 48.529 106.611 50.1237 107.911 50.1237Z" fill="#C9CFDB" stroke="#6E7E92" stroke-width="0.6" stroke-linecap="round" stroke-linejoin="round"/>
<path d="M110.797 46.3836C110.398 48.3427 109.67 50.0791 108.443 50.0791C106.623 50.0791 106.268 48.3508 106.268 46.3836C106.268 44.4165 107.351 42.8218 108.577 42.8218C109.803 42.8218 110.797 44.4165 110.797 46.3836Z" fill="#C9CFDB" stroke="#6E7E92" stroke-width="0.6" stroke-linecap="round" stroke-linejoin="round"/>
<path d="M107.777 46.5174C107.777 47.1322 108.116 47.6305 108.533 47.6305L117.192 48.4764L117.592 46.2948L108.533 45.4043C108.116 45.4043 107.777 45.9027 107.777 46.5174Z" fill="#C9CFDB" stroke="#6E7E92" stroke-width="0.6" stroke-linecap="round" stroke-linejoin="round"/>
<path d="M119.946 47.6307C119.946 49.5979 118.799 51.2371 117.548 51.2371C116.297 51.2371 115.417 49.5979 115.417 47.6307C115.417 45.6636 116.43 44.0688 117.681 44.0688C118.932 44.0688 119.946 45.6636 119.946 47.6307Z" fill="#C9CFDB" stroke="#6E7E92" stroke-width="0.6" stroke-linecap="round" stroke-linejoin="round"/>
<path d="M129.436 47.0649C129.192 48.9552 127.896 50.3886 126.703 50.234C125.512 50.0793 124.876 48.3954 125.119 46.505C125.364 44.6147 126.527 43.2076 127.72 43.3622C128.911 43.5168 129.68 45.1746 129.436 47.0649Z" fill="#C9CFDB" stroke="#6E7E92" stroke-width="0.6" stroke-linecap="round" stroke-linejoin="round"/>
<path d="M120.3 47.6307C120.3 49.5979 119.153 51.2371 117.902 51.2371C116.651 51.2371 115.771 49.5979 115.771 47.6307C115.771 45.6636 116.784 44.0688 118.035 44.0688C119.286 44.0688 120.3 45.6636 120.3 47.6307Z" fill="#C9CFDB" stroke="#6E7E92" stroke-width="0.6" stroke-linecap="round" stroke-linejoin="round"/>
<path d="M129.789 47.1102C129.545 49.0005 128.248 50.434 127.056 50.2794C125.864 50.1248 125.228 48.4407 125.472 46.5504C125.716 44.6601 126.88 43.2529 128.072 43.4076C129.264 43.5622 130.032 45.2199 129.789 47.1102Z" fill="#C9CFDB" stroke="#6E7E92" stroke-width="0.6" stroke-linecap="round" stroke-linejoin="round"/>
<path d="M120.346 47.7434C120.346 49.5761 119.28 51.1033 118.792 51.1033C117.541 51.1033 116.66 49.5761 116.66 47.7434C116.66 45.9106 117.674 44.4248 118.926 44.4248C119.991 44.4248 120.346 45.9106 120.346 47.7434Z" fill="#C9CFDB" stroke="#6E7E92" stroke-width="0.6" stroke-linecap="round" stroke-linejoin="round"/>
<path d="M129.776 47.2007C129.551 48.9456 128.37 50.2708 127.914 50.2117C126.749 50.0605 126.115 48.5 126.341 46.7551C126.566 45.0102 127.693 43.7182 128.86 43.8695C129.853 43.9983 130.001 45.4558 129.776 47.2007Z" fill="#C9CFDB" stroke="#6E7E92" stroke-width="0.6" stroke-linecap="round" stroke-linejoin="round"/>
<path d="M119.116 48.4765L118.139 48.3874C118.105 47.6228 117.991 46.9005 117.992 46.3393C117.994 45.706 118.141 45.2779 118.716 45.2262L123.321 44.2913V43.4453H124.388V44.4248L119.649 45.4044C119.157 45.468 119.018 45.872 119.006 46.4729C118.995 47.0156 119.087 47.7186 119.116 48.4765Z" fill="#C9CFDB"/>
<path d="M119.006 46.4729C118.995 47.0156 119.087 47.7186 119.116 48.4765L118.139 48.3874C118.105 47.6228 117.991 46.9005 117.992 46.3393M119.006 46.4729C119.018 45.872 119.157 45.468 119.649 45.4044L124.388 44.4248V43.4453H123.321V44.2913L118.716 45.2262C118.141 45.2779 117.994 45.706 117.992 46.3393M119.006 46.4729L117.992 46.3393" stroke="#6E7E92" stroke-width="0.6" stroke-linecap="round" stroke-linejoin="round"/>
<path d="M119.005 46.4729C118.995 47.0155 119.087 47.7187 119.116 48.4764H119.648V46.5174L121.367 46.2948L123.055 49.9012L127.007 49.4114L128.784 45.4043L130.472 45.2262L130.516 47.2298L130.782 47.1407C130.924 45.8757 131.582 44.1576 130.604 44.1576L125.853 44.2467V43.2227L124.387 43.4453V44.4248L119.648 45.4043C119.156 45.468 119.018 45.8721 119.005 46.4729Z" fill="#C9CFDB" stroke="#6E7E92" stroke-width="0.6" stroke-linecap="round" stroke-linejoin="round"/>
<path d="M130.47 45.2261L130.514 47.2296V47.9831L128.888 48.1494L127.728 47.7827L127.005 49.4113L123.053 49.901L121.949 49.735L121.365 48.391L119.647 48.4762V46.5172L121.365 46.2946L123.053 49.901L127.005 49.4113L127.728 47.7827L128.782 45.4042L130.47 45.2261Z" fill="#C9CFDB"/>
<path d="M123.053 49.901L127.005 49.4113L127.728 47.7827M123.053 49.901L121.365 46.2946L119.647 46.5172V48.4762L121.365 48.391L121.949 49.735L123.053 49.901ZM127.728 47.7827L128.782 45.4042L130.47 45.2261L130.514 47.2296V47.9831L128.888 48.1494L127.728 47.7827Z" stroke="#6E7E92" stroke-width="0.6" stroke-linecap="round" stroke-linejoin="round"/>
<path d="M119.768 47.942C119.768 48.5076 120.066 48.966 120.434 48.966H120.878C121.246 48.966 121.544 48.5076 121.544 47.942C121.544 47.3764 121.246 46.918 120.878 46.918H120.434C120.066 46.918 119.768 47.3764 119.768 47.942Z" fill="#C9CFDB" stroke="#6E7E92" stroke-width="0.6" stroke-linecap="round" stroke-linejoin="round"/>
<path d="M129.005 46.7842C129.005 47.3499 129.288 47.8083 129.638 47.8083H130.06C130.409 47.8083 130.692 47.3499 130.692 46.7842C130.692 46.2187 130.409 45.7603 130.06 45.7603H129.638C129.288 45.7603 129.005 46.2187 129.005 46.7842Z" fill="#C9CFDB" stroke="#6E7E92" stroke-width="0.6" stroke-linecap="round" stroke-linejoin="round"/>
<path d="M120.879 48.966C121.247 48.966 121.545 48.5076 121.545 47.942C121.545 47.3764 121.247 46.918 120.879 46.918C120.511 46.918 120.213 47.3764 120.213 47.942C120.213 48.5076 120.511 48.966 120.879 48.966Z" fill="#C9CFDB" stroke="#6E7E92" stroke-width="0.6" stroke-linecap="round" stroke-linejoin="round"/>
<path d="M130.072 47.8083C130.415 47.8083 130.694 47.3499 130.694 46.7843C130.694 46.2187 130.415 45.7603 130.072 45.7603C129.729 45.7603 129.45 46.2187 129.45 46.7843C129.45 47.3499 129.729 47.8083 130.072 47.8083Z" fill="#C9CFDB" stroke="#6E7E92" stroke-width="0.6" stroke-linecap="round" stroke-linejoin="round"/>
<path d="M30.79 52.8927L152.333 39.105V42.0417L103.544 47.8628L46.4231 54.6382L30.79 56.4925V52.8927Z" fill="#C9CFDB" stroke="#6E7E92" stroke-width="0.6" stroke-linecap="round" stroke-linejoin="round"/>
<path d="M5.3877 50.4921L129.782 39.3756L152.32 39.1172L30.7904 52.8741L5.3877 50.4921Z" fill="#E0E4EC" stroke="#6E7E92" stroke-width="0.6" stroke-linecap="round" stroke-linejoin="round"/>
<path d="M36.2266 47.7745L35.8159 42.813L48.3991 45.6045L48.9702 50.4815L36.2266 47.7745Z" fill="#E0E4EC" stroke="#6E7E92" stroke-width="0.6" stroke-linecap="round" stroke-linejoin="round"/>
<path d="M120.047 39.7413L119.768 36.3672L128.325 38.2655L128.713 41.5822L120.047 39.7413Z" fill="#E0E4EC" stroke="#6E7E92" stroke-width="0.6" stroke-linecap="round" stroke-linejoin="round"/>
<path d="M30.7911 52.8926L5.41748 50.4814V53.6593L30.7911 56.4924V52.8926Z" fill="#C9CFDB" stroke="#6E7E92" stroke-width="0.6" stroke-linecap="round" stroke-linejoin="round"/>
<path d="M6.97264 51.7163L8.96297 53.5121L7.51997 53.3624L5.92773 51.7163H6.97264Z" fill="#C9CFDB" stroke="#6E7E92" stroke-width="0.6" stroke-linecap="round" stroke-linejoin="round"/>
<path d="M11.4999 52.2646L13.4902 54.0604L12.0473 53.9108L10.4551 52.2646H11.4999Z" fill="#C9CFDB" stroke="#6E7E92" stroke-width="0.6" stroke-linecap="round" stroke-linejoin="round"/>
<path d="M20.7725 53.2129L22.7954 55.1085L21.3288 54.9505L19.7104 53.2129H20.7725Z" fill="#C9CFDB" stroke="#6E7E92" stroke-width="0.6" stroke-linecap="round" stroke-linejoin="round"/>
<path d="M25.2504 53.7114L27.2734 55.6069L25.8067 55.449L24.1885 53.7114H25.2504Z" fill="#C9CFDB" stroke="#6E7E92" stroke-width="0.6" stroke-linecap="round" stroke-linejoin="round"/>
<path d="M6.97314 51.7163L8.96343 53.5121L9.21219 53.4123L9.16249 51.4668L6.97314 51.7163Z" fill="#C9CFDB" stroke="#6E7E92" stroke-width="0.6" stroke-linecap="round" stroke-linejoin="round"/>
<path d="M11.5005 52.265L13.4908 54.0608L13.7396 53.9611L13.6898 52.0156L11.5005 52.265Z" fill="#C9CFDB" stroke="#6E7E92" stroke-width="0.6" stroke-linecap="round" stroke-linejoin="round"/>
<path d="M20.8052 53.2687L22.8398 55.1083L23.094 55.0061L23.0432 53.0132L20.8052 53.2687Z" fill="#C9CFDB" stroke="#6E7E92" stroke-width="0.6" stroke-linecap="round" stroke-linejoin="round"/>
<path d="M25.2832 53.7672L27.3178 55.6068L27.5721 55.5046L27.5212 53.5117L25.2832 53.7672Z" fill="#C9CFDB" stroke="#6E7E92" stroke-width="0.6" stroke-linecap="round" stroke-linejoin="round"/>
<path d="M6.97264 51.7163H5.92773L7.47021 51.3672L9.16195 51.4669L6.97264 51.7163Z" fill="#C9CFDB" stroke="#6E7E92" stroke-width="0.6" stroke-linecap="round" stroke-linejoin="round"/>
<path d="M11.4999 52.2647H10.4551L11.9976 51.9155L13.6893 52.0153L11.4999 52.2647Z" fill="#C9CFDB" stroke="#6E7E92" stroke-width="0.6" stroke-linecap="round" stroke-linejoin="round"/>
<path d="M20.7714 53.2128H19.7104L21.2767 52.9136L22.9945 52.999L20.7714 53.2128Z" fill="#C9CFDB" stroke="#6E7E92" stroke-width="0.6" stroke-linecap="round" stroke-linejoin="round"/>
<path d="M25.2494 53.7114H24.1885L25.7547 53.4121L27.4724 53.4976L25.2494 53.7114Z" fill="#C9CFDB" stroke="#6E7E92" stroke-width="0.6" stroke-linecap="round" stroke-linejoin="round"/>
<path d="M6.07489 31.5023C5.26134 40.4506 13.6728 51.1204 24.8107 52.0389C26.7737 52.2008 28.6916 52.132 30.5239 51.8597L133.513 40.9183C143.892 40.0471 151.922 32.8874 152.644 24.9447C153.366 17.0021 145.947 9.22968 136.05 9.08696C135.315 9.02632 134.587 9.00215 133.868 9.01262L23.9292 16.9343C14.4596 17.5791 6.79457 23.5864 6.07489 31.5023Z" fill="#E0E4EC" stroke="#6E7E92" stroke-width="0.6" stroke-linecap="round" stroke-linejoin="round"/>
<path d="M17.0142 18.4585C33.3843 21.8116 50.1413 23.5684 66.0721 25.2385C86.1577 27.3442 104.931 29.3124 119.96 34.1689C126.783 36.3737 132.309 38.452 136.946 40.3874C135.837 40.6399 134.691 40.8196 133.514 40.9185L30.5244 51.8598C28.6921 52.132 26.7741 52.2009 24.8112 52.039C13.6733 51.1204 5.26183 40.4507 6.07538 31.5024C6.60837 25.64 10.9507 20.8243 17.0142 18.4585Z" fill="#EFF1F6" stroke="#6E7E92" stroke-width="0.6" stroke-linecap="round" stroke-linejoin="round"/>
<path d="M47.7354 41.2734L57.7201 39.8086L59.4361 49.5212L48.971 50.4817L47.7354 41.2734Z" fill="#E0E4EC" stroke="#6E7E92" stroke-width="0.6" stroke-linecap="round" stroke-linejoin="round"/>
<path d="M64.2007 49.0698L74.68 47.9394V41.4629L64.2007 42.5933V49.0698Z" fill="#E0E4EC" stroke="#6E7E92" stroke-width="0.6" stroke-linecap="round" stroke-linejoin="round"/>
<path d="M64.2011 49.0702L63.1973 48.3007V41.8242L64.2011 42.5937V49.0702Z" fill="#E0E4EC" stroke="#6E7E92" stroke-width="0.6" stroke-linecap="round" stroke-linejoin="round"/>
<path d="M74.6618 41.4608L73.6579 40.6914L63.1973 41.8241L64.2011 42.5936L74.6618 41.4608Z" fill="#E0E4EC" stroke="#6E7E92" stroke-width="0.6" stroke-linecap="round" stroke-linejoin="round"/>
<path d="M70.5532 41.9062L74.6615 41.463V15.2217L70.5532 15.6648V41.9062Z" fill="#E0E4EC" stroke="#6E7E92" stroke-width="0.6" stroke-linecap="round" stroke-linejoin="round"/>
<path d="M70.5528 41.9063L70.1592 41.6046V15.3633L70.5528 15.6649V41.9063Z" fill="#E0E4EC" stroke="#6E7E92" stroke-width="0.6" stroke-linecap="round" stroke-linejoin="round"/>
<path d="M74.6542 15.2211L74.2607 14.9194L70.1597 15.3635L70.5532 15.6652L74.6542 15.2211Z" fill="#E0E4EC" stroke="#6E7E92" stroke-width="0.6" stroke-linecap="round" stroke-linejoin="round"/>
<path d="M64.416 42.5937L68.5243 42.1505V15.9092L64.416 16.3523V42.5937Z" fill="#E0E4EC" stroke="#6E7E92" stroke-width="0.6" stroke-linecap="round" stroke-linejoin="round"/>
<path d="M64.416 42.5938L64.0225 42.2921V16.0508L64.416 16.3524V42.5938Z" fill="#E0E4EC" stroke="#6E7E92" stroke-width="0.6" stroke-linecap="round" stroke-linejoin="round"/>
<path d="M68.5166 15.9081L68.1231 15.6064L64.022 16.0505L64.4155 16.3522L68.5166 15.9081Z" fill="#E0E4EC" stroke="#6E7E92" stroke-width="0.6" stroke-linecap="round" stroke-linejoin="round"/>
<path d="M101.641 44.956L111.299 43.9142V37.9453L101.641 38.9871V44.956Z" fill="#E0E4EC" stroke="#6E7E92" stroke-width="0.6" stroke-linecap="round" stroke-linejoin="round"/>
<path d="M101.641 44.9564L100.716 44.2473V38.2783L101.641 38.9875V44.9564Z" fill="#E0E4EC" stroke="#6E7E92" stroke-width="0.6" stroke-linecap="round" stroke-linejoin="round"/>
<path d="M111.282 37.9435L110.357 37.2344L100.716 38.2784L101.641 38.9875L111.282 37.9435Z" fill="#E0E4EC" stroke="#6E7E92" stroke-width="0.6" stroke-linecap="round" stroke-linejoin="round"/>
<path d="M107.496 38.3539L111.283 37.9455V13.7607L107.496 14.1691V38.3539Z" fill="#E0E4EC" stroke="#6E7E92" stroke-width="0.6" stroke-linecap="round" stroke-linejoin="round"/>
<path d="M107.496 38.3539L107.134 38.0759V13.8911L107.496 14.1691V38.3539Z" fill="#E0E4EC" stroke="#6E7E92" stroke-width="0.6" stroke-linecap="round" stroke-linejoin="round"/>
<path d="M111.275 13.76L110.912 13.4819L107.133 13.8912L107.496 14.1692L111.275 13.76Z" fill="#E0E4EC" stroke="#6E7E92" stroke-width="0.6" stroke-linecap="round" stroke-linejoin="round"/>
<path d="M101.838 38.9873L105.625 38.5788V14.394L101.838 14.8025V38.9873Z" fill="#E0E4EC" stroke="#6E7E92" stroke-width="0.6" stroke-linecap="round" stroke-linejoin="round"/>
<path d="M101.839 38.9872L101.477 38.7092V14.5244L101.839 14.8024V38.9872Z" fill="#E0E4EC" stroke="#6E7E92" stroke-width="0.6" stroke-linecap="round" stroke-linejoin="round"/>
<path d="M105.619 14.3933L105.257 14.1152L101.477 14.5245L101.839 14.8025L105.619 14.3933Z" fill="#E0E4EC" stroke="#6E7E92" stroke-width="0.6" stroke-linecap="round" stroke-linejoin="round"/>
<path d="M127.583 33.0109L136.877 31.6475L138.474 40.6882L128.732 41.7875L127.583 33.0109Z" fill="#E0E4EC" stroke="#6E7E92" stroke-width="0.6" stroke-linecap="round" stroke-linejoin="round"/>
<path d="M54.1092 18.1704C58.1702 18.0443 62.537 16.8809 62.495 16.2469L62.5376 12.4894C62.4923 11.8081 58.6583 11.0416 54.0011 11.1862C49.3439 11.3308 45.6151 12.1487 45.6724 13.0131L45.5728 16.8672C45.6301 17.7316 49.4521 18.315 54.1092 18.1704Z" fill="#E0E4EC" stroke="#6E7E92" stroke-width="0.6" stroke-linecap="round" stroke-linejoin="round"/>
<path d="M62.5367 12.4894C62.5788 13.1233 58.8652 14.1716 54.208 14.3163C49.5508 14.4609 45.7289 13.8774 45.6716 13.0131C45.6142 12.1487 49.3431 11.3308 54.0002 11.1862C58.6574 11.0416 62.4915 11.8081 62.5367 12.4894Z" fill="#EFF1F6" stroke="#6E7E92" stroke-width="0.6" stroke-linecap="round" stroke-linejoin="round"/>
<path d="M110.815 12.6199C114.568 12.5033 118.605 11.4279 118.566 10.8419L118.605 7.3685C118.563 6.73875 115.02 6.03018 110.714 6.16387C106.41 6.29755 102.963 7.05363 103.016 7.85262L102.924 11.4152C102.976 12.2143 106.51 12.7536 110.815 12.6199Z" fill="#E0E4EC" stroke="#6E7E92" stroke-width="0.6" stroke-linecap="round" stroke-linejoin="round"/>
<path d="M118.606 7.36801C118.644 7.95403 115.212 8.92308 110.906 9.05673C106.602 9.19046 103.069 8.65108 103.016 7.85213C102.963 7.05314 106.41 6.29706 110.715 6.16338C115.019 6.0297 118.564 6.73826 118.606 7.36801Z" fill="#EFF1F6" stroke="#6E7E92" stroke-width="0.6" stroke-linecap="round" stroke-linejoin="round"/>
</svg>
