<svg width="192" height="80" viewBox="0 0 192 80" fill="none" xmlns="http://www.w3.org/2000/svg">
<path d="M19.1842 51.4487L17.094 51.2587C17.0221 49.627 16.7785 48.0856 16.7808 46.8882C16.7833 45.5366 17.0992 44.6232 18.3291 44.513L33.1507 41.4727V48.5034L19.1842 51.4487Z" fill="#C9CFDB"/>
<path d="M19.1842 51.4487L17.094 51.2587C17.0221 49.627 16.7785 48.0856 16.7808 46.8882M19.1842 51.4487L33.1507 48.5034V41.4727L18.3291 44.513C17.0992 44.6232 16.7833 45.5366 16.7808 46.8882M19.1842 51.4487C19.1231 49.8316 18.9255 48.3312 18.9488 47.1733M16.7808 46.8882L18.9488 47.1733M18.9488 47.1733C18.9746 45.8911 19.2714 45.0289 20.3243 44.893" stroke="#6E7E92" stroke-width="0.6" stroke-linecap="round" stroke-linejoin="round"/>
<path d="M33.1499 49.7386V41.4727L59.7527 42.5178L55.9523 51.4488L33.1499 49.7386Z" fill="#6E7E92" stroke="#6E7E92" stroke-width="0.6" stroke-linecap="round" stroke-linejoin="round"/>
<path d="M24.4091 58.4794C27.1901 58.4794 29.4446 55.0764 29.4446 50.8786C29.4446 46.6808 27.1901 43.2778 24.4091 43.2778C21.628 43.2778 19.3735 46.6808 19.3735 50.8786C19.3735 55.0764 21.628 58.4794 24.4091 58.4794Z" fill="#C9CFDB" stroke="#6E7E92" stroke-width="0.6" stroke-linecap="round" stroke-linejoin="round"/>
<path d="M30.5851 50.4987C29.73 54.6791 28.1732 58.3845 25.5495 58.3845C21.6541 58.3845 20.894 54.6965 20.894 50.4987C20.894 46.3008 23.2109 42.8979 25.8346 42.8979C28.4582 42.8979 30.5851 46.3008 30.5851 50.4987Z" fill="#C9CFDB" stroke="#6E7E92" stroke-width="0.6" stroke-linecap="round" stroke-linejoin="round"/>
<path d="M24.124 50.7834C24.124 52.0952 24.8472 53.1587 25.7392 53.1587L44.2661 54.9639L45.1212 50.3084L25.7392 48.4082C24.8472 48.4082 24.124 49.4716 24.124 50.7834Z" fill="#C9CFDB" stroke="#6E7E92" stroke-width="0.6" stroke-linecap="round" stroke-linejoin="round"/>
<path d="M50.1568 53.1589C50.1568 57.3567 47.7024 60.8547 45.0263 60.8547C42.3502 60.8547 40.4658 57.3567 40.4658 53.1589C40.4658 48.9611 42.6352 45.5581 45.3113 45.5581C47.9874 45.5581 50.1568 48.9611 50.1568 53.1589Z" fill="#C9CFDB" stroke="#6E7E92" stroke-width="0.6" stroke-linecap="round" stroke-linejoin="round"/>
<path d="M70.4602 51.9515C69.9383 55.9853 67.1647 59.044 64.6148 58.7141C62.0649 58.3842 60.7043 54.7905 61.2262 50.7567C61.7481 46.7229 64.2383 43.7203 66.7882 44.0502C69.3381 44.3802 70.9821 47.9177 70.4602 51.9515Z" fill="#C9CFDB" stroke="#6E7E92" stroke-width="0.6" stroke-linecap="round" stroke-linejoin="round"/>
<path d="M50.9171 53.1589C50.9171 57.3567 48.4627 60.8547 45.7866 60.8547C43.1105 60.8547 41.2261 57.3567 41.2261 53.1589C41.2261 48.9611 43.3955 45.5581 46.0716 45.5581C48.7477 45.5581 50.9171 48.9611 50.9171 53.1589Z" fill="#C9CFDB" stroke="#6E7E92" stroke-width="0.6" stroke-linecap="round" stroke-linejoin="round"/>
<path d="M71.2136 52.049C70.6916 56.0828 67.918 59.1416 65.3681 58.8116C62.8182 58.4817 61.4576 54.888 61.9796 50.8542C62.5015 46.8204 64.9917 43.8178 67.5416 44.1478C70.0915 44.4777 71.7355 48.0152 71.2136 52.049Z" fill="#C9CFDB" stroke="#6E7E92" stroke-width="0.6" stroke-linecap="round" stroke-linejoin="round"/>
<path d="M51.0118 53.3999C51.0118 57.3109 48.7316 60.5699 47.6865 60.5699C45.0104 60.5699 43.126 57.3109 43.126 53.3999C43.126 49.4889 45.2954 46.3184 47.9715 46.3184C50.2517 46.3184 51.0118 49.4889 51.0118 53.3999Z" fill="#C9CFDB" stroke="#6E7E92" stroke-width="0.6" stroke-linecap="round" stroke-linejoin="round"/>
<path d="M71.1886 52.2413C70.7068 55.9648 68.1802 58.7926 67.2061 58.6666C64.712 58.3439 63.3573 55.0139 63.8391 51.2903C64.3209 47.5668 66.7333 44.8099 69.2274 45.1326C71.3525 45.4076 71.6704 48.5178 71.1886 52.2413Z" fill="#C9CFDB" stroke="#6E7E92" stroke-width="0.6" stroke-linecap="round" stroke-linejoin="round"/>
<path d="M48.38 54.9641L46.2898 54.7741C46.2179 53.1424 45.9743 51.6011 45.9766 50.4037C45.9791 49.052 46.295 48.1387 47.5249 48.0284L57.3778 46.0332V44.228H59.658V46.3182L49.5201 48.4085C48.4672 48.5443 48.1704 49.4066 48.1446 50.6887C48.1213 51.8466 48.3189 53.3471 48.38 54.9641Z" fill="#C9CFDB"/>
<path d="M48.1446 50.6887C48.1213 51.8466 48.3189 53.3471 48.38 54.9641L46.2898 54.7741C46.2179 53.1424 45.9743 51.6011 45.9766 50.4037M48.1446 50.6887C48.1704 49.4066 48.4672 48.5443 49.5201 48.4085L59.658 46.3182V44.228H57.3778V46.0332L47.5249 48.0284C46.295 48.1387 45.9791 49.052 45.9766 50.4037M48.1446 50.6887L45.9766 50.4037" stroke="#6E7E92" stroke-width="0.6" stroke-linecap="round" stroke-linejoin="round"/>
<path d="M48.1445 50.6887C48.1212 51.8466 48.3188 53.347 48.3799 54.9641H49.52V50.7837L53.1972 50.3086L56.8076 58.0044L65.2635 56.9593L69.0639 48.4084L72.6743 48.0284L72.7693 52.3038L73.3393 52.1138C73.6413 49.4142 75.0495 45.7481 72.9593 45.7481L62.7932 45.9382V43.7529L59.6579 44.228V46.3182L49.52 48.4084C48.467 48.5443 48.1703 49.4065 48.1445 50.6887Z" fill="#C9CFDB" stroke="#6E7E92" stroke-width="0.6" stroke-linecap="round" stroke-linejoin="round"/>
<path d="M72.6743 48.0283L72.7693 52.3038V53.9118L69.2919 54.2665L66.8081 53.484L65.2635 56.9592L56.8076 58.0044L54.4474 57.6502L53.1972 54.7821L49.52 54.964V50.7836L53.1972 50.3086L56.8076 58.0044L65.2635 56.9592L66.8081 53.484L69.0639 48.4084L72.6743 48.0283Z" fill="#C9CFDB"/>
<path d="M56.8076 58.0044L65.2635 56.9592L66.8081 53.484M56.8076 58.0044L53.1972 50.3086L49.52 50.7836V54.964L53.1972 54.7821L54.4474 57.6502L56.8076 58.0044ZM66.8081 53.484L69.0639 48.4084L72.6743 48.0283L72.7693 52.3038V53.9118L69.2919 54.2665L66.8081 53.484Z" stroke="#6E7E92" stroke-width="0.6" stroke-linecap="round" stroke-linejoin="round"/>
<path d="M49.7769 53.8239C49.7769 55.0308 50.4149 56.0092 51.202 56.0092H52.1521C52.9392 56.0092 53.5773 55.0308 53.5773 53.8239C53.5773 52.6171 52.9392 51.6387 52.1521 51.6387H51.202C50.4149 51.6387 49.7769 52.6171 49.7769 53.8239Z" fill="#C9CFDB" stroke="#6E7E92" stroke-width="0.6" stroke-linecap="round" stroke-linejoin="round"/>
<path d="M69.5391 51.3537C69.5391 52.5606 70.1452 53.539 70.893 53.539H71.7955C72.5433 53.539 73.1494 52.5606 73.1494 51.3537C73.1494 50.1469 72.5433 49.1685 71.7955 49.1685H70.893C70.1452 49.1685 69.5391 50.1469 69.5391 51.3537Z" fill="#C9CFDB" stroke="#6E7E92" stroke-width="0.6" stroke-linecap="round" stroke-linejoin="round"/>
<path d="M52.1522 56.0091C52.9393 56.0091 53.5774 55.0308 53.5774 53.8239C53.5774 52.617 52.9393 51.6387 52.1522 51.6387C51.3651 51.6387 50.7271 52.617 50.7271 53.8239C50.7271 55.0308 51.3651 56.0091 52.1522 56.0091Z" fill="#C9CFDB" stroke="#6E7E92" stroke-width="0.6" stroke-linecap="round" stroke-linejoin="round"/>
<path d="M71.8194 53.5389C72.554 53.5389 73.1495 52.5606 73.1495 51.3537C73.1495 50.1468 72.554 49.1685 71.8194 49.1685C71.0848 49.1685 70.4893 50.1468 70.4893 51.3537C70.4893 52.5606 71.0848 53.5389 71.8194 53.5389Z" fill="#C9CFDB" stroke="#6E7E92" stroke-width="0.6" stroke-linecap="round" stroke-linejoin="round"/>
<path d="M122.848 39.8921L120.775 39.7104C120.703 38.1505 120.462 36.677 120.464 35.5323C120.466 34.2401 120.78 33.367 122 33.2615L136.705 30.355V37.0764L122.848 39.8921Z" fill="#C9CFDB"/>
<path d="M122.848 39.8921L120.775 39.7104C120.703 38.1505 120.462 36.677 120.464 35.5323M122.848 39.8921L136.705 37.0764V30.355L122 33.2615C120.78 33.367 120.466 34.2401 120.464 35.5323M122.848 39.8921C122.788 38.3461 122.592 36.9117 122.615 35.8048M120.464 35.5323L122.615 35.8048M122.615 35.8048C122.64 34.5791 122.935 33.7547 123.979 33.6249" stroke="#6E7E92" stroke-width="0.6" stroke-linecap="round" stroke-linejoin="round"/>
<path d="M136.704 38.2576V30.3555L163.097 31.3546L159.327 39.8925L136.704 38.2576Z" fill="#6E7E92" stroke="#6E7E92" stroke-width="0.6" stroke-linecap="round" stroke-linejoin="round"/>
<path d="M128.033 46.6137C130.792 46.6137 133.029 43.3604 133.029 39.3474C133.029 35.3343 130.792 32.0811 128.033 32.0811C125.274 32.0811 123.037 35.3343 123.037 39.3474C123.037 43.3604 125.274 46.6137 128.033 46.6137Z" fill="#C9CFDB" stroke="#6E7E92" stroke-width="0.6" stroke-linecap="round" stroke-linejoin="round"/>
<path d="M134.16 38.9841C133.312 42.9806 131.767 46.5229 129.164 46.5229C125.299 46.5229 124.545 42.9972 124.545 38.9841C124.545 34.971 126.844 31.7178 129.447 31.7178C132.05 31.7178 134.16 34.971 134.16 38.9841Z" fill="#C9CFDB" stroke="#6E7E92" stroke-width="0.6" stroke-linecap="round" stroke-linejoin="round"/>
<path d="M127.75 39.2565C127.75 40.5106 128.467 41.5273 129.352 41.5273L147.733 43.253L148.581 38.8024L129.352 36.9858C128.467 36.9858 127.75 38.0025 127.75 39.2565Z" fill="#C9CFDB" stroke="#6E7E92" stroke-width="0.6" stroke-linecap="round" stroke-linejoin="round"/>
<path d="M153.577 41.527C153.577 45.5401 151.142 48.8842 148.487 48.8842C145.832 48.8842 143.962 45.5401 143.962 41.527C143.962 37.514 146.114 34.2607 148.769 34.2607C151.424 34.2607 153.577 37.514 153.577 41.527Z" fill="#C9CFDB" stroke="#6E7E92" stroke-width="0.6" stroke-linecap="round" stroke-linejoin="round"/>
<path d="M173.72 40.3731C173.202 44.2294 170.45 47.1536 167.92 46.8382C165.391 46.5228 164.041 43.0872 164.559 39.2309C165.076 35.3746 167.547 32.5042 170.077 32.8196C172.606 33.135 174.237 36.5169 173.72 40.3731Z" fill="#C9CFDB" stroke="#6E7E92" stroke-width="0.6" stroke-linecap="round" stroke-linejoin="round"/>
<path d="M154.331 41.527C154.331 45.5401 151.896 48.8842 149.241 48.8842C146.586 48.8842 144.717 45.5401 144.717 41.527C144.717 37.514 146.869 34.2607 149.524 34.2607C152.179 34.2607 154.331 37.514 154.331 41.527Z" fill="#C9CFDB" stroke="#6E7E92" stroke-width="0.6" stroke-linecap="round" stroke-linejoin="round"/>
<path d="M174.468 40.4664C173.95 44.3227 171.198 47.2468 168.668 46.9314C166.139 46.616 164.789 43.1805 165.307 39.3242C165.824 35.4679 168.295 32.5975 170.825 32.9129C173.354 33.2283 174.985 36.6101 174.468 40.4664Z" fill="#C9CFDB" stroke="#6E7E92" stroke-width="0.6" stroke-linecap="round" stroke-linejoin="round"/>
<path d="M154.425 41.7572C154.425 45.4961 152.163 48.6116 151.126 48.6116C148.471 48.6116 146.601 45.4961 146.601 41.7572C146.601 38.0183 148.754 34.9873 151.409 34.9873C153.671 34.9873 154.425 38.0183 154.425 41.7572Z" fill="#C9CFDB" stroke="#6E7E92" stroke-width="0.6" stroke-linecap="round" stroke-linejoin="round"/>
<path d="M174.443 40.6499C173.965 44.2096 171.458 46.913 170.492 46.7925C168.017 46.484 166.673 43.3005 167.151 39.7408C167.629 36.1812 170.023 33.5456 172.497 33.8541C174.606 34.117 174.921 37.0903 174.443 40.6499Z" fill="#C9CFDB" stroke="#6E7E92" stroke-width="0.6" stroke-linecap="round" stroke-linejoin="round"/>
<path d="M151.814 43.2529L149.74 43.0713C149.669 41.5114 149.427 40.0379 149.43 38.8932C149.432 37.601 149.746 36.7278 150.966 36.6224L160.741 34.715V32.9893H163.003V34.9875L152.945 36.9858C151.901 37.1156 151.606 37.9399 151.581 39.1656C151.557 40.2726 151.754 41.707 151.814 43.2529Z" fill="#C9CFDB"/>
<path d="M151.581 39.1656C151.557 40.2726 151.754 41.707 151.814 43.2529L149.74 43.0713C149.669 41.5114 149.427 40.0379 149.43 38.8932M151.581 39.1656C151.606 37.9399 151.901 37.1156 152.945 36.9858L163.003 34.9875V32.9893H160.741V34.715L150.966 36.6224C149.746 36.7278 149.432 37.601 149.43 38.8932M151.581 39.1656L149.43 38.8932" stroke="#6E7E92" stroke-width="0.6" stroke-linecap="round" stroke-linejoin="round"/>
<path d="M151.581 39.1657C151.557 40.2727 151.753 41.707 151.814 43.253H152.945V39.2565L156.593 38.8024L160.175 46.1595L168.564 45.1604L172.335 36.9858L175.917 36.6225L176.011 40.7098L176.576 40.5281C176.876 37.9473 178.273 34.4426 176.199 34.4426L166.114 34.6242V32.5352L163.003 32.9893V34.9875L152.945 36.9858C151.901 37.1157 151.606 37.94 151.581 39.1657Z" fill="#C9CFDB" stroke="#6E7E92" stroke-width="0.6" stroke-linecap="round" stroke-linejoin="round"/>
<path d="M175.916 36.6226L176.01 40.7099V42.2471L172.561 42.5862L170.096 41.8381L168.564 45.1605L160.175 46.1596L157.833 45.821L156.593 43.0791L152.945 43.2531V39.2566L156.593 38.8025L160.175 46.1596L168.564 45.1605L170.096 41.8381L172.334 36.9859L175.916 36.6226Z" fill="#C9CFDB"/>
<path d="M160.175 46.1596L168.564 45.1605L170.096 41.8381M160.175 46.1596L156.593 38.8025L152.945 39.2566V43.2531L156.593 43.0791L157.833 45.821L160.175 46.1596ZM170.096 41.8381L172.334 36.9859L175.916 36.6226L176.01 40.7099V42.2471L172.561 42.5862L170.096 41.8381Z" stroke="#6E7E92" stroke-width="0.6" stroke-linecap="round" stroke-linejoin="round"/>
<path d="M153.2 42.1632C153.2 43.317 153.833 44.2523 154.614 44.2523H155.556C156.337 44.2523 156.97 43.317 156.97 42.1632C156.97 41.0095 156.337 40.0742 155.556 40.0742H154.614C153.833 40.0742 153.2 41.0095 153.2 42.1632Z" fill="#C9CFDB" stroke="#6E7E92" stroke-width="0.6" stroke-linecap="round" stroke-linejoin="round"/>
<path d="M172.806 39.8014C172.806 40.9552 173.407 41.8905 174.149 41.8905H175.045C175.786 41.8905 176.388 40.9552 176.388 39.8014C176.388 38.6477 175.786 37.7124 175.045 37.7124H174.149C173.407 37.7124 172.806 38.6477 172.806 39.8014Z" fill="#C9CFDB" stroke="#6E7E92" stroke-width="0.6" stroke-linecap="round" stroke-linejoin="round"/>
<path d="M155.556 44.2519C156.337 44.2519 156.97 43.3165 156.97 42.1628C156.97 41.009 156.337 40.0737 155.556 40.0737C154.775 40.0737 154.142 41.009 154.142 42.1628C154.142 43.3165 154.775 44.2519 155.556 44.2519Z" fill="#C9CFDB" stroke="#6E7E92" stroke-width="0.6" stroke-linecap="round" stroke-linejoin="round"/>
<path d="M175.068 41.8905C175.797 41.8905 176.388 40.9552 176.388 39.8015C176.388 38.6477 175.797 37.7124 175.068 37.7124C174.339 37.7124 173.749 38.6477 173.749 39.8015C173.749 40.9552 174.339 41.8905 175.068 41.8905Z" fill="#C9CFDB" stroke="#6E7E92" stroke-width="0.6" stroke-linecap="round" stroke-linejoin="round"/>
<path d="M46.3564 38.7175L188.491 22.9458V29.5015L161.318 32.7165L144.027 39.2876L89.1109 45.8432L71.059 43.3956L46.3564 46.3183V38.7175Z" fill="#C9CFDB" stroke="#6E7E92" stroke-width="0.6" stroke-linecap="round" stroke-linejoin="round"/>
<path d="M188.491 22.9458L46.3564 38.7175V40.2377L188.491 24.276V22.9458Z" fill="#9EA9B9" stroke="#6E7E92" stroke-width="0.6" stroke-linecap="round" stroke-linejoin="round"/>
<path d="M46.3574 38.7175L188.492 22.9459L144.978 19.1455L6.26318 34.9171L46.3574 38.7175Z" fill="#C9CFDB" stroke="#6E7E92" stroke-width="0.6" stroke-linecap="round" stroke-linejoin="round"/>
<path d="M46.3574 38.7175L188.492 22.9459L176.711 21.917L158.944 20.3653L144.978 19.1455L6.26318 34.9171L18.8045 36.1059L46.3574 38.7175Z" fill="#C9CFDB"/>
<path d="M37.0464 37.8624L176.711 21.917M176.711 21.917L188.492 22.9459L46.3574 38.7175L18.8045 36.1059M176.711 21.917L158.944 20.3653M18.8045 36.1059L6.26318 34.9171L144.978 19.1455L158.944 20.3653M18.8045 36.1059L158.944 20.3653" stroke="#6E7E92" stroke-width="0.6" stroke-linecap="round" stroke-linejoin="round"/>
<path d="M46.3569 38.7174L6.2627 34.917V41.8527L46.3569 46.3182V38.7174Z" fill="#C9CFDB" stroke="#6E7E92" stroke-width="0.6" stroke-linecap="round" stroke-linejoin="round"/>
<path d="M5.50302 35.8672L9.30342 39.2876L6.54813 39.0026L3.50781 35.8672H5.50302Z" fill="#C9CFDB" stroke="#6E7E92" stroke-width="0.6" stroke-linecap="round" stroke-linejoin="round"/>
<path d="M14.1485 36.9121L17.9489 40.3325L15.1936 40.0474L12.1533 36.9121H14.1485Z" fill="#C9CFDB" stroke="#6E7E92" stroke-width="0.6" stroke-linecap="round" stroke-linejoin="round"/>
<path d="M31.8531 38.7173L35.7158 42.3277L32.9154 42.0268L29.8252 38.7173H31.8531Z" fill="#C9CFDB" stroke="#6E7E92" stroke-width="0.6" stroke-linecap="round" stroke-linejoin="round"/>
<path d="M40.4049 39.6675L44.2676 43.2778L41.4671 42.977L38.377 39.6675H40.4049Z" fill="#C9CFDB" stroke="#6E7E92" stroke-width="0.6" stroke-linecap="round" stroke-linejoin="round"/>
<path d="M5.50342 35.8671L9.30382 39.2875L9.77886 39.0975L9.68386 35.3921L5.50342 35.8671Z" fill="#C9CFDB" stroke="#6E7E92" stroke-width="0.6" stroke-linecap="round" stroke-linejoin="round"/>
<path d="M14.1489 36.9125L17.9493 40.3329L18.4244 40.1428L18.3294 36.4375L14.1489 36.9125Z" fill="#C9CFDB" stroke="#6E7E92" stroke-width="0.6" stroke-linecap="round" stroke-linejoin="round"/>
<path d="M31.916 38.824L35.8009 42.3278L36.2865 42.1332L36.1894 38.3374L31.916 38.824Z" fill="#C9CFDB" stroke="#6E7E92" stroke-width="0.6" stroke-linecap="round" stroke-linejoin="round"/>
<path d="M40.4663 39.7742L44.3512 43.278L44.8368 43.0834L44.7396 39.2876L40.4663 39.7742Z" fill="#C9CFDB" stroke="#6E7E92" stroke-width="0.6" stroke-linecap="round" stroke-linejoin="round"/>
<path d="M5.50302 35.8672H3.50781L6.45312 35.2021L9.68346 35.3922L5.50302 35.8672Z" fill="#C9CFDB" stroke="#6E7E92" stroke-width="0.6" stroke-linecap="round" stroke-linejoin="round"/>
<path d="M14.1485 36.9122H12.1533L15.0986 36.2471L18.329 36.4372L14.1485 36.9122Z" fill="#C9CFDB" stroke="#6E7E92" stroke-width="0.6" stroke-linecap="round" stroke-linejoin="round"/>
<path d="M31.8511 38.7176H29.8252L32.8158 38.1475L36.0959 38.3104L31.8511 38.7176Z" fill="#C9CFDB" stroke="#6E7E92" stroke-width="0.6" stroke-linecap="round" stroke-linejoin="round"/>
<path d="M40.4029 39.6678H38.377L41.3676 39.0977L44.6476 39.2606L40.4029 39.6678Z" fill="#C9CFDB" stroke="#6E7E92" stroke-width="0.6" stroke-linecap="round" stroke-linejoin="round"/>
<path d="M53.1987 41.1876V39.4775L57.7592 39.0024V41.6627L53.1987 41.1876Z" fill="#C9CFDB" stroke="#6E7E92" stroke-width="0.6" stroke-linecap="round" stroke-linejoin="round"/>
<path d="M69.979 39.2831V37.6075L74.4471 37.1421V39.7485L69.979 39.2831Z" fill="#C9CFDB" stroke="#6E7E92" stroke-width="0.6" stroke-linecap="round" stroke-linejoin="round"/>
<path d="M87.3232 37.3053V35.6575L91.7175 35.1997V37.763L87.3232 37.3053Z" fill="#C9CFDB" stroke="#6E7E92" stroke-width="0.6" stroke-linecap="round" stroke-linejoin="round"/>
<path d="M105.903 35.1231V33.5953L109.977 33.1709V35.5475L105.903 35.1231Z" fill="#C9CFDB" stroke="#6E7E92" stroke-width="0.6" stroke-linecap="round" stroke-linejoin="round"/>
<path d="M123.428 33.1278V31.6738L127.306 31.27V33.5317L123.428 33.1278Z" fill="#C9CFDB" stroke="#6E7E92" stroke-width="0.6" stroke-linecap="round" stroke-linejoin="round"/>
<path d="M141.594 31.0458V29.5919L145.471 29.188V31.4497L141.594 31.0458Z" fill="#C9CFDB" stroke="#6E7E92" stroke-width="0.6" stroke-linecap="round" stroke-linejoin="round"/>
<path d="M159.017 28.938V27.5803L162.638 27.2031V29.3151L159.017 28.938Z" fill="#C9CFDB" stroke="#6E7E92" stroke-width="0.6" stroke-linecap="round" stroke-linejoin="round"/>
<path d="M176.382 26.8779V25.5821L179.837 25.2222V27.2378L176.382 26.8779Z" fill="#C9CFDB" stroke="#6E7E92" stroke-width="0.6" stroke-linecap="round" stroke-linejoin="round"/>
<path d="M59.0889 41.4728V38.8125L57.7588 39.0025V41.6628L59.0889 41.4728Z" fill="#C9CFDB" stroke="#6E7E92" stroke-width="0.6" stroke-linecap="round" stroke-linejoin="round"/>
<path d="M75.7505 39.562V36.9556L74.4473 37.1417V39.7481L75.7505 39.562Z" fill="#C9CFDB" stroke="#6E7E92" stroke-width="0.6" stroke-linecap="round" stroke-linejoin="round"/>
<path d="M92.9985 37.5799V35.0166L91.7168 35.1997V37.763L92.9985 37.5799Z" fill="#C9CFDB" stroke="#6E7E92" stroke-width="0.6" stroke-linecap="round" stroke-linejoin="round"/>
<path d="M111.166 35.3776V33.001L109.978 33.1707V35.5473L111.166 35.3776Z" fill="#C9CFDB" stroke="#6E7E92" stroke-width="0.6" stroke-linecap="round" stroke-linejoin="round"/>
<path d="M128.437 33.3701V31.1084L127.306 31.27V33.5317L128.437 33.3701Z" fill="#C9CFDB" stroke="#6E7E92" stroke-width="0.6" stroke-linecap="round" stroke-linejoin="round"/>
<path d="M146.602 31.2881V29.0264L145.471 29.1879V31.4496L146.602 31.2881Z" fill="#C9CFDB" stroke="#6E7E92" stroke-width="0.6" stroke-linecap="round" stroke-linejoin="round"/>
<path d="M163.694 29.1643V27.0522L162.638 27.2031V29.3151L163.694 29.1643Z" fill="#C9CFDB" stroke="#6E7E92" stroke-width="0.6" stroke-linecap="round" stroke-linejoin="round"/>
<path d="M180.845 27.0938V25.0781L179.837 25.2221V27.2377L180.845 27.0938Z" fill="#C9CFDB" stroke="#6E7E92" stroke-width="0.6" stroke-linecap="round" stroke-linejoin="round"/>
</svg>
