<svg width="192" height="80" viewBox="0 0 192 80" fill="none" xmlns="http://www.w3.org/2000/svg">
<path d="M50.3243 16.2998L16.2407 13.8633L44.4557 57.1362L77.2314 58.1704L50.3243 16.2998Z" fill="#9EA9B9" stroke="#6E7E92" stroke-width="0.6" stroke-linecap="round" stroke-linejoin="round"/>
<path d="M31.6441 68.01L29.8665 67.8484C29.8054 66.4607 29.5982 65.1499 29.6001 64.1315C29.6023 62.982 29.8709 62.2053 30.9169 62.1115L43.5219 59.5259V65.5052L31.6441 68.01Z" fill="#C9CFDB"/>
<path d="M31.6441 68.01L29.8665 67.8484C29.8054 66.4607 29.5982 65.1499 29.6001 64.1316M31.6441 68.01L43.5219 65.5052V59.5259L30.9169 62.1115C29.8709 62.2053 29.6023 62.982 29.6001 64.1316M31.6441 68.01C31.5922 66.6348 31.4241 65.3587 31.4439 64.374M29.6001 64.1316L31.4439 64.374M31.4439 64.374C31.4659 63.2836 31.7182 62.5503 32.6137 62.4347" stroke="#6E7E92" stroke-width="0.6" stroke-linecap="round" stroke-linejoin="round"/>
<path d="M43.5215 66.5556V59.5259L66.1458 60.4147L62.9138 68.0101L43.5215 66.5556Z" fill="#C9CFDB" stroke="#6E7E92" stroke-width="0.6" stroke-linecap="round" stroke-linejoin="round"/>
<path d="M36.0872 73.9892C38.4523 73.9892 40.3696 71.0952 40.3696 67.5251C40.3696 63.9551 38.4523 61.061 36.0872 61.061C33.722 61.061 31.8047 63.9551 31.8047 67.5251C31.8047 71.0952 33.722 73.9892 36.0872 73.9892Z" fill="#C9CFDB" stroke="#6E7E92" stroke-width="0.6" stroke-linecap="round" stroke-linejoin="round"/>
<path d="M41.3394 67.2019C40.6122 70.7571 39.2882 73.9084 37.0569 73.9084C33.7441 73.9084 33.0977 70.7719 33.0977 67.2019C33.0977 63.6319 35.0681 60.7378 37.2993 60.7378C39.5306 60.7378 41.3394 63.6319 41.3394 67.2019Z" fill="#C9CFDB" stroke="#6E7E92" stroke-width="0.6" stroke-linecap="round" stroke-linejoin="round"/>
<path d="M35.8457 67.4443C35.8457 68.5599 36.4607 69.4643 37.2193 69.4643L52.9755 70.9996L53.7027 67.0403L37.2193 65.4243C36.4607 65.4243 35.8457 66.3287 35.8457 67.4443Z" fill="#C9CFDB" stroke="#6E7E92" stroke-width="0.6" stroke-linecap="round" stroke-linejoin="round"/>
<path d="M57.9849 69.4646C57.9849 73.0346 55.8976 76.0095 53.6217 76.0095C51.3458 76.0095 49.7432 73.0346 49.7432 69.4646C49.7432 65.8946 51.5882 63.0005 53.8641 63.0005C56.14 63.0005 57.9849 65.8946 57.9849 69.4646Z" fill="#C9CFDB" stroke="#6E7E92" stroke-width="0.6" stroke-linecap="round" stroke-linejoin="round"/>
<path d="M75.2508 68.4379C74.8069 71.8685 72.4481 74.4698 70.2795 74.1892C68.1109 73.9086 66.9538 70.8523 67.3977 67.4218C67.8416 63.9912 69.9594 61.4377 72.1279 61.7183C74.2965 61.9989 75.6946 65.0073 75.2508 68.4379Z" fill="#C9CFDB" stroke="#6E7E92" stroke-width="0.6" stroke-linecap="round" stroke-linejoin="round"/>
<path d="M58.6309 69.4646C58.6309 73.0346 56.5435 76.0095 54.2676 76.0095C51.9917 76.0095 50.3892 73.0346 50.3892 69.4646C50.3892 65.8946 52.2341 63.0005 54.51 63.0005C56.7859 63.0005 58.6309 65.8946 58.6309 69.4646Z" fill="#C9CFDB" stroke="#6E7E92" stroke-width="0.6" stroke-linecap="round" stroke-linejoin="round"/>
<path d="M75.8923 68.5206C75.4484 71.9511 73.0896 74.5524 70.9211 74.2718C68.7525 73.9912 67.5954 70.935 68.0393 67.5045C68.4831 64.0739 70.6009 61.5203 72.7695 61.8009C74.9381 62.0815 76.3362 65.09 75.8923 68.5206Z" fill="#C9CFDB" stroke="#6E7E92" stroke-width="0.6" stroke-linecap="round" stroke-linejoin="round"/>
<path d="M58.7114 69.669C58.7114 72.9951 56.7722 75.7667 55.8833 75.7667C53.6075 75.7667 52.0049 72.9951 52.0049 69.669C52.0049 66.3429 53.8499 63.6465 56.1257 63.6465C58.065 63.6465 58.7114 66.3429 58.7114 69.669Z" fill="#C9CFDB" stroke="#6E7E92" stroke-width="0.6" stroke-linecap="round" stroke-linejoin="round"/>
<path d="M75.871 68.684C75.4613 71.8507 73.3125 74.2556 72.4841 74.1484C70.363 73.874 69.2109 71.0419 69.6206 67.8753C70.0304 64.7086 72.082 62.364 74.2031 62.6385C76.0105 62.8723 76.2807 65.5173 75.871 68.684Z" fill="#C9CFDB" stroke="#6E7E92" stroke-width="0.6" stroke-linecap="round" stroke-linejoin="round"/>
<path d="M56.4732 70.9997L54.6955 70.8381C54.6344 69.4504 54.4272 68.1395 54.4292 67.1212C54.4314 65.9717 54.7 65.195 55.746 65.1012L64.1253 63.4044V61.8691H66.0645V63.6468L57.4428 65.4244C56.5473 65.5399 56.2949 66.2732 56.273 67.3636C56.2531 68.3484 56.4212 69.6244 56.4732 70.9997Z" fill="#C9CFDB"/>
<path d="M56.273 67.3636C56.2531 68.3484 56.4212 69.6244 56.4732 70.9997L54.6955 70.8381C54.6344 69.4504 54.4272 68.1395 54.4292 67.1212M56.273 67.3636C56.2949 66.2732 56.5473 65.5399 57.4428 65.4244L66.0645 63.6468V61.8691H64.1253V63.4044L55.746 65.1012C54.7 65.195 54.4314 65.9717 54.4292 67.1212M56.273 67.3636L54.4292 67.1212" stroke="#6E7E92" stroke-width="0.6" stroke-linecap="round" stroke-linejoin="round"/>
<path d="M56.2736 67.3633C56.2538 68.3481 56.4218 69.6241 56.4738 70.9994H57.4434V67.4441L60.5707 67.0401L63.6411 73.585L70.8325 72.6962L74.0645 65.4241L77.135 65.1009L77.2158 68.737L77.7006 68.5754C77.9573 66.2795 79.155 63.1617 77.3774 63.1617L68.7316 63.3233V61.4648L66.0652 61.8688V63.6465L57.4434 65.4241C56.5479 65.5396 56.2956 66.273 56.2736 67.3633Z" fill="#C9CFDB" stroke="#6E7E92" stroke-width="0.6" stroke-linecap="round" stroke-linejoin="round"/>
<path d="M77.1344 65.1011L77.2152 68.7372V70.1047L74.2579 70.4064L72.1455 69.7409L70.8319 72.6964L63.6406 73.5853L61.6334 73.284L60.5702 70.8449L57.4429 70.9996V67.4444L60.5702 67.0404L63.6406 73.5853L70.8319 72.6964L72.1455 69.7409L74.064 65.4243L77.1344 65.1011Z" fill="#C9CFDB"/>
<path d="M63.6406 73.5853L70.8319 72.6964L72.1455 69.7409M63.6406 73.5853L60.5702 67.0404L57.4429 67.4444V70.9996L60.5702 70.8449L61.6334 73.284L63.6406 73.5853ZM72.1455 69.7409L74.064 65.4243L77.1344 65.1011L77.2152 68.7372V70.1047L74.2579 70.4064L72.1455 69.7409Z" stroke="#6E7E92" stroke-width="0.6" stroke-linecap="round" stroke-linejoin="round"/>
<path d="M57.6616 70.0298C57.6616 71.0562 58.2042 71.8883 58.8736 71.8883H59.6816C60.351 71.8883 60.8936 71.0562 60.8936 70.0298C60.8936 69.0035 60.351 68.1714 59.6816 68.1714H58.8736C58.2042 68.1714 57.6616 69.0035 57.6616 70.0298Z" fill="#C9CFDB" stroke="#6E7E92" stroke-width="0.6" stroke-linecap="round" stroke-linejoin="round"/>
<path d="M74.4683 67.9293C74.4683 68.9557 74.9838 69.7877 75.6197 69.7877H76.3873C77.0232 69.7877 77.5388 68.9557 77.5388 67.9293C77.5388 66.9029 77.0232 66.0708 76.3873 66.0708H75.6197C74.9838 66.0708 74.4683 66.9029 74.4683 67.9293Z" fill="#C9CFDB" stroke="#6E7E92" stroke-width="0.6" stroke-linecap="round" stroke-linejoin="round"/>
<path d="M59.6808 71.8882C60.3502 71.8882 60.8928 71.0562 60.8928 70.0298C60.8928 69.0034 60.3502 68.1714 59.6808 68.1714C59.0114 68.1714 58.4688 69.0034 58.4688 70.0298C58.4688 71.0562 59.0114 71.8882 59.6808 71.8882Z" fill="#C9CFDB" stroke="#6E7E92" stroke-width="0.6" stroke-linecap="round" stroke-linejoin="round"/>
<path d="M76.4071 69.7877C77.0319 69.7877 77.5383 68.9556 77.5383 67.9292C77.5383 66.9028 77.0319 66.0708 76.4071 66.0708C75.7823 66.0708 75.2759 66.9028 75.2759 67.9292C75.2759 68.9556 75.7823 69.7877 76.4071 69.7877Z" fill="#C9CFDB" stroke="#6E7E92" stroke-width="0.6" stroke-linecap="round" stroke-linejoin="round"/>
<path d="M119.804 58.1816L118.04 58.0271C117.98 56.7005 117.774 55.4473 117.776 54.4738C117.778 53.3749 118.045 52.6323 119.083 52.5427L131.588 50.0708V55.787L119.804 58.1816Z" fill="#C9CFDB"/>
<path d="M119.804 58.1816L118.04 58.0271C117.98 56.7005 117.774 55.4473 117.776 54.4738M119.804 58.1816L131.588 55.787V50.0708L119.083 52.5427C118.045 52.6323 117.778 53.3749 117.776 54.4738M119.804 58.1816C119.752 56.8669 119.586 55.647 119.605 54.7055M117.776 54.4738L119.605 54.7055M119.605 54.7055C119.627 53.6631 119.878 52.9621 120.766 52.8516" stroke="#6E7E92" stroke-width="0.6" stroke-linecap="round" stroke-linejoin="round"/>
<path d="M131.588 56.7912V50.0708L154.034 50.9205L150.827 58.1816L131.588 56.7912Z" fill="#C9CFDB" stroke="#6E7E92" stroke-width="0.6" stroke-linecap="round" stroke-linejoin="round"/>
<path d="M124.213 63.8978C126.559 63.8978 128.462 61.1311 128.462 57.7182C128.462 54.3053 126.559 51.5386 124.213 51.5386C121.867 51.5386 119.964 54.3053 119.964 57.7182C119.964 61.1311 121.867 63.8978 124.213 63.8978Z" fill="#C9CFDB" stroke="#6E7E92" stroke-width="0.6" stroke-linecap="round" stroke-linejoin="round"/>
<path d="M129.424 57.4096C128.702 60.8084 127.389 63.821 125.175 63.821C121.888 63.821 121.247 60.8225 121.247 57.4096C121.247 53.9967 123.202 51.23 125.416 51.23C127.629 51.23 129.424 53.9967 129.424 57.4096Z" fill="#C9CFDB" stroke="#6E7E92" stroke-width="0.6" stroke-linecap="round" stroke-linejoin="round"/>
<path d="M123.972 57.6411C123.972 58.7076 124.583 59.5722 125.335 59.5722L140.967 61.0399L141.688 57.2549L125.335 55.71C124.583 55.71 123.972 56.5746 123.972 57.6411Z" fill="#C9CFDB" stroke="#6E7E92" stroke-width="0.6" stroke-linecap="round" stroke-linejoin="round"/>
<path d="M145.938 59.5723C145.938 62.9852 143.867 65.8292 141.609 65.8292C139.351 65.8292 137.761 62.9852 137.761 59.5723C137.761 56.1594 139.592 53.3926 141.85 53.3926C144.107 53.3926 145.938 56.1594 145.938 59.5723Z" fill="#C9CFDB" stroke="#6E7E92" stroke-width="0.6" stroke-linecap="round" stroke-linejoin="round"/>
<path d="M163.067 58.5906C162.627 61.8701 160.287 64.357 158.135 64.0887C155.984 63.8205 154.836 60.8988 155.276 57.6192C155.717 54.3396 157.818 51.8984 159.969 52.1666C162.121 52.4349 163.508 55.311 163.067 58.5906Z" fill="#C9CFDB" stroke="#6E7E92" stroke-width="0.6" stroke-linecap="round" stroke-linejoin="round"/>
<path d="M146.579 59.5723C146.579 62.9852 144.508 65.8292 142.25 65.8292C139.993 65.8292 138.403 62.9852 138.403 59.5723C138.403 56.1594 140.233 53.3926 142.491 53.3926C144.749 53.3926 146.579 56.1594 146.579 59.5723Z" fill="#C9CFDB" stroke="#6E7E92" stroke-width="0.6" stroke-linecap="round" stroke-linejoin="round"/>
<path d="M163.704 58.6701C163.263 61.9497 160.923 64.4365 158.772 64.1683C156.62 63.9001 155.472 60.9783 155.913 57.6987C156.353 54.4191 158.454 51.978 160.605 52.2462C162.757 52.5144 164.144 55.3905 163.704 58.6701Z" fill="#C9CFDB" stroke="#6E7E92" stroke-width="0.6" stroke-linecap="round" stroke-linejoin="round"/>
<path d="M146.659 59.7681C146.659 62.9479 144.735 65.5975 143.853 65.5975C141.595 65.5975 140.005 62.9479 140.005 59.7681C140.005 56.5884 141.836 54.0107 144.094 54.0107C146.018 54.0107 146.659 56.5884 146.659 59.7681Z" fill="#C9CFDB" stroke="#6E7E92" stroke-width="0.6" stroke-linecap="round" stroke-linejoin="round"/>
<path d="M163.683 58.8263C163.277 61.8536 161.145 64.1527 160.323 64.0502C158.219 63.7878 157.075 61.0804 157.482 58.0531C157.888 55.0258 159.924 52.7844 162.028 53.0468C163.821 53.2703 164.09 55.799 163.683 58.8263Z" fill="#C9CFDB" stroke="#6E7E92" stroke-width="0.6" stroke-linecap="round" stroke-linejoin="round"/>
<path d="M144.439 61.0397L142.675 60.8852C142.614 59.5586 142.409 58.3055 142.411 57.332C142.413 56.233 142.679 55.4905 143.717 55.4008L152.03 53.7787V52.311H153.954V54.0104L145.4 55.7098C144.512 55.8203 144.262 56.5213 144.24 57.5637C144.22 58.5051 144.387 59.725 144.439 61.0397Z" fill="#C9CFDB"/>
<path d="M144.24 57.5637C144.22 58.5051 144.387 59.725 144.439 61.0397L142.675 60.8852C142.614 59.5586 142.409 58.3055 142.411 57.332M144.24 57.5637C144.262 56.5213 144.512 55.8203 145.4 55.7098L153.954 54.0104V52.311H152.03V53.7787L143.717 55.4008C142.679 55.4905 142.413 56.233 142.411 57.332M144.24 57.5637L142.411 57.332" stroke="#6E7E92" stroke-width="0.6" stroke-linecap="round" stroke-linejoin="round"/>
<path d="M144.24 57.5637C144.22 58.5051 144.387 59.725 144.438 61.0397H145.4V57.6409L148.503 57.2547L151.549 63.5116L158.684 62.6619L161.89 55.7098L164.936 55.4008L165.016 58.8768L165.497 58.7224C165.752 56.5275 166.94 53.5469 165.177 53.5469L156.599 53.7014V51.9248L153.954 52.311V54.0104L145.4 55.7098C144.512 55.8202 144.261 56.5213 144.24 57.5637Z" fill="#C9CFDB" stroke="#6E7E92" stroke-width="0.6" stroke-linecap="round" stroke-linejoin="round"/>
<path d="M164.936 55.4009L165.016 58.8769V60.1842L162.082 60.4727L159.987 59.8364L158.683 62.6619L151.549 63.5116L149.558 63.2237L148.503 60.8918L145.4 61.0398V57.641L148.503 57.2547L151.549 63.5116L158.683 62.6619L159.987 59.8364L161.89 55.7098L164.936 55.4009Z" fill="#C9CFDB"/>
<path d="M151.549 63.5116L158.683 62.6619L159.987 59.8364M151.549 63.5116L148.503 57.2547L145.4 57.641V61.0398L148.503 60.8918L149.558 63.2237L151.549 63.5116ZM159.987 59.8364L161.89 55.7098L164.936 55.4009L165.016 58.8769V60.1842L162.082 60.4727L159.987 59.8364Z" stroke="#6E7E92" stroke-width="0.6" stroke-linecap="round" stroke-linejoin="round"/>
<path d="M145.616 60.1131C145.616 61.0943 146.155 61.8897 146.819 61.8897H147.62C148.284 61.8897 148.823 61.0943 148.823 60.1131C148.823 59.1318 148.284 58.3364 147.62 58.3364H146.819C146.155 58.3364 145.616 59.1318 145.616 60.1131Z" fill="#C9CFDB" stroke="#6E7E92" stroke-width="0.6" stroke-linecap="round" stroke-linejoin="round"/>
<path d="M162.291 58.1048C162.291 59.086 162.802 59.8814 163.433 59.8814H164.195C164.826 59.8814 165.337 59.086 165.337 58.1048C165.337 57.1235 164.826 56.3281 164.195 56.3281H163.433C162.802 56.3281 162.291 57.1235 162.291 58.1048Z" fill="#C9CFDB" stroke="#6E7E92" stroke-width="0.6" stroke-linecap="round" stroke-linejoin="round"/>
<path d="M147.621 61.8897C148.285 61.8897 148.823 61.0943 148.823 60.1131C148.823 59.1319 148.285 58.3364 147.621 58.3364C146.957 58.3364 146.418 59.1319 146.418 60.1131C146.418 61.0943 146.957 61.8897 147.621 61.8897Z" fill="#C9CFDB" stroke="#6E7E92" stroke-width="0.6" stroke-linecap="round" stroke-linejoin="round"/>
<path d="M164.214 59.8814C164.834 59.8814 165.336 59.086 165.336 58.1048C165.336 57.1236 164.834 56.3281 164.214 56.3281C163.594 56.3281 163.092 57.1236 163.092 58.1048C163.092 59.086 163.594 59.8814 164.214 59.8814Z" fill="#C9CFDB" stroke="#6E7E92" stroke-width="0.6" stroke-linecap="round" stroke-linejoin="round"/>
<path d="M154.276 46.7814L125.335 44.0381V50.4469L154.276 53.6703V46.7814Z" fill="#C9CFDB" stroke="#6E7E92" stroke-width="0.6" stroke-linecap="round" stroke-linejoin="round"/>
<path d="M154.662 46.8337L125.335 44.0379L146.269 41.4526L175.595 44.7284L154.662 46.8337Z" fill="#C9CFDB" stroke="#6E7E92" stroke-width="0.6" stroke-linecap="round" stroke-linejoin="round"/>
<path d="M164.762 13.411L159.823 12.9429V44.4489L164.762 44.999V13.411Z" fill="#C9CFDB" stroke="#6E7E92" stroke-width="0.6" stroke-linecap="round" stroke-linejoin="round"/>
<path d="M164.764 13.4107L168.408 13.0596V44.5656L164.764 44.9987V13.4107Z" fill="#C9CFDB" stroke="#6E7E92" stroke-width="0.6" stroke-linecap="round" stroke-linejoin="round"/>
<path d="M164.828 13.3387L159.823 12.8616L163.396 12.4204L168.401 12.9794L164.828 13.3387Z" fill="#C9CFDB" stroke="#6E7E92" stroke-width="0.6" stroke-linecap="round" stroke-linejoin="round"/>
<path d="M148.662 12.709L152.219 12.3662V43.1154L148.662 43.5382V12.709Z" fill="#C9CFDB" stroke="#6E7E92" stroke-width="0.6" stroke-linecap="round" stroke-linejoin="round"/>
<path d="M16.2407 13.8277L140.333 3.04199L175.631 5.15321L51.3414 16.3533L16.2407 13.8277Z" fill="#E0E4EC" stroke="#6E7E92" stroke-width="0.6" stroke-linecap="round" stroke-linejoin="round"/>
<path d="M54.7524 57.1828L20.6543 53.9507V61.5014L54.7524 65.2991V57.1828Z" fill="#C9CFDB" stroke="#6E7E92" stroke-width="0.6" stroke-linecap="round" stroke-linejoin="round"/>
<path d="M54.7529 57.1828L175.759 44.7461V51.1241L54.7529 65.2991V57.1828Z" fill="#C9CFDB" stroke="#6E7E92" stroke-width="0.6" stroke-linecap="round" stroke-linejoin="round"/>
<path d="M55.2059 57.2446L20.6543 53.9507L45.3175 50.9048L79.869 54.7643L55.2059 57.2446Z" fill="#C9CFDB" stroke="#6E7E92" stroke-width="0.6" stroke-linecap="round" stroke-linejoin="round"/>
<path d="M52.4395 22.5735L49.7427 22.0859V54.8991L52.4395 55.472V22.5735Z" fill="#C9CFDB" stroke="#6E7E92" stroke-width="0.6" stroke-linecap="round" stroke-linejoin="round"/>
<path d="M52.4399 22.5727L54.4297 22.207V55.0201L52.4399 55.4712V22.5727Z" fill="#C9CFDB" stroke="#6E7E92" stroke-width="0.6" stroke-linecap="round" stroke-linejoin="round"/>
<path d="M52.4754 22.4979L49.7427 22.001L51.6933 21.5415L54.4261 22.1237L52.4754 22.4979Z" fill="#C9CFDB" stroke="#6E7E92" stroke-width="0.6" stroke-linecap="round" stroke-linejoin="round"/>
<path d="M35.9836 21.8425L33.0981 21.3667V53.3916L35.9836 53.9508V21.8425Z" fill="#C9CFDB" stroke="#6E7E92" stroke-width="0.6" stroke-linecap="round" stroke-linejoin="round"/>
<path d="M35.9834 21.8424L38.1124 21.4854V53.5104L35.9834 53.9507V21.8424Z" fill="#C9CFDB" stroke="#6E7E92" stroke-width="0.6" stroke-linecap="round" stroke-linejoin="round"/>
<path d="M36.0215 21.7688L33.0977 21.2839L35.1847 20.8354L38.1085 21.4036L36.0215 21.7688Z" fill="#C9CFDB" stroke="#6E7E92" stroke-width="0.6" stroke-linecap="round" stroke-linejoin="round"/>
<path d="M175.63 4.7124L148.524 46.8016L145.429 47.1422L75.3329 55.2167L50.3237 16.2995L86.4052 12.9631L88.3011 12.7877L92.9184 12.3608L94.6245 12.203L107.912 10.9743L109.606 10.8177L114.157 10.3968L115.737 10.2508L126.054 9.29676L127.374 9.1747L130.871 8.85132L132.154 8.73271L175.63 4.7124Z" fill="#9EA9B9" stroke="#6E7E92" stroke-width="0.6" stroke-linecap="round" stroke-linejoin="round"/>
<path d="M20.0079 54.7593L23.2399 57.6681L20.8967 57.4257L18.311 54.7593H20.0079Z" fill="#C9CFDB" stroke="#6E7E92" stroke-width="0.6" stroke-linecap="round" stroke-linejoin="round"/>
<path d="M27.3609 55.6475L30.593 58.5564L28.2497 58.314L25.6641 55.6475H27.3609Z" fill="#C9CFDB" stroke="#6E7E92" stroke-width="0.6" stroke-linecap="round" stroke-linejoin="round"/>
<path d="M42.4171 57.1826L45.7021 60.253L43.3205 59.9972L40.6924 57.1826H42.4171Z" fill="#C9CFDB" stroke="#6E7E92" stroke-width="0.6" stroke-linecap="round" stroke-linejoin="round"/>
<path d="M49.6899 57.9907L52.975 61.0611L50.5933 60.8052L47.9653 57.9907H49.6899Z" fill="#C9CFDB" stroke="#6E7E92" stroke-width="0.6" stroke-linecap="round" stroke-linejoin="round"/>
<path d="M20.0078 54.759L23.2399 57.6678L23.6439 57.5062L23.5631 54.355L20.0078 54.759Z" fill="#C9CFDB" stroke="#6E7E92" stroke-width="0.6" stroke-linecap="round" stroke-linejoin="round"/>
<path d="M27.3613 55.6477L30.5933 58.5566L30.9973 58.395L30.9165 55.2437L27.3613 55.6477Z" fill="#C9CFDB" stroke="#6E7E92" stroke-width="0.6" stroke-linecap="round" stroke-linejoin="round"/>
<path d="M42.4702 57.2733L45.7741 60.2531L46.1871 60.0875L46.1045 56.8594L42.4702 57.2733Z" fill="#C9CFDB" stroke="#6E7E92" stroke-width="0.6" stroke-linecap="round" stroke-linejoin="round"/>
<path d="M49.7427 58.0814L53.0465 61.0612L53.4595 60.8956L53.3769 57.6675L49.7427 58.0814Z" fill="#C9CFDB" stroke="#6E7E92" stroke-width="0.6" stroke-linecap="round" stroke-linejoin="round"/>
<path d="M20.0083 54.7585H18.3115L20.8164 54.1929L23.5636 54.3545L20.0083 54.7585Z" fill="#C9CFDB" stroke="#6E7E92" stroke-width="0.6" stroke-linecap="round" stroke-linejoin="round"/>
<path d="M27.3609 55.6476H25.6641L28.1689 55.082L30.9162 55.2436L27.3609 55.6476Z" fill="#C9CFDB" stroke="#6E7E92" stroke-width="0.6" stroke-linecap="round" stroke-linejoin="round"/>
<path d="M42.4154 57.183H40.6924L43.2358 56.6982L46.0253 56.8367L42.4154 57.183Z" fill="#C9CFDB" stroke="#6E7E92" stroke-width="0.6" stroke-linecap="round" stroke-linejoin="round"/>
<path d="M49.6882 57.9907H47.9653L50.5087 57.5059L53.2982 57.6445L49.6882 57.9907Z" fill="#C9CFDB" stroke="#6E7E92" stroke-width="0.6" stroke-linecap="round" stroke-linejoin="round"/>
</svg>
