<svg width="192" height="80" viewBox="0 0 192 80" fill="none" xmlns="http://www.w3.org/2000/svg">
<path d="M33.8465 67.501L32.1417 67.346C32.0831 66.0152 31.8844 64.758 31.8862 63.7814C31.8883 62.6789 32.146 61.934 33.1491 61.8441L45.2379 59.3643V65.0987L33.8465 67.501Z" fill="#C9CFDB"/>
<path d="M33.8465 67.501L32.1417 67.346C32.0831 66.0152 31.8844 64.758 31.8862 63.7814M33.8465 67.501L45.2379 65.0987V59.3643L33.1491 61.8441C32.146 61.934 31.8883 62.6789 31.8862 63.7814M33.8465 67.501C33.7967 66.1821 33.6355 64.9583 33.6545 64.0138M31.8862 63.7814L33.6545 64.0138M33.6545 64.0138C33.6756 62.9681 33.9176 62.2648 34.7765 62.154" stroke="#6E7E92" stroke-width="0.6" stroke-linecap="round" stroke-linejoin="round"/>
<path d="M45.2388 66.1061V59.3643L66.9367 60.2167L63.837 67.501L45.2388 66.1061Z" fill="#C9CFDB" stroke="#6E7E92" stroke-width="0.6" stroke-linecap="round" stroke-linejoin="round"/>
<path d="M38.1091 73.2357C40.3773 73.2357 42.2162 70.4601 42.2162 67.0363C42.2162 63.6125 40.3773 60.8369 38.1091 60.8369C35.8408 60.8369 34.002 63.6125 34.002 67.0363C34.002 70.4601 35.8408 73.2357 38.1091 73.2357Z" fill="#C9CFDB" stroke="#6E7E92" stroke-width="0.6" stroke-linecap="round" stroke-linejoin="round"/>
<path d="M43.1454 66.7263C42.448 70.1359 41.1782 73.1581 39.0383 73.1581C35.8612 73.1581 35.2412 70.1501 35.2412 66.7263C35.2412 63.3024 37.1309 60.5269 39.2708 60.5269C41.4107 60.5269 43.1454 63.3024 43.1454 66.7263Z" fill="#C9CFDB" stroke="#6E7E92" stroke-width="0.6" stroke-linecap="round" stroke-linejoin="round"/>
<path d="M37.8765 66.9589C37.8765 68.0288 38.4663 68.8962 39.1938 68.8962L54.3049 70.3685L55.0023 66.5714L39.1938 65.0215C38.4663 65.0215 37.8765 65.8889 37.8765 66.9589Z" fill="#C9CFDB" stroke="#6E7E92" stroke-width="0.6" stroke-linecap="round" stroke-linejoin="round"/>
<path d="M59.1093 68.8962C59.1093 72.32 57.1074 75.1731 54.9247 75.1731C52.742 75.1731 51.2051 72.32 51.2051 68.8962C51.2051 65.4723 52.9745 62.6968 55.1572 62.6968C57.3399 62.6968 59.1093 65.4723 59.1093 68.8962Z" fill="#C9CFDB" stroke="#6E7E92" stroke-width="0.6" stroke-linecap="round" stroke-linejoin="round"/>
<path d="M75.6689 67.9115C75.2432 71.2016 72.981 73.6964 70.9012 73.4273C68.8215 73.1582 67.7117 70.2271 68.1374 66.937C68.5631 63.6469 70.5942 61.1979 72.674 61.467C74.7537 61.7361 76.0946 64.6214 75.6689 67.9115Z" fill="#C9CFDB" stroke="#6E7E92" stroke-width="0.6" stroke-linecap="round" stroke-linejoin="round"/>
<path d="M59.7295 68.8962C59.7295 72.32 57.7276 75.1731 55.5449 75.1731C53.3622 75.1731 51.8252 72.32 51.8252 68.8962C51.8252 65.4723 53.5947 62.6968 55.7774 62.6968C57.96 62.6968 59.7295 65.4723 59.7295 68.8962Z" fill="#C9CFDB" stroke="#6E7E92" stroke-width="0.6" stroke-linecap="round" stroke-linejoin="round"/>
<path d="M76.2837 67.991C75.858 71.2811 73.5958 73.7759 71.516 73.5068C69.4363 73.2377 68.3265 70.3066 68.7522 67.0165C69.178 63.7265 71.209 61.2775 73.2888 61.5466C75.3685 61.8157 76.7094 64.701 76.2837 67.991Z" fill="#C9CFDB" stroke="#6E7E92" stroke-width="0.6" stroke-linecap="round" stroke-linejoin="round"/>
<path d="M59.8069 69.0927C59.8069 72.2827 57.9471 74.9408 57.0947 74.9408C54.912 74.9408 53.375 72.2827 53.375 69.0927C53.375 65.9028 55.1445 63.3169 57.3272 63.3169C59.187 63.3169 59.8069 65.9028 59.8069 69.0927Z" fill="#C9CFDB" stroke="#6E7E92" stroke-width="0.6" stroke-linecap="round" stroke-linejoin="round"/>
<path d="M76.2635 68.1475C75.8705 71.1845 73.8098 73.4909 73.0153 73.3882C70.9811 73.1249 69.8761 70.409 70.2691 67.372C70.662 64.335 72.6297 62.0864 74.6639 62.3496C76.3972 62.5739 76.6565 65.1105 76.2635 68.1475Z" fill="#C9CFDB" stroke="#6E7E92" stroke-width="0.6" stroke-linecap="round" stroke-linejoin="round"/>
<path d="M57.6605 70.3685L55.9556 70.2135C55.897 68.8826 55.6983 67.6254 55.7002 66.6488C55.7023 65.5464 55.9599 64.8014 56.963 64.7115L64.9992 63.0842V61.6118H66.8591V63.3167L58.5904 65.0215C57.7315 65.1323 57.4895 65.8356 57.4685 66.8813C57.4494 67.8257 57.6106 69.0495 57.6605 70.3685Z" fill="#C9CFDB"/>
<path d="M57.4685 66.8813C57.4494 67.8257 57.6106 69.0495 57.6605 70.3685L55.9556 70.2135C55.897 68.8826 55.6983 67.6254 55.7002 66.6488M57.4685 66.8813C57.4895 65.8356 57.7315 65.1323 58.5904 65.0215L66.8591 63.3167V61.6118H64.9992V63.0842L56.963 64.7115C55.9599 64.8014 55.7023 65.5464 55.7002 66.6488M57.4685 66.8813L55.7002 66.6488" stroke="#6E7E92" stroke-width="0.6" stroke-linecap="round" stroke-linejoin="round"/>
<path d="M57.4679 66.8815C57.4488 67.826 57.61 69.0497 57.6599 70.3687H58.5898V66.959L61.589 66.5715L64.5337 72.8484L71.4305 71.996L74.5302 65.0217L77.475 64.7117L77.5524 68.1989L78.0174 68.0439C78.2637 65.8421 79.4123 62.8519 77.7074 62.8519L69.4157 63.0069V61.2246L66.8585 61.612V63.3169L58.5898 65.0217C57.7309 65.1325 57.4889 65.8358 57.4679 66.8815Z" fill="#C9CFDB" stroke="#6E7E92" stroke-width="0.6" stroke-linecap="round" stroke-linejoin="round"/>
<path d="M77.475 64.7114L77.5525 68.1986V69.5101L74.7163 69.7995L72.6904 69.1612L71.4306 71.9957L64.5338 72.8482L62.6088 72.5593L61.5891 70.22L58.5898 70.3684V66.9587L61.5891 66.5713L64.5338 72.8482L71.4306 71.9957L72.6904 69.1612L74.5303 65.0214L77.475 64.7114Z" fill="#C9CFDB"/>
<path d="M64.5338 72.8482L71.4306 71.9957L72.6904 69.1612M64.5338 72.8482L61.5891 66.5713L58.5898 66.9587V70.3684L61.5891 70.22L62.6088 72.5593L64.5338 72.8482ZM72.6904 69.1612L74.5303 65.0214L77.475 64.7114L77.5525 68.1986V69.5101L74.7163 69.7995L72.6904 69.1612Z" stroke="#6E7E92" stroke-width="0.6" stroke-linecap="round" stroke-linejoin="round"/>
<path d="M58.7998 69.4387C58.7998 70.423 59.3202 71.221 59.9621 71.221H60.7371C61.379 71.221 61.8995 70.423 61.8995 69.4387C61.8995 68.4543 61.379 67.6562 60.7371 67.6562H59.9621C59.3202 67.6562 58.7998 68.4543 58.7998 69.4387Z" fill="#C9CFDB" stroke="#6E7E92" stroke-width="0.6" stroke-linecap="round" stroke-linejoin="round"/>
<path d="M74.918 67.4239C74.918 68.4083 75.4124 69.2063 76.0222 69.2063H76.7584C77.3683 69.2063 77.8627 68.4083 77.8627 67.4239C77.8627 66.4396 77.3683 65.6416 76.7584 65.6416H76.0222C75.4124 65.6416 74.918 66.4396 74.918 67.4239Z" fill="#C9CFDB" stroke="#6E7E92" stroke-width="0.6" stroke-linecap="round" stroke-linejoin="round"/>
<path d="M60.7371 71.2209C61.3791 71.2209 61.8995 70.4229 61.8995 69.4386C61.8995 68.4542 61.3791 67.6562 60.7371 67.6562C60.0951 67.6562 59.5747 68.4542 59.5747 69.4386C59.5747 70.4229 60.0951 71.2209 60.7371 71.2209Z" fill="#C9CFDB" stroke="#6E7E92" stroke-width="0.6" stroke-linecap="round" stroke-linejoin="round"/>
<path d="M76.7778 69.2063C77.3769 69.2063 77.8627 68.4083 77.8627 67.4239C77.8627 66.4396 77.3769 65.6416 76.7778 65.6416C76.1786 65.6416 75.6929 66.4396 75.6929 67.4239C75.6929 68.4083 76.1786 69.2063 76.7778 69.2063Z" fill="#C9CFDB" stroke="#6E7E92" stroke-width="0.6" stroke-linecap="round" stroke-linejoin="round"/>
<path d="M118.397 58.0755L116.706 57.9273C116.647 56.655 116.45 55.4532 116.452 54.5196C116.454 53.4656 116.71 52.7535 117.705 52.6675L129.698 50.2969V55.779L118.397 58.0755Z" fill="#C9CFDB"/>
<path d="M118.397 58.0755L116.706 57.9273C116.647 56.655 116.45 55.4532 116.452 54.5196M118.397 58.0755L129.698 55.779V50.2969L117.705 52.6675C116.71 52.7535 116.454 53.4656 116.452 54.5196M118.397 58.0755C118.348 56.8146 118.188 55.6447 118.206 54.7418M116.452 54.5196L118.206 54.7418M118.206 54.7418C118.227 53.7421 118.468 53.0698 119.32 52.9638" stroke="#6E7E92" stroke-width="0.6" stroke-linecap="round" stroke-linejoin="round"/>
<path d="M129.699 56.742V50.2969L151.225 51.1118L148.15 58.0755L129.699 56.742Z" fill="#C9CFDB" stroke="#6E7E92" stroke-width="0.6" stroke-linecap="round" stroke-linejoin="round"/>
<path d="M122.626 63.5578C124.876 63.5578 126.701 60.9043 126.701 57.6312C126.701 54.358 124.876 51.7046 122.626 51.7046C120.376 51.7046 118.551 54.358 118.551 57.6312C118.551 60.9043 120.376 63.5578 122.626 63.5578Z" fill="#C9CFDB" stroke="#6E7E92" stroke-width="0.6" stroke-linecap="round" stroke-linejoin="round"/>
<path d="M127.623 57.3348C126.931 60.5944 125.672 63.4836 123.549 63.4836C120.397 63.4836 119.781 60.608 119.781 57.3348C119.781 54.0617 121.656 51.4082 123.779 51.4082C125.902 51.4082 127.623 54.0617 127.623 57.3348Z" fill="#C9CFDB" stroke="#6E7E92" stroke-width="0.6" stroke-linecap="round" stroke-linejoin="round"/>
<path d="M122.395 57.5572C122.395 58.58 122.98 59.4092 123.702 59.4092L138.694 60.8168L139.386 57.1867L123.702 55.7051C122.98 55.7051 122.395 56.5343 122.395 57.5572Z" fill="#C9CFDB" stroke="#6E7E92" stroke-width="0.6" stroke-linecap="round" stroke-linejoin="round"/>
<path d="M143.46 59.409C143.46 62.6822 141.474 65.4097 139.309 65.4097C137.143 65.4097 135.619 62.6822 135.619 59.409C135.619 56.1358 137.374 53.4824 139.54 53.4824C141.705 53.4824 143.46 56.1358 143.46 59.409Z" fill="#C9CFDB" stroke="#6E7E92" stroke-width="0.6" stroke-linecap="round" stroke-linejoin="round"/>
<path d="M159.889 58.4678C159.466 61.6131 157.222 63.9981 155.159 63.7408C153.095 63.4835 151.994 60.6814 152.417 57.5362C152.839 54.3909 154.854 52.0497 156.917 52.3069C158.981 52.5642 160.311 55.3225 159.889 58.4678Z" fill="#C9CFDB" stroke="#6E7E92" stroke-width="0.6" stroke-linecap="round" stroke-linejoin="round"/>
<path d="M144.076 59.409C144.076 62.6822 142.09 65.4097 139.924 65.4097C137.759 65.4097 136.234 62.6822 136.234 59.409C136.234 56.1358 137.989 53.4824 140.155 53.4824C142.32 53.4824 144.076 56.1358 144.076 59.409Z" fill="#C9CFDB" stroke="#6E7E92" stroke-width="0.6" stroke-linecap="round" stroke-linejoin="round"/>
<path d="M160.499 58.5439C160.076 61.6892 157.832 64.0742 155.769 63.8169C153.705 63.5597 152.604 60.7576 153.027 57.6123C153.449 54.467 155.464 52.1258 157.528 52.3831C159.591 52.6403 160.921 55.3986 160.499 58.5439Z" fill="#C9CFDB" stroke="#6E7E92" stroke-width="0.6" stroke-linecap="round" stroke-linejoin="round"/>
<path d="M144.153 59.5968C144.153 62.6464 142.307 65.1875 141.462 65.1875C139.296 65.1875 137.771 62.6464 137.771 59.5968C137.771 56.5473 139.527 54.0752 141.692 54.0752C143.538 54.0752 144.153 56.5473 144.153 59.5968Z" fill="#C9CFDB" stroke="#6E7E92" stroke-width="0.6" stroke-linecap="round" stroke-linejoin="round"/>
<path d="M160.479 58.6932C160.089 61.5965 158.045 63.8015 157.256 63.7032C155.238 63.4516 154.142 60.8551 154.532 57.9517C154.922 55.0484 156.874 52.8987 158.892 53.1504C160.612 53.3648 160.869 55.7899 160.479 58.6932Z" fill="#C9CFDB" stroke="#6E7E92" stroke-width="0.6" stroke-linecap="round" stroke-linejoin="round"/>
<path d="M142.023 60.8165L140.332 60.6684C140.273 59.3961 140.076 58.1942 140.078 57.2606C140.08 56.2067 140.336 55.4945 141.331 55.4085L149.304 53.8528V52.4453H151.149V54.0751L142.946 55.7049C142.093 55.8108 141.853 56.4831 141.832 57.4828C141.814 58.3857 141.974 59.5556 142.023 60.8165Z" fill="#C9CFDB"/>
<path d="M141.832 57.4828C141.814 58.3857 141.974 59.5556 142.023 60.8165L140.332 60.6684C140.273 59.3961 140.076 58.1942 140.078 57.2606M141.832 57.4828C141.853 56.4831 142.093 55.8108 142.946 55.7049L151.149 54.0751V52.4453H149.304V53.8528L141.331 55.4085C140.336 55.4945 140.08 56.2067 140.078 57.2606M141.832 57.4828L140.078 57.2606" stroke="#6E7E92" stroke-width="0.6" stroke-linecap="round" stroke-linejoin="round"/>
<path d="M141.832 57.4827C141.813 58.3856 141.973 59.5555 142.023 60.8164H142.945V57.5568L145.921 57.1864L148.842 63.1871L155.685 62.3722L158.76 55.7048L161.681 55.4084L161.758 58.7421L162.219 58.594C162.464 56.489 163.603 53.6305 161.912 53.6305L153.686 53.7786V52.0747L151.149 52.4451V54.0749L142.945 55.7048C142.093 55.8107 141.853 56.483 141.832 57.4827Z" fill="#C9CFDB" stroke="#6E7E92" stroke-width="0.6" stroke-linecap="round" stroke-linejoin="round"/>
<path d="M161.681 55.4087L161.758 58.7424V59.9962L158.944 60.2728L156.934 59.6626L155.684 62.3724L148.842 63.1873L146.932 62.9111L145.92 60.6748L142.945 60.8167V57.5571L145.92 57.1866L148.842 63.1873L155.684 62.3724L156.934 59.6626L158.759 55.705L161.681 55.4087Z" fill="#C9CFDB"/>
<path d="M148.842 63.1873L155.684 62.3724L156.934 59.6626M148.842 63.1873L145.92 57.1866L142.945 57.5571V60.8167L145.92 60.6748L146.932 62.9111L148.842 63.1873ZM156.934 59.6626L158.759 55.705L161.681 55.4087L161.758 58.7424V59.9962L158.944 60.2728L156.934 59.6626Z" stroke="#6E7E92" stroke-width="0.6" stroke-linecap="round" stroke-linejoin="round"/>
<path d="M143.153 59.9275C143.153 60.8685 143.669 61.6314 144.306 61.6314H145.075C145.711 61.6314 146.228 60.8685 146.228 59.9275C146.228 58.9865 145.711 58.2236 145.075 58.2236H144.306C143.669 58.2236 143.153 58.9865 143.153 59.9275Z" fill="#C9CFDB" stroke="#6E7E92" stroke-width="0.6" stroke-linecap="round" stroke-linejoin="round"/>
<path d="M159.144 58.0013C159.144 58.9424 159.635 59.7052 160.24 59.7052H160.97C161.575 59.7052 162.066 58.9424 162.066 58.0013C162.066 57.0603 161.575 56.2974 160.97 56.2974H160.24C159.635 56.2974 159.144 57.0603 159.144 58.0013Z" fill="#C9CFDB" stroke="#6E7E92" stroke-width="0.6" stroke-linecap="round" stroke-linejoin="round"/>
<path d="M145.075 61.6314C145.712 61.6314 146.228 60.8686 146.228 59.9275C146.228 58.9865 145.712 58.2236 145.075 58.2236C144.438 58.2236 143.922 58.9865 143.922 59.9275C143.922 60.8686 144.438 61.6314 145.075 61.6314Z" fill="#C9CFDB" stroke="#6E7E92" stroke-width="0.6" stroke-linecap="round" stroke-linejoin="round"/>
<path d="M160.989 59.7051C161.583 59.7051 162.065 58.9423 162.065 58.0013C162.065 57.0602 161.583 56.2974 160.989 56.2974C160.394 56.2974 159.913 57.0602 159.913 58.0013C159.913 58.9423 160.394 59.7051 160.989 59.7051Z" fill="#C9CFDB" stroke="#6E7E92" stroke-width="0.6" stroke-linecap="round" stroke-linejoin="round"/>
<path d="M56.0088 57.1171L171.938 44.2534V49.6004L149.775 52.2226L135.671 57.5821L90.8804 62.9291L76.1568 60.9327L56.0088 63.3165V57.1171Z" fill="#C9CFDB" stroke="#6E7E92" stroke-width="0.6" stroke-linecap="round" stroke-linejoin="round"/>
<path d="M171.938 44.2534L56.0088 57.1171V58.357L171.938 45.3383V44.2534Z" fill="#C9CFDB" stroke="#6E7E92" stroke-width="0.6" stroke-linecap="round" stroke-linejoin="round"/>
<path d="M171.938 44.2535L56.0095 57.1173L23.2915 53.9582L138.842 41.3564L171.938 44.2535Z" fill="#C9CFDB" stroke="#6E7E92" stroke-width="0.6" stroke-linecap="round" stroke-linejoin="round"/>
<path d="M86.0356 50.6771L100.286 52.237L95.7236 13.5796L86.0356 50.6771Z" fill="#6E7E92" stroke="#6E7E92" stroke-width="0.6" stroke-linecap="round" stroke-linejoin="round"/>
<path d="M60.8296 56.5848L91.2616 53.2686L95.7235 13.5796L56.0088 17.2398L60.8296 56.5848Z" fill="#9EA9B9" stroke="#6E7E92" stroke-width="0.6" stroke-linecap="round" stroke-linejoin="round"/>
<path d="M138.982 47.9061L126.052 46.7234L135.357 10.1562L138.982 47.9061Z" fill="#6E7E92" stroke="#6E7E92" stroke-width="0.6" stroke-linecap="round" stroke-linejoin="round"/>
<path d="M130.667 48.8969L100.286 52.2367L95.7236 13.5793L135.357 10.1562L130.667 48.8969Z" fill="#9EA9B9" stroke="#6E7E92" stroke-width="0.6" stroke-linecap="round" stroke-linejoin="round"/>
<path d="M138.981 47.906L167.993 44.6981L171.885 6.79004L135.357 10.1563L138.981 47.906Z" fill="#9EA9B9" stroke="#6E7E92" stroke-width="0.6" stroke-linecap="round" stroke-linejoin="round"/>
<path d="M23.27 14.8869L61.919 11.5276L102.219 8.02477L139.014 4.82666L171.938 6.79585L135.216 10.105L95.3622 13.6964L56.0094 17.2425L23.27 14.8869Z" fill="#9EA9B9"/>
<path d="M95.3622 13.6964L56.0094 17.2425L23.27 14.8869L61.919 11.5276M95.3622 13.6964L61.919 11.5276M95.3622 13.6964L135.216 10.105M61.919 11.5276L102.219 8.02477M135.216 10.105L171.938 6.79585L139.014 4.82666L102.219 8.02477M135.216 10.105L102.219 8.02477" stroke="#6E7E92" stroke-width="0.6" stroke-linecap="round" stroke-linejoin="round"/>
<path d="M60.8146 56.6247L28.4742 53.0365L23.3218 14.9058L56.0096 17.2425L60.8146 56.6247Z" fill="#6E7E92" stroke="#6E7E92" stroke-width="0.6" stroke-linecap="round" stroke-linejoin="round"/>
<path d="M56.0094 57.1173L23.3076 54.0176V59.6746L56.0094 63.3167V57.1173Z" fill="#C9CFDB" stroke="#6E7E92" stroke-width="0.6" stroke-linecap="round" stroke-linejoin="round"/>
<path d="M22.6874 54.7925L25.7871 57.5823L23.5398 57.3498L21.0601 54.7925H22.6874Z" fill="#C9CFDB" stroke="#6E7E92" stroke-width="0.6" stroke-linecap="round" stroke-linejoin="round"/>
<path d="M29.7392 55.645L32.8389 58.4347L30.5916 58.2022L28.1118 55.645H29.7392Z" fill="#C9CFDB" stroke="#6E7E92" stroke-width="0.6" stroke-linecap="round" stroke-linejoin="round"/>
<path d="M44.1789 57.1172L47.3294 60.0619L45.0453 59.8165L42.5249 57.1172H44.1789Z" fill="#C9CFDB" stroke="#6E7E92" stroke-width="0.6" stroke-linecap="round" stroke-linejoin="round"/>
<path d="M51.154 57.8921L54.3045 60.8368L52.0204 60.5914L49.5 57.8921H51.154Z" fill="#C9CFDB" stroke="#6E7E92" stroke-width="0.6" stroke-linecap="round" stroke-linejoin="round"/>
<path d="M22.6875 54.7928L25.7872 57.5825L26.1747 57.4275L26.0972 54.4053L22.6875 54.7928Z" fill="#C9CFDB" stroke="#6E7E92" stroke-width="0.6" stroke-linecap="round" stroke-linejoin="round"/>
<path d="M29.7393 55.6452L32.839 58.435L33.2264 58.28L33.1489 55.2578L29.7393 55.6452Z" fill="#C9CFDB" stroke="#6E7E92" stroke-width="0.6" stroke-linecap="round" stroke-linejoin="round"/>
<path d="M44.2305 57.2045L47.399 60.0623L47.7951 59.9035L47.7159 56.8076L44.2305 57.2045Z" fill="#C9CFDB" stroke="#6E7E92" stroke-width="0.6" stroke-linecap="round" stroke-linejoin="round"/>
<path d="M51.2041 57.9794L54.3727 60.8372L54.7688 60.6785L54.6896 57.5825L51.2041 57.9794Z" fill="#C9CFDB" stroke="#6E7E92" stroke-width="0.6" stroke-linecap="round" stroke-linejoin="round"/>
<path d="M22.6874 54.7925H21.0601L23.4623 54.25L26.0971 54.405L22.6874 54.7925Z" fill="#C9CFDB" stroke="#6E7E92" stroke-width="0.6" stroke-linecap="round" stroke-linejoin="round"/>
<path d="M29.7392 55.6449H28.1118L30.5141 55.1025L33.1488 55.2575L29.7392 55.6449Z" fill="#C9CFDB" stroke="#6E7E92" stroke-width="0.6" stroke-linecap="round" stroke-linejoin="round"/>
<path d="M44.1773 57.1173H42.5249L44.9641 56.6523L47.6394 56.7851L44.1773 57.1173Z" fill="#C9CFDB" stroke="#6E7E92" stroke-width="0.6" stroke-linecap="round" stroke-linejoin="round"/>
<path d="M51.1524 57.8922H49.5L51.9392 57.4272L54.6145 57.5601L51.1524 57.8922Z" fill="#C9CFDB" stroke="#6E7E92" stroke-width="0.6" stroke-linecap="round" stroke-linejoin="round"/>
<path d="M61.5884 59.1319V57.7371L65.3081 57.3496V59.5194L61.5884 59.1319Z" fill="#C9CFDB" stroke="#6E7E92" stroke-width="0.6" stroke-linecap="round" stroke-linejoin="round"/>
<path d="M75.2754 57.5787V56.2121L78.9197 55.8325V57.9583L75.2754 57.5787Z" fill="#C9CFDB" stroke="#6E7E92" stroke-width="0.6" stroke-linecap="round" stroke-linejoin="round"/>
<path d="M89.4219 55.9658V54.6218L93.006 54.2485V56.3391L89.4219 55.9658Z" fill="#C9CFDB" stroke="#6E7E92" stroke-width="0.6" stroke-linecap="round" stroke-linejoin="round"/>
<path d="M104.576 54.1855V52.9394L107.899 52.5933V54.5317L104.576 54.1855Z" fill="#C9CFDB" stroke="#6E7E92" stroke-width="0.6" stroke-linecap="round" stroke-linejoin="round"/>
<path d="M118.87 52.5583V51.3724L122.032 51.043V52.8877L118.87 52.5583Z" fill="#C9CFDB" stroke="#6E7E92" stroke-width="0.6" stroke-linecap="round" stroke-linejoin="round"/>
<path d="M133.686 50.86V49.6742L136.849 49.3447V51.1894L133.686 50.86Z" fill="#C9CFDB" stroke="#6E7E92" stroke-width="0.6" stroke-linecap="round" stroke-linejoin="round"/>
<path d="M147.897 49.1411V48.0337L150.851 47.7261V49.4487L147.897 49.1411Z" fill="#C9CFDB" stroke="#6E7E92" stroke-width="0.6" stroke-linecap="round" stroke-linejoin="round"/>
<path d="M162.061 47.4608V46.4039L164.879 46.1104V47.7542L162.061 47.4608Z" fill="#C9CFDB" stroke="#6E7E92" stroke-width="0.6" stroke-linecap="round" stroke-linejoin="round"/>
<path d="M66.3935 59.3646V57.1948L65.3086 57.3498V59.5196L66.3935 59.3646Z" fill="#C9CFDB" stroke="#6E7E92" stroke-width="0.6" stroke-linecap="round" stroke-linejoin="round"/>
<path d="M79.9833 57.806V55.6802L78.9204 55.8321V57.9579L79.9833 57.806Z" fill="#C9CFDB" stroke="#6E7E92" stroke-width="0.6" stroke-linecap="round" stroke-linejoin="round"/>
<path d="M94.0508 56.1897V54.0991L93.0054 54.2484V56.3391L94.0508 56.1897Z" fill="#C9CFDB" stroke="#6E7E92" stroke-width="0.6" stroke-linecap="round" stroke-linejoin="round"/>
<path d="M108.869 54.393V52.4546L107.9 52.5931V54.5315L108.869 54.393Z" fill="#C9CFDB" stroke="#6E7E92" stroke-width="0.6" stroke-linecap="round" stroke-linejoin="round"/>
<path d="M122.955 52.7558V50.9111L122.032 51.0429V52.8876L122.955 52.7558Z" fill="#C9CFDB" stroke="#6E7E92" stroke-width="0.6" stroke-linecap="round" stroke-linejoin="round"/>
<path d="M137.771 51.0576V49.2129L136.849 49.3446V51.1893L137.771 51.0576Z" fill="#C9CFDB" stroke="#6E7E92" stroke-width="0.6" stroke-linecap="round" stroke-linejoin="round"/>
<path d="M151.712 49.3256V47.603L150.851 47.726V49.4486L151.712 49.3256Z" fill="#C9CFDB" stroke="#6E7E92" stroke-width="0.6" stroke-linecap="round" stroke-linejoin="round"/>
<path d="M165.701 47.6367V45.9927L164.879 46.1101V47.7541L165.701 47.6367Z" fill="#C9CFDB" stroke="#6E7E92" stroke-width="0.6" stroke-linecap="round" stroke-linejoin="round"/>
</svg>
