<svg width="152" height="95" viewBox="0 0 152 95" fill="none" xmlns="http://www.w3.org/2000/svg">
<path d="M131.808 32.4287L53.034 85.3742C53.034 85.3742 48.2897 87.9464 45.0354 89.0444C41.0457 90.3902 38.6391 90.6024 34.4674 91.1487C30.4787 91.6704 24.1904 91.8334 24.1904 91.8334L17.84 89.5337L12.8469 85.2278L11.3926 82.9272C11.3926 82.9272 16.3382 83.7727 19.5367 83.8083C22.1168 83.8368 23.5645 83.6508 26.1295 83.3681C31.2893 82.7997 34.197 82.2757 39.1697 80.7746C43.114 79.584 49.0104 76.9577 49.0104 76.9577L55.4579 72.1623L131.13 24.5505V22.9846L140.243 17.4062V18.7764L135.784 25.9206L131.808 32.4287Z" fill="#9EA9B9" stroke="#6E7E92" stroke-width="0.2" stroke-linecap="round" stroke-linejoin="round"/>
<g opacity="0.5">
<path d="M19.5367 83.8075C22.1169 83.8368 23.5645 83.65 26.1296 83.3673C31.2893 82.7989 34.1971 82.2756 39.1698 80.7738C43.1141 79.5832 49.0105 76.9571 49.0105 76.9571L55.4579 72.1617L131.13 24.5499V22.984L137.766 18.9226L121.289 14.0293L24.8207 65.3111L18.4702 70.498L14.1559 77.4954L13.2832 83.2185C15.0153 83.4671 17.5972 83.7861 19.5367 83.8075Z" fill="#E0E4EC"/>
<path d="M140.243 17.4057L137.765 18.9226M137.765 18.9226L131.13 22.984V24.5499L55.4579 72.1617L49.0104 76.9571C49.0104 76.9571 43.114 79.5832 39.1697 80.7738C34.197 82.2756 31.2893 82.7989 26.1295 83.3673C23.5645 83.65 22.1168 83.8368 19.5367 83.8075C17.5972 83.7861 15.0152 83.4671 13.2832 83.2185M137.765 18.9226L121.289 14.0293L24.8207 65.3111L18.4702 70.498L14.1558 77.4954L13.2832 83.2185M13.2832 83.2185C12.1588 83.0578 11.3926 82.9272 11.3926 82.9272L13.2832 83.2185Z" stroke="#6E7E92" stroke-width="0.2" stroke-linecap="round" stroke-linejoin="round"/>
</g>
<path d="M19.5367 83.8075C22.1169 83.8368 23.5645 83.65 26.1296 83.3673C31.2893 82.7989 34.1971 82.2756 39.1698 80.7738C43.1141 79.5832 49.0105 76.9571 49.0105 76.9571L55.4579 72.1617L131.13 24.5499V22.984L137.766 18.9226L121.289 14.0293L24.8207 65.3111L18.4702 70.498L14.1559 77.4954L13.2832 83.2185C15.0153 83.4671 17.5972 83.7861 19.5367 83.8075Z" fill="#E0E4EC"/>
<path d="M140.243 17.4057L137.765 18.9226M137.765 18.9226L131.13 22.984V24.5499L55.4579 72.1617L49.0104 76.9571C49.0104 76.9571 43.114 79.5832 39.1697 80.7738C34.197 82.2756 31.2893 82.7989 26.1295 83.3673C23.5645 83.65 22.1168 83.8368 19.5367 83.8075C17.5972 83.7861 15.0152 83.4671 13.2832 83.2185M137.765 18.9226L121.289 14.0293L24.8207 65.3111L18.4702 70.498L14.1558 77.4954L13.2832 83.2185M13.2832 83.2185C12.1588 83.0578 11.3926 82.9272 11.3926 82.9272L13.2832 83.2185Z" stroke="#6E7E92" stroke-width="0.2" stroke-linecap="round" stroke-linejoin="round"/>
<path d="M131.131 22.984V24.5499L128.368 23.6202L114.407 18.9226L121.291 14.0293L137.767 18.9226L131.131 22.984Z" fill="#E0E4EC"/>
<path d="M131.131 22.984V24.5499L128.368 23.6202M131.131 22.984L137.767 18.9226M131.131 22.984L128.562 22.0543L128.368 23.6202M128.368 23.6202L114.407 18.9226L121.291 14.0293L137.767 18.9226M137.767 18.9226L140.245 17.4057" stroke="#6E7E92" stroke-width="0.2" stroke-linecap="round" stroke-linejoin="round"/>
<path d="M78.5809 54.2524L63.0684 63.7943V65.5559L78.5809 55.9651V54.2524Z" fill="#9EA9B9" stroke="#6E7E92" stroke-width="0.2" stroke-linecap="round" stroke-linejoin="round"/>
<path d="M45.7617 55.8677L63.0679 63.7948V65.5564L45.8102 57.4335L45.7617 55.8677Z" fill="#E0E4EC" stroke="#6E7E92" stroke-width="0.2" stroke-linecap="round" stroke-linejoin="round"/>
<path d="M78.5823 54.2526L63.0697 63.7946L61.5186 47.1084L78.5823 54.2526Z" fill="#EFF1F6"/>
<path d="M45.7637 55.8675L63.0697 63.7946L61.5186 47.1084L45.8121 55.8896L45.7637 55.8675Z" fill="#EFF1F6"/>
<path d="M63.0697 63.7946L78.5823 54.2526L61.5186 47.1084M63.0697 63.7946L61.5186 47.1084M63.0697 63.7946L45.7637 55.8675L45.8121 55.8896L61.5186 47.1084" stroke="#6E7E92" stroke-width="0.2" stroke-linecap="round" stroke-linejoin="round"/>
<path d="M107.425 36.1963L89.9004 47.0979V48.5764L107.376 37.8111L107.425 36.1963Z" fill="#9EA9B9" stroke="#6E7E92" stroke-width="0.2" stroke-linecap="round" stroke-linejoin="round"/>
<path d="M73.1035 40.1104L89.9005 47.1078V48.5758L73.1035 41.7741V40.1104Z" fill="#E0E4EC" stroke="#6E7E92" stroke-width="0.2" stroke-linecap="round" stroke-linejoin="round"/>
<path d="M107.425 36.196L89.9375 47.1143L91.3799 30.2261L107.425 36.196Z" fill="#EFF1F6"/>
<path d="M73.1035 40.0617L89.9369 47.1143L91.3793 30.2261L73.1035 40.0617Z" fill="#EFF1F6"/>
<path d="M89.9369 47.1143L107.425 36.196L91.3793 30.2261M89.9369 47.1143L91.3793 30.2261M89.9369 47.1143L73.1035 40.0617L91.3793 30.2261" stroke="#6E7E92" stroke-width="0.2" stroke-linecap="round" stroke-linejoin="round"/>
<path d="M11.3925 82.9277L13.2831 83.219L14.1556 77.4958L18.4701 70.4984L24.8205 65.3115L121.289 14.0297L137.765 18.923L140.243 17.4061L123.568 12.7085L110.673 16.036L103.45 19.5591L33.4978 56.6993L22.1058 62.3266L15.9008 67.3667L11.3925 74.3152L10.5684 78.1809L11.3925 82.9277Z" fill="#EFF1F6"/>
<path d="M11.3925 82.9277C11.3925 82.9277 12.1587 83.0583 13.2831 83.219M11.3925 82.9277L13.2831 83.219M11.3925 82.9277L10.5684 78.1809L11.3925 74.3152L15.9008 67.3667L22.1058 62.3266L33.4978 56.6993L103.45 19.5591L110.673 16.036L123.568 12.7085L140.243 17.4061L137.765 18.923L121.289 14.0297L24.8205 65.3115L18.4701 70.4984L14.1556 77.4958L13.2831 83.219" stroke="#6E7E92" stroke-width="0.2" stroke-linecap="round" stroke-linejoin="round"/>
<path d="M125.847 26.2631L128.374 24.7213L129.725 11.1527L128.591 10.8003L127.154 11.9898L125.847 26.2631Z" fill="#9EA9B9" stroke="#6E7E92" stroke-width="0.2" stroke-linecap="round" stroke-linejoin="round"/>
<path d="M61.8394 31.5879L63.0794 32.2137L46.1336 41.6703L43.8604 40.4187L61.8394 31.5879Z" fill="#C9CFDB" stroke="#6E7E92" stroke-width="0.2" stroke-linecap="round" stroke-linejoin="round"/>
<path d="M63.0796 33.4655V32.2139L46.1338 41.6705V44.1737L56.2599 39.0282L63.0796 33.4655Z" fill="#C9CFDB" stroke="#6E7E92" stroke-width="0.2" stroke-linecap="round" stroke-linejoin="round"/>
<path d="M47.6493 51.5443V53.1435L48.3346 66.2877C48.337 66.31 48.3383 66.3324 48.3383 66.3549C48.3383 67.0461 47.1972 67.6065 45.7895 67.6065C44.3819 67.6065 43.2408 67.0461 43.2407 66.3549L42.5518 53.1435L40.7607 46.4683L48.6826 46.7465L47.6493 51.5443Z" fill="#C9CFDB" stroke="#6E7E92" stroke-width="0.2" stroke-linecap="round" stroke-linejoin="round"/>
<path d="M40.6914 46.7453V42.017C42.4825 43.4773 45.8578 43.8249 48.5443 41.1826L48.6821 46.7453C46.0644 48.9009 42.6891 48.5532 40.6914 46.7453Z" fill="#C9CFDB" stroke="#6E7E92" stroke-width="0.2" stroke-linecap="round" stroke-linejoin="round"/>
<path d="M48.5438 40.9549C47.7549 39.5944 46.2918 38.6807 44.6173 38.6807C44.5951 38.6807 44.5729 38.6808 44.5508 38.6811C45.9636 38.7002 47.0972 39.2842 47.0972 40.0018C47.0972 40.7314 45.9253 41.3229 44.4795 41.3229C43.0339 41.3229 41.8619 40.7314 41.8619 40.0018C41.8619 39.8022 41.9496 39.6129 42.1067 39.4433C41.4905 39.856 40.9798 40.4162 40.624 41.0742L40.6908 42.0183C42.4819 43.4785 45.8573 43.8261 48.5438 41.1838V40.9549Z" fill="#C9CFDB"/>
<path d="M40.6908 42.0183L40.624 41.0742C40.9798 40.4162 41.4905 39.856 42.1067 39.4433C41.9496 39.6129 41.8619 39.8022 41.8619 40.0018C41.8619 40.7314 43.0339 41.3229 44.4795 41.3229C45.9253 41.3229 47.0972 40.7314 47.0972 40.0018C47.0972 39.2842 45.9636 38.7002 44.5508 38.6811C44.5729 38.6808 44.5951 38.6807 44.6173 38.6807C46.2918 38.6807 47.7549 39.5944 48.5438 40.9549V41.1838M40.6908 42.0183C42.4819 43.4785 45.8573 43.8261 48.5438 41.1838M40.6908 42.0183V45.5849M48.5438 41.1838L48.648 45.3948" stroke="#6E7E92" stroke-width="0.2" stroke-linecap="round" stroke-linejoin="round"/>
<path d="M44.48 41.3225C45.9256 41.3225 47.0976 40.731 47.0976 40.0013C47.0976 39.2717 45.9256 38.6802 44.48 38.6802C43.0343 38.6802 41.8623 39.2717 41.8623 40.0013C41.8623 40.731 43.0343 41.3225 44.48 41.3225Z" fill="#C9CFDB" stroke="#6E7E92" stroke-width="0.2" stroke-linecap="round" stroke-linejoin="round"/>
<path d="M91.7441 16.7075L92.8374 17.2599L77.8959 25.6078L75.8916 24.503L91.7441 16.7075Z" fill="#C9CFDB" stroke="#6E7E92" stroke-width="0.2" stroke-linecap="round" stroke-linejoin="round"/>
<path d="M92.8369 18.3698V17.2637L77.958 25.6207V27.8328L86.8495 23.2856L92.8369 18.3698Z" fill="#C9CFDB" stroke="#6E7E92" stroke-width="0.2" stroke-linecap="round" stroke-linejoin="round"/>
<path d="M74.5124 34.5354L73.2725 29.7095L79.836 30.1821L78.8981 34.5354V35.9864L79.5201 47.9138C79.5225 47.9336 79.5233 47.9536 79.5233 47.9737C79.5233 48.6009 78.4878 49.1093 77.2106 49.1093C75.9334 49.1093 74.8981 48.6009 74.8981 47.9737L74.5124 34.5354Z" fill="#C9CFDB"/>
<path d="M74.8981 47.9737C74.8981 48.6009 75.9334 49.1093 77.2106 49.1093C78.4878 49.1093 79.5233 48.6009 79.5233 47.9737C79.5233 47.9536 79.5225 47.9336 79.5201 47.9138L78.8981 35.9864V34.5354L79.836 30.1821L73.2725 29.7095L74.5124 34.5354L74.8981 47.9737Z" stroke="#6E7E92" stroke-width="0.2" stroke-linecap="round" stroke-linejoin="round"/>
<path d="M73.1357 30.1269V25.9309C74.6489 27.2268 77.5005 27.5353 79.7701 25.1904L79.8864 30.1269C77.6751 32.0399 74.8235 31.7313 73.1357 30.1269Z" fill="#C9CFDB" stroke="#6E7E92" stroke-width="0.2" stroke-linecap="round" stroke-linejoin="round"/>
<path d="M79.6632 25.1218C79.0126 23.9983 77.8069 23.2437 76.4269 23.2437C76.4086 23.2437 76.3903 23.2437 76.3721 23.244C77.5364 23.2597 78.4706 23.742 78.4706 24.3346C78.4706 24.9373 77.5048 25.4257 76.3133 25.4257C75.1218 25.4257 74.156 24.9373 74.156 24.3346C74.156 24.1698 74.2282 24.0135 74.3576 23.8734C73.8498 24.2143 73.429 24.677 73.1357 25.2203L73.1908 25.9999C74.6669 27.2059 77.4487 27.493 79.6632 25.3109V25.1218Z" fill="#C9CFDB"/>
<path d="M73.1908 25.9999L73.1357 25.2203C73.429 24.677 73.8498 24.2143 74.3576 23.8734C74.2282 24.0135 74.156 24.1698 74.156 24.3346C74.156 24.9373 75.1218 25.4257 76.3133 25.4257C77.5048 25.4257 78.4706 24.9373 78.4706 24.3346C78.4706 23.742 77.5364 23.2597 76.3721 23.244C76.3903 23.2437 76.4086 23.2437 76.4269 23.2437C77.8069 23.2437 79.0126 23.9983 79.6632 25.1218V25.3109M73.1908 25.9999C74.6669 27.2059 77.4487 27.493 79.6632 25.3109M73.1908 25.9999V28.9454M79.6632 25.3109L79.7487 28.7884" stroke="#6E7E92" stroke-width="0.2" stroke-linecap="round" stroke-linejoin="round"/>
<path d="M76.2003 25.6411C77.512 25.6411 78.5754 25.1044 78.5754 24.4424C78.5754 23.7803 77.512 23.2437 76.2003 23.2437C74.8886 23.2437 73.8252 23.7803 73.8252 24.4424C73.8252 25.1044 74.8886 25.6411 76.2003 25.6411Z" fill="#C9CFDB" stroke="#6E7E92" stroke-width="0.2" stroke-linecap="round" stroke-linejoin="round"/>
<path d="M107.165 18.9608L108.405 14.1348L101.842 14.6075L102.779 18.9608V20.4118L102.158 32.3384C102.155 32.3585 102.155 32.3786 102.155 32.399C102.155 33.0262 103.19 33.5346 104.467 33.5346C105.744 33.5346 106.779 33.0262 106.779 32.399L107.165 18.9608Z" fill="#C9CFDB" stroke="#6E7E92" stroke-width="0.2" stroke-linecap="round" stroke-linejoin="round"/>
<path d="M108.543 14.5528V10.3567C107.03 11.6525 104.178 11.9611 101.908 9.61621L101.792 14.5528C104.003 16.4657 106.855 16.1571 108.543 14.5528Z" fill="#C9CFDB" stroke="#6E7E92" stroke-width="0.2" stroke-linecap="round" stroke-linejoin="round"/>
<path d="M102.015 9.54665C102.665 8.42311 103.871 7.66846 105.251 7.66846C105.269 7.66846 105.287 7.66858 105.306 7.66885C104.141 7.6846 103.207 8.16685 103.207 8.75949C103.207 9.36211 104.173 9.85057 105.364 9.85057C106.556 9.85057 107.521 9.36211 107.521 8.75949C107.521 8.59467 107.449 8.43839 107.32 8.29827C107.828 8.63908 108.249 9.10181 108.542 9.64513L108.487 10.4248C107.011 11.6307 104.229 11.9178 102.015 9.7357V9.54665Z" fill="#C9CFDB"/>
<path d="M108.487 10.4248L108.542 9.64513C108.25 9.10181 107.828 8.63908 107.321 8.29827C107.45 8.43839 107.522 8.59467 107.522 8.75949C107.522 9.36211 106.556 9.85057 105.365 9.85057C104.173 9.85057 103.207 9.36211 103.207 8.75949C103.207 8.16685 104.142 7.6846 105.306 7.66885C105.288 7.66858 105.27 7.66846 105.252 7.66846C103.872 7.66846 102.666 8.42311 102.015 9.54665V9.7357M108.487 10.4248C107.011 11.6307 104.229 11.9178 102.015 9.7357M108.487 10.4248V13.3702M102.015 9.7357L101.93 13.2133" stroke="#6E7E92" stroke-width="0.2" stroke-linecap="round" stroke-linejoin="round"/>
<path d="M105.476 10.0659C104.165 10.0659 103.101 9.52921 103.101 8.86717C103.101 8.20514 104.165 7.66846 105.476 7.66846C106.788 7.66846 107.852 8.20514 107.852 8.86717C107.852 9.52921 106.788 10.0659 105.476 10.0659Z" fill="#C9CFDB" stroke="#6E7E92" stroke-width="0.2" stroke-linecap="round" stroke-linejoin="round"/>
<path d="M90.646 19.396L89.5527 18.8436L102.268 10.1724L104.272 11.2772L90.646 19.396Z" fill="#C9CFDB" stroke="#6E7E92" stroke-width="0.2" stroke-linecap="round" stroke-linejoin="round"/>
<path d="M90.646 19.3957L89.5527 18.8433V19.2111L90.646 19.7915V19.3957Z" fill="#C9CFDB" stroke="#6E7E92" stroke-width="0.2" stroke-linecap="round" stroke-linejoin="round"/>
<path d="M90.6455 19.7887V19.3959L104.133 11.1455V15.5261L98.6366 18.1443L90.6455 19.7887Z" fill="#C9CFDB" stroke="#6E7E92" stroke-width="0.2" stroke-linecap="round" stroke-linejoin="round"/>
<path d="M125.911 26.2636L112.176 21.9487L113.005 8.34387L112.612 6.49463L128.658 10.8094L127.219 11.9982L125.911 26.2636Z" fill="#E0E4EC" stroke="#6E7E92" stroke-width="0.2" stroke-linecap="round" stroke-linejoin="round"/>
<path d="M132.633 8.74512L131.179 9.53393V11.6811L132.456 10.9361L132.633 8.74512Z" fill="#9EA9B9" stroke="#6E7E92" stroke-width="0.2" stroke-linecap="round" stroke-linejoin="round"/>
<path d="M132.632 8.74356L131.195 9.52778L109.558 3.95078L111.081 3.1665L132.632 8.74356Z" fill="#EFF1F6" stroke="#6E7E92" stroke-width="0.2" stroke-linecap="round" stroke-linejoin="round"/>
<path d="M131.178 11.6801V9.55029L109.558 3.94873L109.645 5.69922L131.178 11.6801Z" fill="#E0E4EC" stroke="#6E7E92" stroke-width="0.2" stroke-linecap="round" stroke-linejoin="round"/>
</svg>
