<svg width="172" height="108" viewBox="0 0 172 108" fill="none" xmlns="http://www.w3.org/2000/svg">
<path d="M58.8818 82.3634L143.332 30.2V28.5862L148.492 20.1626L132.167 16.0269L33.9861 67.2155L24.0157 73.9742L19.5481 81.1858L19.3076 88.7163C32.0313 90.5294 47.2889 87.5017 58.8818 82.3634Z" fill="#E0E4EC"/>
<path d="M58.8818 82.3634L33.9861 67.2155M58.8818 82.3634C47.2889 87.5017 32.0313 90.5294 19.3076 88.7163L19.5481 81.1858L24.0157 73.9742L33.9861 67.2155M58.8818 82.3634L143.332 30.2V28.5862L148.492 20.1626L132.167 16.0269L33.9861 67.2155" stroke="#6E7E92" stroke-width="0.2" stroke-linecap="round" stroke-linejoin="round"/>
<path d="M17.5594 86.5128L19.4788 86.8078L20.3647 81.0245L24.7449 73.9539L31.388 68.9666L130.776 16.6197L147.504 21.5642L150.978 18.9266L134.047 14.1799L125.22 13.021L114.94 18.452V20.0343L112.43 23.8415L40.0021 60.0106C40.0021 60.0106 32.6095 63.521 28.4362 66.3395C25.8155 68.1095 23.7606 69.1292 22.1364 70.7895C20.7584 72.1982 18.396 76.1789 17.5594 77.8105C16.8481 79.1977 16.7227 81.7167 16.7227 81.7167L17.5594 86.5128Z" fill="#EFF1F6"/>
<path d="M17.5594 86.5128C17.5594 86.5128 18.3373 86.6451 19.4788 86.8078M17.5594 86.5128L19.4788 86.8078M17.5594 86.5128L16.7227 81.7167C16.7227 81.7167 16.8481 79.1977 17.5594 77.8106C18.396 76.1789 20.7584 72.1982 22.1364 70.7895C23.7606 69.1291 25.8155 68.1095 28.4362 66.3395C32.6095 63.521 40.0021 60.0106 40.0021 60.0106L112.43 23.8415L114.94 20.0343V18.452L125.22 13.021L134.047 14.1799L150.978 18.9266L147.504 21.5642L130.776 16.6197L31.388 68.9666L24.7449 73.9539L20.3647 81.0244L19.4788 86.8078" stroke="#6E7E92" stroke-width="0.2" stroke-linecap="round" stroke-linejoin="round"/>
<path d="M141.203 25.4395L143.135 24.1772L144.307 12.0498L143.441 11.7612L142.342 12.735L141.203 25.4395Z" fill="#9EA9B9" stroke="#6E7E92" stroke-width="0.2" stroke-linecap="round" stroke-linejoin="round"/>
<path d="M141.322 25.6272L127.383 21.4283L128.097 9.02546L127.758 7.47852L143.69 11.6775L142.45 12.672L141.322 25.6272Z" fill="#E0E4EC" stroke="#6E7E92" stroke-width="0.2" stroke-linecap="round" stroke-linejoin="round"/>
<path d="M147.396 10.4575L145.913 11.0576V12.6915L147.216 12.1247L147.396 10.4575Z" fill="#9EA9B9" stroke="#6E7E92" stroke-width="0.2" stroke-linecap="round" stroke-linejoin="round"/>
<path d="M147.395 10.5405L146.196 11.2025L125.158 5.90705L126.43 5.24512L147.395 10.5405Z" fill="#EFF1F6" stroke="#6E7E92" stroke-width="0.2" stroke-linecap="round" stroke-linejoin="round"/>
<path d="M145.913 12.6917V11.0017L125.158 5.98975L125.23 7.37876L145.913 12.6917Z" fill="#E0E4EC" stroke="#6E7E92" stroke-width="0.2" stroke-linecap="round" stroke-linejoin="round"/>
<path d="M142.243 41.3301L60.673 95.8961C60.673 95.8961 55.7604 98.5466 52.3905 99.6779C48.2593 101.066 45.7673 101.284 41.4476 101.847C37.3171 102.385 33.8176 103.111 30.8058 102.553C28.1228 102.055 26.5864 94.6451 24.2299 93.2636C21.9362 91.919 20.6752 90.9434 19.0596 88.826C18.3947 87.9544 17.5537 86.4557 17.5537 86.4557C17.5537 86.4557 22.6748 87.3267 25.9868 87.3635C28.6586 87.3932 30.1575 87.2009 32.8137 86.9096C38.1565 86.3238 46.3167 84.2368 46.3167 84.2368C46.3167 84.2368 53.3945 82.1187 56.2557 80.2024C57.7616 79.1937 61.7272 80.2528 61.7272 80.2528L138.227 30.6795C139.633 29.8223 141.541 26.2921 141.541 26.2921V24.6783L150.978 18.9292V20.3413L146.36 27.7041L142.243 41.3301Z" fill="#9EA9B9" stroke="#6E7E92" stroke-width="0.2" stroke-linecap="round" stroke-linejoin="round"/>
<path d="M48.8113 77.3301L36.6514 84.7746V86.149L48.8113 78.6663V77.3301Z" fill="#E0E4EC" stroke="#6E7E92" stroke-width="0.2" stroke-linecap="round" stroke-linejoin="round"/>
<path d="M24.9258 78.3687L36.6514 84.7735V86.1478L24.9658 79.6952L24.9258 78.3687Z" fill="#E0E4EC" stroke="#6E7E92" stroke-width="0.2" stroke-linecap="round" stroke-linejoin="round"/>
<path d="M48.8104 77.3305L36.6504 84.7749L37.1676 71.5771L48.8104 77.3305Z" fill="#EFF1F6"/>
<path d="M24.8848 78.3702L36.6504 84.7749L37.1676 71.5771L24.8848 78.3702Z" fill="#EFF1F6"/>
<path d="M36.6504 84.7749L48.8104 77.3305L37.1676 71.5771M36.6504 84.7749L37.1676 71.5771M36.6504 84.7749L24.8848 78.3702L37.1676 71.5771" stroke="#6E7E92" stroke-width="0.2" stroke-linecap="round" stroke-linejoin="round"/>
<path d="M138.407 29.1856V27.793L129.449 33.2645V34.7257L138.407 29.1856Z" fill="#9EA9B9" stroke="#6E7E92" stroke-width="0.2" stroke-linecap="round" stroke-linejoin="round"/>
<path d="M138.406 29.1856V27.793L129.449 33.2645V34.7257L138.406 29.1856Z" fill="#9EA9B9" stroke="#6E7E92" stroke-width="0.2" stroke-linecap="round" stroke-linejoin="round"/>
<path d="M138.406 29.1856V27.793L129.449 33.2645V34.7257L138.406 29.1856Z" fill="#9EA9B9" stroke="#6E7E92" stroke-width="0.2" stroke-linecap="round" stroke-linejoin="round"/>
<path d="M119.919 22.6021L138.405 27.7927L129.455 33.256L110.915 27.5123L119.919 22.6021Z" fill="#EFF1F6"/>
<path d="M119.919 22.6021L138.405 27.7927L129.455 33.256M119.919 22.6021L110.915 27.5123L129.455 33.256M119.919 22.6021L129.455 33.256" stroke="#6E7E92" stroke-width="0.2" stroke-linecap="round" stroke-linejoin="round"/>
<path d="M110.896 28.9092V27.5166L129.449 33.2641V34.7252L110.896 28.9092Z" fill="#E0E4EC" stroke="#6E7E92" stroke-width="0.2" stroke-linecap="round" stroke-linejoin="round"/>
<path d="M117.312 40.6793V42.2333L138.406 29.1924V27.812L117.312 40.6793Z" fill="#9EA9B9" stroke="#6E7E92" stroke-width="0.2" stroke-linecap="round" stroke-linejoin="round"/>
<path d="M117.301 40.6904L98.4102 34.3595L119.931 22.5923L138.361 27.8087L117.301 40.6904Z" fill="#EFF1F6"/>
<path d="M117.301 40.6904L98.4102 34.3595L119.931 22.5923M117.301 40.6904L138.361 27.8087L119.931 22.5923M117.301 40.6904L119.931 22.5923" stroke="#6E7E92" stroke-width="0.2" stroke-linecap="round" stroke-linejoin="round"/>
<path d="M117.312 40.6797V42.2336L98.374 35.6768L98.3749 34.3413L117.312 40.6797Z" fill="#E0E4EC" stroke="#6E7E92" stroke-width="0.2" stroke-linecap="round" stroke-linejoin="round"/>
<path d="M105.14 49.7011V48.1528L114.567 42.4004V43.8578L105.14 49.7011Z" fill="#9EA9B9" stroke="#6E7E92" stroke-width="0.2" stroke-linecap="round" stroke-linejoin="round"/>
<path d="M105.119 48.176L86.0381 41.132L95.6728 35.834L114.568 42.4006L105.119 48.176Z" fill="#EFF1F6"/>
<path d="M105.119 48.176L86.0381 41.132L95.6728 35.834M105.119 48.176L114.568 42.4006L95.6728 35.834M105.119 48.176L95.6728 35.834" stroke="#6E7E92" stroke-width="0.2" stroke-linecap="round" stroke-linejoin="round"/>
<path d="M105.14 49.7016V48.1533L85.9863 41.0947V42.4346L105.14 49.7016Z" fill="#E0E4EC" stroke="#6E7E92" stroke-width="0.2" stroke-linecap="round" stroke-linejoin="round"/>
<path d="M91.0879 58.4103V56.7265L114.557 42.3984V43.8609L91.0879 58.4103Z" fill="#9EA9B9" stroke="#6E7E92" stroke-width="0.2" stroke-linecap="round" stroke-linejoin="round"/>
<path d="M91.0877 56.7265L72.0068 48.8099L95.6726 35.834L114.539 42.4092L91.0877 56.7265Z" fill="#EFF1F6"/>
<path d="M91.0877 56.7265L72.0068 48.8099L95.6726 35.834M91.0877 56.7265L114.539 42.4092L95.6726 35.834M91.0877 56.7265L95.6726 35.834" stroke="#6E7E92" stroke-width="0.2" stroke-linecap="round" stroke-linejoin="round"/>
<path d="M91.0874 58.4109V56.727L71.9619 48.7764V50.4855L91.0874 58.4109Z" fill="#E0E4EC" stroke="#6E7E92" stroke-width="0.2" stroke-linecap="round" stroke-linejoin="round"/>
<path d="M75.1719 68.2738V66.4365L87.2858 59.0454V60.766L75.1719 68.2738Z" fill="#9EA9B9" stroke="#6E7E92" stroke-width="0.2" stroke-linecap="round" stroke-linejoin="round"/>
<path d="M75.1722 66.436L55.7754 57.6241L67.8559 51.0112L87.2861 59.045L75.1722 66.436Z" fill="#EFF1F6"/>
<path d="M75.1722 66.436L55.7754 57.6241L67.8559 51.0112M75.1722 66.436L87.2861 59.045L67.8559 51.0112M75.1722 66.436L67.8559 51.0112" stroke="#6E7E92" stroke-width="0.2" stroke-linecap="round" stroke-linejoin="round"/>
<path d="M75.1716 68.2743V66.4368L55.7568 57.6094V59.4874L75.1716 68.2743Z" fill="#E0E4EC" stroke="#6E7E92" stroke-width="0.2" stroke-linecap="round" stroke-linejoin="round"/>
<path d="M55.8115 78.4244V80.2732L87.2958 60.7919V59.061L55.8115 78.4244Z" fill="#9EA9B9" stroke="#6E7E92" stroke-width="0.2" stroke-linecap="round" stroke-linejoin="round"/>
<path d="M36.2432 68.279L67.8735 51.0088L87.2819 59.0429L55.8157 78.4128L36.2432 68.279Z" fill="#EFF1F6"/>
<path d="M67.8735 51.0088L36.2432 68.279L55.8157 78.4128M67.8735 51.0088L87.2819 59.0429L55.8157 78.4128M67.8735 51.0088L55.8157 78.4128" stroke="#6E7E92" stroke-width="0.2" stroke-linecap="round" stroke-linejoin="round"/>
<path d="M55.812 78.4237V80.2725L36.209 69.8898V68.2827L55.812 78.4237Z" fill="#E0E4EC" stroke="#6E7E92" stroke-width="0.2" stroke-linecap="round" stroke-linejoin="round"/>
<path d="M102.576 93.0887C103.375 95.0327 98.5222 97.4456 91.8662 100.206C85.2105 102.966 78.988 103.584 78.1892 101.641C77.3549 99.6101 81.1032 97.4141 84.5055 95.7185C86.3222 94.814 87.8712 93.9932 88.9471 93.5468C92.5013 92.0726 95.0365 90.8495 97.2896 90.8999C99.2559 90.9449 102.204 92.1833 102.576 93.0887Z" fill="#EFF1F6" stroke="#6E7E92" stroke-width="0.2" stroke-linecap="round" stroke-linejoin="round"/>
<path d="M102.576 93.0887C103.375 95.0327 98.5222 97.4456 91.8662 100.206C85.2105 102.966 78.988 103.584 78.1892 101.641C77.3549 99.6101 81.1032 97.4141 84.5055 95.7185C86.3222 94.814 87.8712 93.9932 88.9471 93.5468C92.5013 92.0726 95.0365 90.8495 97.2896 90.8999C99.2559 90.9449 102.204 92.1833 102.576 93.0887Z" fill="#EFF1F6" stroke="#6E7E92" stroke-width="0.2" stroke-linecap="round" stroke-linejoin="round"/>
<path d="M102.086 94.903C102.576 96.226 96.7838 99.1789 91.8011 101.639C86.3804 104.316 80.7059 106.14 78.1896 102.591C75.6732 99.043 81.1035 98.3644 84.5057 96.6697C86.3225 95.7652 87.8716 94.9444 88.9474 94.498C92.5017 93.0238 95.0369 91.8007 97.2899 91.8511C98.338 91.8745 103.555 92.3749 103.555 92.3749C103.336 93.7834 102.005 94.6825 102.086 94.903Z" fill="#9EA9B9" stroke="#6E7E92" stroke-width="0.2" stroke-linecap="round" stroke-linejoin="round"/>
<path d="M104.012 91.3229C104.764 93.1562 98.7137 95.9021 91.8015 99.2465C85.012 102.691 77.8084 103.298 76.6185 100.536C75.619 98.216 80.093 96.2612 83.9081 94.3523C85.9453 93.3335 87.6819 92.4084 88.8891 91.9071C92.8783 90.2529 95.7207 88.8758 98.2595 88.957C100.475 89.0279 103.583 90.2807 104.012 91.3229Z" fill="#E0E4EC"/>
<path fill-rule="evenodd" clip-rule="evenodd" d="M102.663 93.4929C103.74 92.6739 104.267 91.9476 104.011 91.3266C103.583 90.2844 100.474 89.0313 98.26 88.9604C96.0616 88.8902 93.6357 89.913 90.4349 91.2627C89.9395 91.4715 89.4245 91.6884 88.8891 91.9107C88.0126 92.2743 86.857 92.8611 85.5099 93.546C85.0017 93.8043 84.4662 94.077 83.9081 94.356C83.5891 94.5153 83.2654 94.6755 82.9408 94.8357C79.3831 96.5943 75.7025 98.4132 76.6185 100.54C76.8981 101.189 77.5095 101.651 78.3695 101.936C78.2942 101.844 78.2343 101.746 78.1906 101.64C77.3563 99.6084 81.1045 97.4124 84.5068 95.7177C85.0044 95.4702 85.482 95.2281 85.9353 94.9995C87.1367 94.3911 88.1673 93.87 88.9484 93.546C89.4254 93.348 89.8839 93.1554 90.3265 92.9691C93.1779 91.7667 95.3405 90.8559 97.2916 90.8991C99.2571 90.9432 102.205 92.1825 102.577 93.0879C102.632 93.2211 102.66 93.3561 102.663 93.4929Z" fill="#EFF1F6"/>
<path d="M102.664 93.4931L102.574 93.4949C102.575 93.5291 102.595 93.5597 102.624 93.5741C102.655 93.5885 102.691 93.5849 102.717 93.5651L102.664 93.4931ZM78.3702 101.936L78.3423 102.022C78.3803 102.033 78.4218 102.02 78.4443 101.986C78.4668 101.953 78.4647 101.909 78.4391 101.878L78.3702 101.936ZM103.93 91.361C104.042 91.6346 103.988 91.9397 103.762 92.2871C103.536 92.6354 103.145 93.0143 102.61 93.4211L102.717 93.5651C103.259 93.1529 103.67 92.7596 103.913 92.3852C104.156 92.009 104.238 91.64 104.094 91.2926L103.93 91.361ZM98.2571 89.0506C99.3518 89.0856 100.672 89.4133 101.772 89.8628C102.322 90.0875 102.814 90.3413 103.193 90.6014C103.577 90.8642 103.833 91.1261 103.93 91.361L104.094 91.2926C103.977 91.0064 103.684 90.7202 103.294 90.4529C102.902 90.1829 102.398 89.9238 101.84 89.696C100.725 89.2406 99.3841 88.9065 98.2634 88.8707L98.2571 89.0506ZM90.4705 91.3457C92.0714 90.6707 93.4742 90.0794 94.7517 89.6649C96.0283 89.2508 97.1731 89.0159 98.2571 89.0506L98.2634 88.8707C97.1499 88.835 95.9826 89.0765 94.6962 89.4936C93.4106 89.9106 92.0006 90.5051 90.4015 91.1801L90.4705 91.3457ZM88.924 91.9937C89.4596 91.7723 89.9742 91.5545 90.4705 91.3457L90.4015 91.1801C89.9053 91.3889 89.3907 91.6058 88.8557 91.8272L88.924 91.9937ZM85.5511 93.6263C86.8995 92.9414 88.0514 92.3555 88.924 91.9937L88.8557 91.8272C87.9752 92.1926 86.816 92.7821 85.4702 93.4661L85.5511 93.6263ZM83.9488 94.4363C84.5071 94.1573 85.0428 93.8846 85.5511 93.6263L85.4702 93.4661C84.962 93.7244 84.4267 93.9962 83.8689 94.2752L83.9488 94.4363ZM82.9811 94.9169C83.3056 94.7567 83.6295 94.5965 83.9488 94.4363L83.8689 94.2752C83.5501 94.4354 83.2266 94.5947 82.902 94.7549L82.9811 94.9169ZM76.7015 100.504C76.485 100.002 76.5383 99.5186 76.7989 99.0425C77.0617 98.5619 77.5352 98.0894 78.1564 97.6223C79.3986 96.6881 81.1995 95.7971 82.9811 94.9169L82.902 94.7549C81.1257 95.6333 79.3075 96.5315 78.049 97.4783C77.4198 97.9508 76.9227 98.4422 76.6418 98.9552C76.3587 99.4736 76.2955 100.015 76.5371 100.575L76.7015 100.504ZM78.3982 101.851C77.5523 101.571 76.9673 101.122 76.7015 100.504L76.5371 100.575C76.8304 101.257 77.4681 101.733 78.3423 102.022L78.3982 101.851ZM78.4391 101.878C78.3692 101.794 78.3142 101.703 78.2741 101.605L78.1085 101.674C78.1558 101.789 78.2205 101.896 78.3013 101.993L78.4391 101.878ZM78.2741 101.605C78.0786 101.13 78.1483 100.641 78.426 100.14C78.7052 99.6365 79.1916 99.1271 79.8167 98.6231C81.0666 97.6151 82.8464 96.6458 84.5473 95.7989L84.4677 95.6378C82.7663 96.4847 80.9709 97.4612 79.7046 98.4827C79.0717 98.993 78.5649 99.5195 78.2695 100.052C77.9728 100.587 77.8868 101.134 78.1085 101.674L78.2741 101.605ZM84.5473 95.7989C85.0453 95.5505 85.523 95.3093 85.9763 95.0798L85.8957 94.9187C85.4424 95.1482 84.9651 95.3894 84.4677 95.6378L84.5473 95.7989ZM85.9763 95.0798C87.179 94.4714 88.206 93.9521 88.9833 93.6299L88.9149 93.4634C88.13 93.7892 87.0958 94.3121 85.8957 94.9187L85.9763 95.0798ZM88.9833 93.6299C89.4606 93.4319 89.9196 93.2384 90.3612 93.0521L90.2923 92.8856C89.8497 93.0719 89.3917 93.2654 88.9149 93.4634L88.9833 93.6299ZM90.3612 93.0521C91.7883 92.4509 93.038 91.9235 94.1748 91.5527C95.3116 91.1819 96.3284 90.9677 97.2896 90.9893L97.2941 90.8093C96.3042 90.7877 95.265 91.0073 94.1193 91.3817C92.9744 91.7552 91.7175 92.2853 90.2923 92.8856L90.3612 93.0521ZM97.2896 90.9893C98.258 91.0109 99.4754 91.3286 100.498 91.7543C101.009 91.9667 101.468 92.2052 101.822 92.4446C102.178 92.6876 102.413 92.9225 102.495 93.1223L102.661 93.0539C102.557 92.801 102.283 92.5418 101.922 92.2961C101.556 92.0477 101.085 91.8038 100.567 91.5878C99.531 91.1567 98.2911 90.8318 97.2941 90.8093L97.2896 90.9893ZM102.495 93.1223C102.545 93.2456 102.571 93.3698 102.574 93.4949L102.753 93.4913C102.75 93.3428 102.719 93.197 102.661 93.0539L102.495 93.1223Z" fill="#6E7E92"/>
<path d="M88.0681 101.026L82.4443 97.9211V96.1742L83.086 96.3263V93.5444L86.109 92.0513L88.4903 93.2096L90.7534 92.2205L96.1741 94.6127C96.5682 94.7954 96.7178 94.9592 96.7993 95.4101C96.8235 95.546 97.0529 95.5118 97.0529 95.6648V96.2588C93.9264 98.0912 91.9601 99.1298 88.0681 101.026Z" fill="#C9CFDB"/>
<path d="M88.0681 101.026L82.4443 97.9211V96.1742L83.086 96.3263V93.5444M88.0681 101.026V99.2279L87.2575 98.6681M88.0681 101.026C91.9601 99.1298 93.9264 98.0912 97.0529 96.2588V95.6648C97.0529 95.5118 96.8235 95.546 96.7993 95.4101C96.7178 94.9592 96.5682 94.7954 96.1741 94.6127M83.086 93.5444L87.2575 95.6306M83.086 93.5444L86.109 92.0513L88.4903 93.2096M87.2575 98.6681V95.6306M87.2575 98.6681L92.932 96.0878M96.1741 94.6127L92.932 96.0878M96.1741 94.6127L90.7534 92.2205L88.4903 93.2096M87.2575 95.6306L90.4658 94.1717M92.932 96.0878C92.932 94.7315 90.4658 95.6648 90.4658 94.1717M90.4658 94.1717L88.4903 93.2096" stroke="#6E7E92" stroke-width="0.2" stroke-linecap="round" stroke-linejoin="round"/>
<path d="M83.0869 93.5444L87.2584 95.6306L90.4668 94.1717L88.4912 93.2096L86.11 92.0513L83.0869 93.5444Z" fill="#EFF1F6" stroke="#6E7E92" stroke-width="0.2" stroke-linecap="round" stroke-linejoin="round"/>
<path d="M88.0681 101.028L82.4443 97.9225V96.1756L83.086 96.3277V93.5449L87.2575 95.632V98.6695L88.0681 99.2293V101.028Z" fill="#E0E4EC" stroke="#6E7E92" stroke-width="0.2" stroke-linecap="round" stroke-linejoin="round"/>
<path fill-rule="evenodd" clip-rule="evenodd" d="M86.9764 85.206L86.1826 85.0532L86.384 93.6214C86.3839 93.6232 86.384 93.6259 86.3842 93.6286L86.3843 93.6313C86.3942 93.7096 86.5425 93.8068 86.7385 93.8599C86.9546 93.9184 87.1474 93.8995 87.1689 93.8194C87.1736 93.8014 87.1699 93.7825 87.1591 93.7636L86.9764 85.206Z" fill="#EFF1F6"/>
<path d="M86.1824 85.0534L86.1992 84.965C86.1726 84.9599 86.1452 84.9671 86.1245 84.9847C86.1038 85.0023 86.0922 85.0283 86.0928 85.0554L86.1824 85.0534ZM86.9762 85.2061L87.0657 85.2041C87.0648 85.1616 87.0345 85.1256 86.993 85.1176L86.9762 85.2061ZM86.3838 93.6216L86.4734 93.6252L86.4733 93.6189L86.3838 93.6216ZM86.3839 93.6288L86.4737 93.627L86.4733 93.6216L86.3839 93.6288ZM86.384 93.6315L86.2944 93.6342C86.2954 93.6747 86.3237 93.7098 86.3633 93.7197L86.384 93.6315ZM86.384 93.6315L86.4731 93.6207C86.4683 93.5829 86.4413 93.5532 86.405 93.5442L86.384 93.6315ZM87.1588 93.7638L87.0693 93.7656C87.0696 93.78 87.0735 93.7944 87.0805 93.807L87.1588 93.7638ZM86.1655 85.1418L86.9593 85.2945L86.993 85.1176L86.1992 84.965L86.1655 85.1418ZM86.4733 93.6189L86.272 85.0512L86.0928 85.0554L86.2942 93.6234L86.4733 93.6189ZM86.4733 93.6216C86.4733 93.6225 86.4733 93.6234 86.4733 93.6243L86.2943 93.618C86.294 93.6243 86.2942 93.6306 86.2947 93.6369L86.4733 93.6216ZM86.4736 93.6297L86.4737 93.627L86.2944 93.6315L86.2944 93.6342L86.4736 93.6297ZM86.7614 93.7728C86.6705 93.7485 86.5935 93.7143 86.5401 93.6801C86.5133 93.6621 86.4948 93.6468 86.4835 93.6333C86.4713 93.6198 86.4725 93.6153 86.4731 93.6207L86.2954 93.6432C86.3011 93.6873 86.3245 93.7242 86.349 93.7521C86.3744 93.7818 86.407 93.8079 86.4429 93.8313C86.515 93.8781 86.61 93.9186 86.715 93.9465L86.7614 93.7728ZM87.0822 93.7962C87.0859 93.7818 87.0944 93.7818 87.0831 93.7872C87.0719 93.7926 87.0508 93.7989 87.0181 93.8025C86.9532 93.8079 86.862 93.7998 86.7614 93.7728L86.715 93.9465C86.8307 93.978 86.9438 93.9897 87.0349 93.9816C87.08 93.9771 87.1247 93.9672 87.1624 93.9483C87.2 93.9303 87.2407 93.897 87.2552 93.8421L87.0822 93.7962ZM87.0805 93.807C87.0822 93.8106 87.0818 93.8106 87.0814 93.8079C87.081 93.8061 87.0807 93.8016 87.0822 93.7962L87.2552 93.8421C87.2677 93.7962 87.2554 93.753 87.237 93.7197L87.0805 93.807ZM86.8866 85.208L87.0693 93.7656L87.2484 93.7611L87.0657 85.2041L86.8866 85.208Z" fill="#6E7E92"/>
<path d="M86.541 85.2826C86.7599 85.3378 86.9539 85.3168 86.9741 85.2357C86.9943 85.1546 86.8332 85.0442 86.6142 84.989C86.3953 84.9339 86.2014 84.9549 86.1811 85.0359C86.1609 85.117 86.322 85.2274 86.541 85.2826Z" fill="#EFF1F6" stroke="#6E7E92" stroke-width="0.2" stroke-linecap="round" stroke-linejoin="round"/>
</svg>
