<svg width="150" height="94" viewBox="0 0 150 94" fill="none" xmlns="http://www.w3.org/2000/svg">
<path d="M14.5285 82.3431L16.3145 82.6173L17.1388 77.2372L21.2145 70.6598L27.2135 65.7841L118.344 17.5799L133.909 22.1796L136.25 20.7537L120.496 16.338L109.781 14.6821L101.034 19.2818L98.6987 24.2954L35.4107 57.6888C35.4107 57.6888 28.5321 60.9543 24.6491 63.5763C22.2106 65.2228 20.2986 66.1714 18.7873 67.716C17.5052 69.0265 15.307 72.7296 14.5285 74.2475C13.8666 75.5378 13.75 77.8811 13.75 77.8811L14.5285 82.3431Z" fill="#EFF1F6"/>
<path d="M14.5285 82.3431C14.5285 82.3431 15.2523 82.4661 16.3145 82.6173M14.5285 82.3431L16.3145 82.6173M14.5285 82.3431L13.75 77.8811C13.75 77.8811 13.8666 75.5379 14.5285 74.2475C15.307 72.7296 17.5052 69.0265 18.7873 67.716C20.2986 66.1714 22.2106 65.2228 24.6491 63.5763C28.5321 60.9543 35.4107 57.6888 35.4107 57.6888L98.6987 24.2954L101.034 19.2818L109.781 14.6821L120.496 16.338L136.25 20.7537L133.909 22.1796L118.344 17.5799L27.2135 65.7841L21.2145 70.6598L17.1388 77.2372L16.3145 82.6173" stroke="#6E7E92" stroke-width="0.2" stroke-linecap="round" stroke-linejoin="round"/>
<path d="M22.3073 83.1641C24.7429 83.1908 26.1095 83.0153 28.5308 82.7498C33.4014 82.2147 36.1462 81.722 40.8402 80.3089C44.5635 79.1879 50.1295 83.3944 50.1295 83.3944L56.2156 78.8809L127.648 34.0749V25.9242L133.911 22.102L118.358 17.4971L27.2952 65.7571L21.3006 70.6383L17.228 77.2234L16.4043 82.6095C18.0394 82.843 20.4766 83.1438 22.3073 83.1641Z" fill="#E0E4EC"/>
<path d="M101.182 23.8643L122.821 30.893V33.1251L101.182 26.2345V23.8643Z" fill="#E0E4EC" stroke="#6E7E92" stroke-width="0.2" stroke-linecap="round" stroke-linejoin="round"/>
<path d="M129.102 26.9136L122.822 30.8924V33.1245L129.102 29.1457V26.9136Z" fill="#C9CFDB" stroke="#6E7E92" stroke-width="0.2" stroke-linecap="round" stroke-linejoin="round"/>
<path d="M101.182 23.864L122.821 30.8928L127.382 28.0298L134.994 22.9832L116.397 17.5483L105.577 21.4304L101.182 23.864Z" fill="#EFF1F6" stroke="#6E7E92" stroke-width="0.2" stroke-linecap="round" stroke-linejoin="round"/>
<path d="M134.995 22.9837V13.4731L122.822 20.8974V30.8932C126.936 28.3436 130.986 25.6987 134.995 22.9837Z" fill="#C9CFDB" stroke="#6E7E92" stroke-width="0.2" stroke-linecap="round" stroke-linejoin="round"/>
<path d="M107.557 6.33984L134.994 13.4729L122.821 20.8973L107.268 17.0153L107.557 6.33984Z" fill="#EFF1F6" stroke="#6E7E92" stroke-width="0.2" stroke-linecap="round" stroke-linejoin="round"/>
<path d="M119.982 34.9378L122.61 32.9796L122.687 14.0766L121.4 13.8101L119.937 15.2665L119.982 34.9378Z" fill="#C9CFDB" stroke="#6E7E92" stroke-width="0.2" stroke-linecap="round" stroke-linejoin="round"/>
<path d="M120.339 34.9529L104.341 31.6993L103.857 10.8042L103.22 8.81348L121.835 13.7797L120.33 15.2431L120.339 34.9529Z" fill="#E0E4EC" stroke="#6E7E92" stroke-width="0.2" stroke-linecap="round" stroke-linejoin="round"/>
<path d="M125.612 11.1636L124.107 12.1852L124.332 14.5522L125.649 13.5972L125.612 11.1636Z" fill="#C9CFDB" stroke="#6E7E92" stroke-width="0.2" stroke-linecap="round" stroke-linejoin="round"/>
<path d="M125.611 11.1641L124.107 12.1858L100.553 6.33997L102.154 5.30908L125.611 11.1641Z" fill="#EFF1F6" stroke="#6E7E92" stroke-width="0.2" stroke-linecap="round" stroke-linejoin="round"/>
<path d="M124.331 14.5372L124.107 12.1863L100.563 6.30957L100.843 8.23255L124.331 14.5372Z" fill="#E0E4EC" stroke="#6E7E92" stroke-width="0.2" stroke-linecap="round" stroke-linejoin="round"/>
<path d="M41.5059 84.7071V77.1726L58.1868 66.9963L71.7461 58.7244L83.1887 51.744L94.2777 44.9788L103.502 39.3515L111.441 34.5082L119.38 29.665V35.1844L111.441 40.2331L103.502 45.2817L94.2777 51.1477L83.1887 58.1998L71.7461 65.4762L58.1868 74.099L41.5059 84.7071Z" fill="#EFF1F6"/>
<path d="M58.1868 66.9963L41.5059 77.1726V84.7071L58.1868 74.099M58.1868 66.9963V74.099M58.1868 66.9963L71.7461 58.7244M58.1868 74.099L71.7461 65.4762M71.7461 58.7244V65.4762M71.7461 58.7244L83.1887 51.744M71.7461 65.4762L83.1887 58.1998M83.1887 51.744V58.1998M83.1887 51.744L94.2777 44.9788M83.1887 58.1998L94.2777 51.1477M94.2777 44.9788V51.1477M94.2777 44.9788L103.502 39.3515M94.2777 51.1477L103.502 45.2817M103.502 39.3515V45.2817M103.502 39.3515L111.441 34.5082M103.502 45.2817L111.441 40.2331M111.441 34.5082L119.38 29.665V35.1844L111.441 40.2331M111.441 34.5082V40.2331" stroke="#6E7E92" stroke-width="0.2" stroke-linecap="round" stroke-linejoin="round"/>
<path d="M41.5059 84.7071V77.1726L58.1868 66.9963L71.7461 58.7244L83.1887 51.744L94.2777 44.9788L103.502 39.3515L111.441 34.5082L119.38 29.665V35.1844L111.441 40.2331L103.502 45.2817L94.2777 51.1477L83.1887 58.1998L71.7461 65.4762L58.1868 74.099L41.5059 84.7071Z" fill="#EFF1F6"/>
<path d="M58.1868 66.9963L41.5059 77.1726V84.7071L58.1868 74.099M58.1868 66.9963V74.099M58.1868 66.9963L71.7461 58.7244M58.1868 74.099L71.7461 65.4762M71.7461 58.7244V65.4762M71.7461 58.7244L83.1887 51.744M71.7461 65.4762L83.1887 58.1998M83.1887 51.744V58.1998M83.1887 51.744L94.2777 44.9788M83.1887 58.1998L94.2777 51.1477M94.2777 44.9788V51.1477M94.2777 44.9788L103.502 39.3515M94.2777 51.1477L103.502 45.2817M103.502 39.3515V45.2817M103.502 39.3515L111.441 34.5082M103.502 45.2817L111.441 40.2331M111.441 34.5082L119.38 29.665V35.1844L111.441 40.2331M111.441 34.5082V40.2331" stroke="#6E7E92" stroke-width="0.2" stroke-linecap="round" stroke-linejoin="round"/>
<path d="M21.2137 69.5418L21.1885 66.0732L23.5071 67.3465L26.2795 68.869L28.6757 70.1848L31.3706 71.6647L33.8404 73.021L36.3104 74.3774L38.9081 75.8039L41.5058 77.2305V80.9708V84.6063L38.9081 83.1195L36.3104 81.6335L33.8404 80.2204L31.3706 78.8073L28.6757 77.2653L26.2795 75.8944L23.5071 74.3082L21.2389 73.0104L21.2137 69.5418Z" fill="#E0E4EC"/>
<path d="M26.2795 68.869V75.8944M26.2795 68.869L28.6757 70.1848M26.2795 68.869L23.5071 67.3465M26.2795 75.8944L28.6757 77.2653M26.2795 75.8944L23.5071 74.3082M28.6757 70.1848L31.3706 71.6647M28.6757 70.1848V77.2653M23.5071 67.3465L21.1885 66.0732L21.2137 69.5418M23.5071 67.3465V74.3082M28.6757 77.2653L31.3706 78.8073M23.5071 74.3082L21.2389 73.0104L21.2137 69.5418M31.3706 71.6647V78.8073M31.3706 71.6647L33.8404 73.021M31.3706 78.8073L33.8404 80.2204M33.8404 73.021L36.3104 74.3774M33.8404 73.021V80.2204M33.8404 80.2204L36.3104 81.6335M36.3104 74.3774V81.6335M36.3104 74.3774L38.9081 75.8039M36.3104 81.6335L38.9081 83.1195M38.9081 75.8039L41.5058 77.2305V80.9708M38.9081 75.8039V83.1195M38.9081 83.1195L41.5058 84.6063V80.9708M21.2137 69.5418L41.5058 80.9708" stroke="#6E7E92" stroke-width="0.2" stroke-linecap="round" stroke-linejoin="round"/>
<path d="M37.9234 57.1201L21.1885 66.0735L26.2678 68.8755L42.9968 59.6088L37.9234 57.1201Z" fill="#EFF1F6"/>
<path d="M26.2676 68.8756L31.347 71.6777L48.0648 62.095L42.9966 59.6089L26.2676 68.8756Z" fill="#EFF1F6"/>
<path d="M31.3467 71.6779L36.2595 74.388L52.9386 64.486L48.0645 62.0952L31.3467 71.6779Z" fill="#EFF1F6"/>
<path d="M41.5056 77.2817L58.1865 67.0599L52.9389 64.4858L36.2598 74.3878L41.5056 77.2817Z" fill="#EFF1F6"/>
<path d="M58.187 67.06L71.7464 58.7512L66.6561 56.3428L52.9395 64.4859L58.187 67.06Z" fill="#EFF1F6"/>
<path d="M61.9685 54.1255L48.0645 62.0954L52.9386 64.4862L66.6552 56.343L61.9685 54.1255Z" fill="#EFF1F6"/>
<path d="M57.0761 51.8101L42.9971 59.609L48.0653 62.0951L61.9693 54.1253L57.0761 51.8101Z" fill="#EFF1F6"/>
<path d="M68.769 45.3325L64.0333 43.186L37.9229 57.1204L42.9962 59.6091L57.0752 51.8101L68.769 45.3325Z" fill="#EFF1F6"/>
<path d="M61.9685 54.1254L73.5377 47.4939L68.769 45.3325L57.0752 51.8101L61.9685 54.1254Z" fill="#EFF1F6"/>
<path d="M66.6555 56.3427L78.0875 49.5557L73.538 47.4937L61.9688 54.1251L66.6555 56.3427Z" fill="#EFF1F6"/>
<path d="M71.7456 58.7511L83.1371 51.8446L78.0873 49.5557L66.6553 56.3426L71.7456 58.7511Z" fill="#EFF1F6"/>
<path fill-rule="evenodd" clip-rule="evenodd" d="M114.491 27.9446L119.129 29.7167L111.441 34.4431L103.502 39.3242L94.2778 44.9957L89.0934 43.0224L78.0881 49.556L73.5386 47.4939L68.7699 45.3326L64.0342 43.1861L74.6195 37.5129L84.0457 32.4611L92.3621 28.0035L101.637 23.0327L106.01 24.7037L110.382 26.3747L114.491 27.9446Z" fill="#EFF1F6"/>
<path d="M83.1377 51.8451L94.2776 44.9958L89.0932 43.0225L78.0879 49.5561L83.1377 51.8451Z" fill="#EFF1F6"/>
<path d="M119.128 29.7167C116.357 31.4203 113.827 32.9764 111.441 34.4431M119.128 29.7167L114.491 27.9446M119.128 29.7167L111.441 34.4431M111.441 34.4431C108.645 36.1616 106.05 37.7575 103.502 39.3242M111.441 34.4431L103.502 39.3242M111.441 34.4431L92.3618 28.0035M114.491 27.9446L110.382 26.3747M114.491 27.9446L89.0931 43.0224M83.1376 51.845L71.7461 58.7514M83.1376 51.845C87.2821 49.2966 90.89 47.0785 94.2775 44.9957M83.1376 51.845L78.0878 49.556M83.1376 51.845L94.2775 44.9957M71.7461 58.7514L58.1867 67.0602M71.7461 58.7514L66.6557 56.3429M94.2775 44.9957C97.4595 43.0395 100.447 41.2028 103.502 39.3242M94.2775 44.9957L103.502 39.3242M94.2775 44.9957L89.0931 43.0224M78.0878 49.556L66.6557 56.3429M78.0878 49.556L73.5382 47.4939M78.0878 49.556L89.0931 43.0224M64.0339 43.1861L37.9234 57.1205M64.0339 43.1861L74.6192 37.5129M64.0339 43.1861L68.7696 45.3326M37.9234 57.1205L21.1885 66.0739L26.2678 68.8759M37.9234 57.1205L42.9968 59.6091M74.6192 37.5129L84.0454 32.4611M74.6192 37.5129L89.0931 43.0224M68.7696 45.3326L106.009 24.7037M68.7696 45.3326L57.0757 51.8102M68.7696 45.3326L73.5382 47.4939M110.382 26.3747L106.009 24.7037M110.382 26.3747L73.5382 47.4939M106.009 24.7037L101.637 23.0327L92.3618 28.0035M73.5382 47.4939L61.969 54.1254M58.1867 67.0602L41.5058 77.2819L36.26 74.3881M58.1867 67.0602L52.9391 64.4861M36.26 74.3881L31.3471 71.678M36.26 74.3881L52.9391 64.4861M52.9391 64.4861L48.065 62.0953M52.9391 64.4861L66.6557 56.3429M26.2678 68.8759L31.3471 71.678M26.2678 68.8759L42.9968 59.6091M42.9968 59.6091L48.065 62.0953M42.9968 59.6091L57.0757 51.8102M66.6557 56.3429L61.969 54.1254M52.4404 49.6169L57.0757 51.8102M57.0757 51.8102L61.969 54.1254M103.502 39.3242L84.0454 32.4611M84.0454 32.4611L92.3618 28.0035M31.3471 71.678L48.065 62.0953M48.065 62.0953L61.969 54.1254" stroke="#6E7E92" stroke-width="0.2" stroke-linecap="round" stroke-linejoin="round"/>
<path d="M41.5059 84.7081V80.9411V77.1735L58.1869 66.9973L71.7462 58.7253L83.1885 51.745L94.2776 44.9798L103.502 39.3525L111.441 34.5092L119.38 29.666V32.4257V35.1854L111.441 40.234L103.502 45.2827L94.2776 51.1487L83.1885 58.2008L71.7462 65.4772L58.1869 74.1L41.5059 84.7081Z" fill="#EFF1F6"/>
<path d="M37.9234 57.1201L21.1885 66.0735L23.5575 67.3804L26.2678 68.8755L42.9968 59.6088L37.9234 57.1201Z" fill="#EFF1F6"/>
<path d="M26.2676 68.8756L28.6484 70.1891L31.347 71.6777L48.0648 62.095L42.9966 59.6089L26.2676 68.8756Z" fill="#EFF1F6"/>
<path d="M31.3467 71.6779L33.6384 72.942L36.2595 74.388L52.9386 64.486L48.0645 62.0952L31.3467 71.6779Z" fill="#EFF1F6"/>
<path d="M41.5056 77.2817L58.1866 67.0599L52.9389 64.4858L36.2598 74.3878L38.7297 75.7503L41.5056 77.2817Z" fill="#EFF1F6"/>
<path d="M58.1871 67.06L71.7464 58.7512L66.6561 56.3428L52.9395 64.4859L58.1871 67.06Z" fill="#EFF1F6"/>
<path d="M61.9685 54.1255L48.0645 62.0954L52.9386 64.4862L66.6552 56.343L61.9685 54.1255Z" fill="#EFF1F6"/>
<path d="M57.0761 51.8101L42.9971 59.609L48.0653 62.0951L61.9693 54.1253L57.0761 51.8101Z" fill="#EFF1F6"/>
<path d="M68.769 45.3325L64.0333 43.186L37.9229 57.1204L42.9962 59.6091L57.0753 51.8101L68.769 45.3325Z" fill="#EFF1F6"/>
<path d="M61.9694 54.1254L73.5386 47.4939L68.7699 45.3325L57.0762 51.8101L61.9694 54.1254Z" fill="#EFF1F6"/>
<path d="M66.6555 56.3427L78.0875 49.5557L73.538 47.4937L61.9688 54.1251L66.6555 56.3427Z" fill="#EFF1F6"/>
<path d="M71.7456 58.7511L83.1371 51.8446L78.0873 49.5557L66.6553 56.3426L71.7456 58.7511Z" fill="#EFF1F6"/>
<path fill-rule="evenodd" clip-rule="evenodd" d="M114.491 27.9446L116.743 28.8053L119.129 29.7167L111.441 34.4431L103.502 39.3242L94.2778 44.9957L89.0934 43.0224L78.0881 49.556L73.5386 47.4939L68.7699 45.3326L64.0342 43.1861L74.6195 37.5129L84.0457 32.4611L92.3621 28.0035L101.637 23.0327L103.757 23.8429L106.01 24.7037L108.13 25.5139L110.382 26.3747L112.222 27.0778L114.491 27.9446Z" fill="#EFF1F6"/>
<path d="M83.1377 51.8451L94.2776 44.9958L89.0932 43.0225L78.0879 49.5561L83.1377 51.8451Z" fill="#EFF1F6"/>
<path d="M58.1868 66.9974L41.5057 77.1737V80.9412M58.1868 66.9974V74.1001M58.1868 66.9974L71.7461 58.7255M41.5057 80.9412V84.7082L58.1868 74.1001M41.5057 80.9412L119.38 32.4258M58.1868 74.1001L71.7461 65.4773M71.7461 58.7255V65.4773M71.7461 58.7255L83.1884 51.7451M71.7461 65.4773L83.1884 58.2009M83.1884 51.7451V58.2009M83.1884 51.7451L94.2775 44.9799M83.1884 58.2009L94.2775 51.1488M94.2775 44.9799V51.1488M94.2775 44.9799L103.502 39.3526M94.2775 51.1488L103.502 45.2828M103.502 39.3526V45.2828M103.502 39.3526L111.441 34.5093M103.502 45.2828L111.441 40.2342M111.441 34.5093L119.38 29.6661V32.4258M111.441 34.5093V40.2342M111.441 40.2342L119.38 35.1855V32.4258M119.128 29.7167C116.357 31.4203 113.827 32.9764 111.441 34.4431M119.128 29.7167L111.441 34.4431M119.128 29.7167L116.743 28.8053M111.441 34.4431C108.645 36.1616 106.05 37.7575 103.502 39.3242M111.441 34.4431L103.502 39.3242M111.441 34.4431L92.3618 28.0035M116.743 28.8053L114.491 27.9446M116.743 28.8053L38.7299 75.7506M83.1376 51.845L71.7461 58.7514M83.1376 51.845C87.2821 49.2966 90.89 47.0785 94.2775 44.9957M83.1376 51.845L78.0878 49.556M83.1376 51.845L94.2775 44.9957M71.7461 58.7514L58.1868 67.0602M71.7461 58.7514L66.6557 56.343M94.2775 44.9957C97.4595 43.0395 100.447 41.2028 103.502 39.3242M94.2775 44.9957L103.502 39.3242M94.2775 44.9957L89.0931 43.0224M78.0878 49.556L66.6557 56.343M78.0878 49.556L73.5382 47.4939M78.0878 49.556L89.0931 43.0224M64.0339 43.1861L37.9234 57.1205M64.0339 43.1861L74.6192 37.5129M64.0339 43.1861L68.7696 45.3326M37.9234 57.1205L21.1885 66.0739L23.5575 67.3808M37.9234 57.1205L42.9968 59.6091M74.6192 37.5129L84.0454 32.4611M74.6192 37.5129L89.0931 43.0224M68.7696 45.3326L106.009 24.7037M68.7696 45.3326L57.0758 51.8102M68.7696 45.3326L73.5382 47.4939M110.382 26.3747L73.5382 47.4939M110.382 26.3747L112.222 27.0778M110.382 26.3747L108.13 25.5139M73.5382 47.4939L61.969 54.1254M112.222 27.0778L114.491 27.9446M112.222 27.0778L33.6389 72.9421M108.13 25.5139L106.009 24.7037M108.13 25.5139L28.6486 70.1893M58.1868 67.0602L41.5058 77.2819L38.7299 75.7506M58.1868 67.0602L52.9391 64.4861M38.7299 75.7506L36.26 74.3881M52.9391 64.4861L36.26 74.3881M52.9391 64.4861L48.065 62.0953M52.9391 64.4861L66.6557 56.343M23.5575 67.3808L26.2678 68.8759M23.5575 67.3808L103.757 23.8429M42.9968 59.6091L26.2678 68.8759M42.9968 59.6091L48.065 62.0953M42.9968 59.6091L57.0758 51.8102M66.6557 56.343L61.969 54.1254M52.4404 49.6169L57.0758 51.8102M57.0758 51.8102L61.969 54.1254M103.502 39.3242L84.0454 32.4611M89.0931 43.0224L114.491 27.9446M84.0454 32.4611L92.3618 28.0035M92.3618 28.0035L101.637 23.0327L103.757 23.8429M103.757 23.8429L106.009 24.7037M31.3471 71.678L48.065 62.0953M31.3471 71.678L33.6389 72.9421M31.3471 71.678L28.6486 70.1893M48.065 62.0953L61.969 54.1254M33.6389 72.9421L36.26 74.3881M28.6486 70.1893L26.2678 68.8759" stroke="#6E7E92" stroke-width="0.2" stroke-linecap="round" stroke-linejoin="round"/>
<path d="M41.5059 84.7082V80.9412V77.1737L58.1869 66.9974L71.7462 58.7254L83.1885 51.7451L94.2776 44.9799L103.502 39.3526L111.441 34.5093L119.923 29.2925V32.2463V35.006L111.441 40.2342L103.502 45.2828L94.2776 51.1488L83.1885 58.2009L71.7462 65.4773L58.1869 74.1001L41.5059 84.7082Z" fill="#C9CFDB"/>
<path d="M37.9234 57.1201L21.1885 66.0735L23.5575 67.3804L26.2679 68.8755L42.9968 59.6088L37.9234 57.1201Z" fill="#C9CFDB"/>
<path d="M26.2676 68.8756L28.6484 70.1891L31.3469 71.6777L48.0647 62.095L42.9965 59.6089L26.2676 68.8756Z" fill="#C9CFDB"/>
<path d="M31.3467 71.678L33.6384 72.9421L36.2595 74.3881L52.9386 64.4861L48.0645 62.0952L31.3467 71.678Z" fill="#C9CFDB"/>
<path d="M41.5056 77.2817L58.1866 67.0599L52.9389 64.4858L36.2598 74.3878L38.7297 75.7503L41.5056 77.2817Z" fill="#C9CFDB"/>
<path d="M58.1871 67.06L71.7464 58.7512L66.6561 56.3428L52.9395 64.4859L58.1871 67.06Z" fill="#C9CFDB"/>
<path d="M61.9685 54.1255L48.0645 62.0953L52.9386 64.4862L66.6552 56.343L61.9685 54.1255Z" fill="#C9CFDB"/>
<path d="M57.0761 51.8101L42.9971 59.609L48.0653 62.0951L61.9693 54.1253L57.0761 51.8101Z" fill="#C9CFDB"/>
<path d="M68.769 45.3325L64.0333 43.186L37.9229 57.1204L42.9962 59.6091L57.0753 51.8101L68.769 45.3325Z" fill="#C9CFDB"/>
<path d="M61.9694 54.1254L73.5386 47.4939L68.7699 45.3325L57.0762 51.8101L61.9694 54.1254Z" fill="#C9CFDB"/>
<path d="M66.6555 56.3427L78.0875 49.5557L73.538 47.4937L61.9688 54.1251L66.6555 56.3427Z" fill="#C9CFDB"/>
<path d="M71.7456 58.7511L83.1371 51.8446L78.0873 49.5557L66.6553 56.3426L71.7456 58.7511Z" fill="#C9CFDB"/>
<path fill-rule="evenodd" clip-rule="evenodd" d="M114.491 27.9446L116.743 28.8053L119.671 29.5372L111.441 34.4431L103.502 39.3242L94.2778 44.9957L89.0934 43.0224L78.0881 49.556L73.5386 47.4939L68.7699 45.3326L64.0342 43.1861L74.6195 37.5129L84.0457 32.4611L92.3621 28.0035L101.637 23.0327L103.757 23.8429L106.01 24.7037L108.13 25.5139L110.382 26.3747L112.222 27.0778L114.491 27.9446Z" fill="#C9CFDB"/>
<path d="M83.1377 51.8451L94.2776 44.9958L89.0932 43.0225L78.0879 49.5561L83.1377 51.8451Z" fill="#C9CFDB"/>
<path d="M58.1868 66.9974L41.5057 77.1737V80.9412M58.1868 66.9974V74.1001M58.1868 66.9974L71.7461 58.7255M41.5057 80.9412V84.7082L58.1868 74.1001M41.5057 80.9412L119.923 32.2463M58.1868 74.1001L71.7461 65.4773M71.7461 58.7255V65.4773M71.7461 58.7255L83.1884 51.7451M71.7461 65.4773L83.1884 58.2009M83.1884 51.7451V58.2009M83.1884 51.7451L94.2775 44.9799M83.1884 58.2009L94.2775 51.1488M94.2775 44.9799V51.1488M94.2775 44.9799L103.502 39.3526M94.2775 51.1488L103.502 45.2828M103.502 39.3526V45.2828M103.502 39.3526L111.441 34.5093M103.502 45.2828L111.441 40.2342M111.441 34.5093L119.923 29.2925V32.2463M111.441 34.5093V40.2342M111.441 40.2342L119.923 35.006V32.2463M119.67 29.5372C116.9 31.2408 113.827 32.9764 111.441 34.4431M119.67 29.5372L111.441 34.4431M119.67 29.5372L116.743 28.8053M111.441 34.4431C108.645 36.1616 106.05 37.7575 103.502 39.3242M111.441 34.4431L103.502 39.3242M111.441 34.4431L92.3618 28.0035M116.743 28.8053L114.491 27.9446M116.743 28.8053L38.7299 75.7506M83.1376 51.845L71.7461 58.7514M83.1376 51.845C87.2829 49.2966 90.89 47.0785 94.2775 44.9957M83.1376 51.845L78.0878 49.556M83.1376 51.845L94.2775 44.9957M71.7461 58.7514L58.1868 67.0602M71.7461 58.7514L66.6557 56.343M94.2775 44.9957C97.4595 43.0395 100.447 41.2028 103.502 39.3242M94.2775 44.9957L103.502 39.3242M94.2775 44.9957L89.0931 43.0224M78.0878 49.556L66.6557 56.343M78.0878 49.556L73.5382 47.4939M78.0878 49.556L89.0931 43.0224M64.0339 43.1861L37.9234 57.1205M64.0339 43.1861L74.6192 37.5129M64.0339 43.1861L68.7696 45.3326M37.9234 57.1205L21.1885 66.0739L23.5575 67.3808M37.9234 57.1205L42.9968 59.6091M74.6192 37.5129L84.0454 32.4611M74.6192 37.5129L89.0931 43.0224M68.7696 45.3326L106.009 24.7037M68.7696 45.3326L57.0758 51.8102M68.7696 45.3326L73.5382 47.4939M110.382 26.3747L73.5382 47.4939M110.382 26.3747L112.222 27.0778M110.382 26.3747L108.13 25.5139M73.5382 47.4939L61.969 54.1254M112.222 27.0778L114.491 27.9446M112.222 27.0778L33.6389 72.9421M108.13 25.5139L106.009 24.7037M108.13 25.5139L28.6486 70.1893M58.1868 67.0602L41.5058 77.2819L38.7299 75.7506M58.1868 67.0602L52.9391 64.4861M38.7299 75.7506L36.26 74.3881M52.9391 64.4861L36.26 74.3881M52.9391 64.4861L48.065 62.0952M52.9391 64.4861L66.6557 56.343M23.5575 67.3808L26.2679 68.8759M23.5575 67.3808L103.757 23.8429M42.9968 59.6091L26.2679 68.8759M42.9968 59.6091L48.065 62.0952M42.9968 59.6091L57.0758 51.8102M66.6557 56.343L61.969 54.1254M52.4404 49.6169L57.0758 51.8102M57.0758 51.8102L61.969 54.1254M103.502 39.3242L84.0454 32.4611M89.0931 43.0224L114.491 27.9446M84.0454 32.4611L92.3618 28.0035M92.3618 28.0035L101.637 23.0327L103.757 23.8429M103.757 23.8429L106.009 24.7037M31.3471 71.678L48.065 62.0952M31.3471 71.678L33.6389 72.9421M31.3471 71.678L28.6486 70.1893M48.065 62.0952L61.969 54.1254M33.6389 72.9421L36.26 74.3881M28.6486 70.1893L26.2679 68.8759" stroke="#6E7E92" stroke-width="0.2" stroke-linecap="round" stroke-linejoin="round"/>
<path d="M21.2137 62.2162L21.1885 58.7476L23.5071 60.0208L26.2795 61.5433L28.6757 62.8591L31.3706 64.339L33.8404 65.6954L36.3104 67.0518L38.9081 68.4783L41.5058 69.9048V73.6453V77.2804L38.9081 75.7941L36.3104 74.4211L33.8404 73.111L31.3706 71.7413L28.6757 70.1995L26.2795 68.9589L23.5071 67.3726L21.2389 66.0749L21.2137 62.2162Z" fill="#E0E4EC"/>
<path d="M26.2795 61.5433V68.9589M26.2795 61.5433L28.6757 62.8591M26.2795 61.5433L23.5071 60.0208M26.2795 68.9589L28.6757 70.1995M26.2795 68.9589L23.5071 67.3726M28.6757 62.8591L31.3706 64.339M28.6757 62.8591V70.1995M23.5071 60.0208L21.1885 58.7476L21.2137 62.2162M23.5071 60.0208V67.3726M28.6757 70.1995L31.3706 71.7413M23.5071 67.3726L21.2389 66.0749L21.2137 62.2162M31.3706 64.339V71.7413M31.3706 64.339L33.8404 65.6954M31.3706 71.7413L33.8404 73.111M33.8404 65.6954L36.3104 67.0518M33.8404 65.6954V73.111M33.8404 73.111L36.3104 74.4211M36.3104 67.0518V74.4211M36.3104 67.0518L38.9081 68.4783M36.3104 74.4211L38.9081 75.7941M38.9081 68.4783L41.5058 69.9048V73.6453M38.9081 68.4783V75.7941M38.9081 75.7941L41.5058 77.2804V73.6453M21.2137 62.2162L41.5058 73.6453" stroke="#6E7E92" stroke-width="0.2" stroke-linecap="round" stroke-linejoin="round"/>
<path d="M41.5068 77.3314V69.7971L58.1878 59.6208L71.7471 51.3489L83.1889 44.3685L94.2788 37.6033L103.503 31.9759L111.442 27.1327L119.381 22.2896V27.8089L111.442 32.8576L103.503 37.9062L94.2788 43.7722L83.1889 50.8243L71.7471 58.1007L58.1878 66.7235L41.5068 77.3314Z" fill="#EFF1F6"/>
<path d="M58.1878 59.6208L41.5068 69.7971V77.3314L58.1878 66.7235M58.1878 59.6208V66.7235M58.1878 59.6208L71.7471 51.3489M58.1878 66.7235L71.7471 58.1007M71.7471 51.3489V58.1007M71.7471 51.3489L83.1889 44.3685M71.7471 58.1007L83.1889 50.8243M83.1889 44.3685V50.8243M83.1889 44.3685L94.2788 37.6033M83.1889 50.8243L94.2788 43.7722M94.2788 37.6033V43.7722M94.2788 37.6033L103.503 31.9759M94.2788 43.7722L103.503 37.9062M103.503 31.9759V37.9062M103.503 31.9759L111.442 27.1327M103.503 37.9062L111.442 32.8576M111.442 27.1327L119.381 22.2896V27.8089L111.442 32.8576M111.442 27.1327V32.8576" stroke="#6E7E92" stroke-width="0.2" stroke-linecap="round" stroke-linejoin="round"/>
<path d="M41.5068 77.3314V69.7971L58.1878 59.6208L71.7471 51.3489L83.1889 44.3685L94.2788 37.6033L103.503 31.9759L111.442 27.1327L119.381 22.2896V27.8089L111.442 32.8576L103.503 37.9062L94.2788 43.7722L83.1889 50.8243L71.7471 58.1007L58.1878 66.7235L41.5068 77.3314Z" fill="#EFF1F6"/>
<path d="M58.1878 59.6208L41.5068 69.7971V77.3314L58.1878 66.7235M58.1878 59.6208V66.7235M58.1878 59.6208L71.7471 51.3489M58.1878 66.7235L71.7471 58.1007M71.7471 51.3489V58.1007M71.7471 51.3489L83.1889 44.3685M71.7471 58.1007L83.1889 50.8243M83.1889 44.3685V50.8243M83.1889 44.3685L94.2788 37.6033M83.1889 50.8243L94.2788 43.7722M94.2788 37.6033V43.7722M94.2788 37.6033L103.503 31.9759M94.2788 43.7722L103.503 37.9062M103.503 31.9759V37.9062M103.503 31.9759L111.442 27.1327M103.503 37.9062L111.442 32.8576M111.442 27.1327L119.381 22.2896V27.8089L111.442 32.8576M111.442 27.1327V32.8576" stroke="#6E7E92" stroke-width="0.2" stroke-linecap="round" stroke-linejoin="round"/>
<path d="M41.4297 77.315L41.4903 73.5633L41.5492 69.9194L58.3271 59.948L71.9638 51.9302L83.4714 45.1643L94.6237 38.607L103.901 33.1525L111.885 28.4581L119.87 23.7637L119.825 26.5121L119.781 29.2604L111.793 34.1594L103.806 39.0584L94.5245 44.7506L83.3675 51.5936L71.8552 58.6544L58.2128 67.0215L41.4297 77.315Z" fill="#EFF1F6"/>
<path d="M38.3051 49.7827L21.1895 59.2325L23.5078 60.4457L26.3095 61.9013L43.3176 52.3434L38.3051 49.7827Z" fill="#EFF1F6"/>
<path d="M26.3096 61.9012L28.6765 63.1628L31.3816 64.5701L48.3252 54.9015L43.3177 52.3433L26.3096 61.9012Z" fill="#EFF1F6"/>
<path d="M31.3818 64.57L33.8454 65.8316L36.3571 67.1418L53.141 57.3616L48.3254 54.9014L31.3818 64.57Z" fill="#EFF1F6"/>
<path d="M41.5491 69.9194L58.3259 60.0106L53.1412 57.3618L36.3574 67.142L38.8693 68.5008L41.5491 69.9194Z" fill="#EFF1F6"/>
<path d="M58.3253 60.0104L71.9626 51.9558L66.932 49.4746L53.1406 57.3616L58.3253 60.0104Z" fill="#EFF1F6"/>
<path d="M62.3004 47.1899L48.3252 54.9012L53.1407 57.3614L66.9321 49.4745L62.3004 47.1899Z" fill="#EFF1F6"/>
<path d="M57.4652 44.8052L43.3184 52.3434L48.3259 54.9016L62.301 47.1903L57.4652 44.8052Z" fill="#EFF1F6"/>
<path d="M69.2149 38.5436L64.5332 36.3291L38.3057 49.7823L43.3182 52.343L57.465 44.8048L69.2149 38.5436Z" fill="#EFF1F6"/>
<path d="M62.3007 47.1903L73.9291 40.7739L69.2148 38.5439L57.4648 44.8051L62.3007 47.1903Z" fill="#EFF1F6"/>
<path d="M66.9326 49.4748L78.4266 42.9014L73.9291 40.7739L62.3008 47.1903L66.9326 49.4748Z" fill="#EFF1F6"/>
<path d="M71.9632 51.956L83.4196 45.263L78.4267 42.9014L66.9326 49.4748L71.9632 51.956Z" fill="#EFF1F6"/>
<path fill-rule="evenodd" clip-rule="evenodd" d="M115.028 21.9696L117.257 22.8633L119.618 23.8098L111.886 28.3919L103.902 33.124L94.6236 38.6225L89.4923 36.573L78.4267 42.9011L73.9292 40.7737L69.2149 38.5437L64.5332 36.3292L75.1663 30.8512L84.6345 25.9731L92.9892 21.6689L102.306 16.8691L104.405 17.7104L106.634 18.6043L108.732 19.4456L110.962 20.3395L112.783 21.0695L115.028 21.9696Z" fill="#EFF1F6"/>
<path d="M83.4197 45.2629L94.6236 38.6227L89.4924 36.5732L78.4268 42.9013L83.4197 45.2629Z" fill="#EFF1F6"/>
<path d="M41.5484 69.9191L58.3263 59.9477M41.5484 69.9191L58.3253 60.0103M41.5484 69.9191L41.4895 73.563M41.5484 69.9191L38.8687 68.5004M58.3263 59.9477L58.212 67.0213M58.3263 59.9477L71.963 51.93M58.3253 60.0103L71.9626 51.9557M58.3253 60.0103L53.1406 57.3615M41.4895 73.563L41.4289 77.3147L58.212 67.0213M41.4895 73.563L119.825 26.5118M38.8687 68.5004L36.3568 67.1417M38.8687 68.5004L117.257 22.8633M58.212 67.0213L71.8544 58.6541M71.963 51.93L71.8544 58.6541M71.963 51.93L83.4706 45.164M71.8544 58.6541L83.3667 51.5934M83.4706 45.164L83.3667 51.5934M83.4706 45.164L94.623 38.6067M83.3667 51.5934L94.5237 44.7503M94.623 38.6067L94.5237 44.7503M94.623 38.6067L103.9 33.1523M94.5237 44.7503L103.805 39.0582M103.9 33.1523L103.805 39.0582M103.9 33.1523L111.885 28.4579M103.805 39.0582L111.793 34.1591M111.885 28.4579L119.869 23.7634L119.825 26.5118M111.885 28.4579L111.793 34.1591M111.793 34.1591L119.78 29.2601L119.825 26.5118M119.617 23.8098C116.83 25.4614 114.285 26.9699 111.885 28.3919M119.617 23.8098L111.885 28.3919M119.617 23.8098L117.257 22.8633M111.885 28.3919C109.075 30.058 106.464 31.6051 103.901 33.1241M111.885 28.3919L103.901 33.1241M111.885 28.3919L92.9886 21.6689M117.257 22.8633L115.028 21.9696M83.4191 45.2627L71.9626 51.9557M83.4191 45.2627C87.5878 42.7921 91.2159 40.6417 94.623 38.6225M83.4191 45.2627L78.4261 42.9011M83.4191 45.2627L94.623 38.6225M71.9626 51.9557L66.932 49.4745M94.623 38.6225C97.823 36.726 100.828 34.9453 103.901 33.1241M94.623 38.6225L103.901 33.1241M94.623 38.6225L89.4917 36.573M78.4261 42.9011L66.932 49.4745M78.4261 42.9011L73.9286 40.7737M78.4261 42.9011L89.4917 36.573M64.5326 36.3292L38.3051 49.7824M64.5326 36.3292L75.1657 30.8512M64.5326 36.3292L69.2143 38.5437M38.3051 49.7824L21.1895 59.2321L23.5078 60.4453M38.3051 49.7824L43.3176 52.3431M75.1657 30.8512L84.6339 25.9731M75.1657 30.8512L89.4917 36.573M69.2143 38.5437L106.633 18.6043M69.2143 38.5437L57.4644 44.8048M69.2143 38.5437L73.9286 40.7737M110.961 20.3395L73.9286 40.7737M110.961 20.3395L112.782 21.0695M110.961 20.3395L108.732 19.4456M73.9286 40.7737L62.3002 47.19M112.782 21.0695L115.028 21.9696M112.782 21.0695L33.845 65.8315M108.732 19.4456L106.633 18.6043M108.732 19.4456L28.6764 63.1627M53.1406 57.3615L36.3568 67.1417M53.1406 57.3615L48.3251 54.9013M53.1406 57.3615L66.932 49.4745M23.5078 60.4453L26.3095 61.901M23.5078 60.4453L104.404 17.7104M43.3176 52.3431L26.3095 61.901M43.3176 52.3431L48.3251 54.9013M43.3176 52.3431L57.4644 44.8048M66.932 49.4745L62.3002 47.19M52.8833 42.5453L57.4644 44.8048M57.4644 44.8048L62.3002 47.19M103.901 33.1241L84.6339 25.9731M89.4917 36.573L115.028 21.9696M84.6339 25.9731L92.9886 21.6689M92.9886 21.6689L102.306 16.8691L104.404 17.7104M104.404 17.7104L106.633 18.6043M31.3815 64.5699L48.3251 54.9013M31.3815 64.5699L33.845 65.8315M31.3815 64.5699L28.6764 63.1627M48.3251 54.9013L62.3002 47.19M33.845 65.8315L36.3568 67.1417M28.6764 63.1627L26.3095 61.901" stroke="#6E7E92" stroke-width="0.2" stroke-linecap="round" stroke-linejoin="round"/>
<path d="M41.4297 70.1344L41.4903 66.3827L41.5493 62.7388L58.3272 52.7674L71.9639 44.7496L83.4717 37.9837L94.6241 31.4264L103.901 25.9719L111.886 21.2775L119.876 16.627L119.826 19.3314L119.781 22.0798L111.794 26.9788L103.806 31.8777L94.5248 37.5699L83.3678 44.413L71.8552 51.4738L58.2129 59.841L41.4297 70.1344Z" fill="#EFF1F6"/>
<path d="M38.6761 43.1216L21.1904 52.3287L23.5088 53.5419L26.3104 54.9975L43.3185 45.4397L38.6761 43.1216Z" fill="#EFF1F6"/>
<path d="M26.3105 54.9973L28.6773 55.982L31.3823 57.3892L48.3259 47.7207L43.3186 45.4395L26.3105 54.9973Z" fill="#EFF1F6"/>
<path d="M31.3828 57.3892L33.8464 58.6509L36.3582 59.9612L53.142 50.1809L48.3264 47.7207L31.3828 57.3892Z" fill="#EFF1F6"/>
<path d="M41.5491 62.7388L58.3259 52.8299L53.1413 50.1812L36.3574 59.9614L38.8692 61.3201L41.5491 62.7388Z" fill="#EFF1F6"/>
<path d="M58.3263 52.8297L71.9636 44.7752L66.9329 42.2939L53.1416 50.1809L58.3263 52.8297Z" fill="#EFF1F6"/>
<path d="M62.3014 40.0098L48.3262 47.7211L53.1418 50.1813L66.9331 42.2943L62.3014 40.0098Z" fill="#EFF1F6"/>
<path d="M57.465 37.6245L43.3184 45.4397L48.3257 47.721L62.3009 40.0097L57.465 37.6245Z" fill="#EFF1F6"/>
<path d="M69.2157 31.363L64.534 29.1484L38.6768 43.1213L43.3191 45.4394L57.4657 37.6242L69.2157 31.363Z" fill="#EFF1F6"/>
<path d="M62.3008 40.0096L73.9291 33.5932L69.2148 31.3633L57.4648 37.6245L62.3008 40.0096Z" fill="#EFF1F6"/>
<path d="M66.9325 42.2942L78.4269 35.7208L73.9291 33.5933L62.3008 40.0097L66.9325 42.2942Z" fill="#EFF1F6"/>
<path d="M71.9632 44.7753L83.4192 38.0822L78.427 35.7207L66.9326 42.2941L71.9632 44.7753Z" fill="#EFF1F6"/>
<path fill-rule="evenodd" clip-rule="evenodd" d="M114.532 15.128L117.025 15.8504L119.875 16.6269L111.886 21.2114L103.901 25.9436L94.6238 31.4421L89.4926 29.3926L78.427 35.7207L73.9292 33.5932L69.2149 31.3633L64.5332 29.1487L75.1663 23.6707L84.5168 18.7619L92.7285 14.3947L99.2496 10.9009L102.341 11.7744L104.998 12.4537L107.317 13.1331L109.78 13.8124L111.954 14.4433L114.532 15.128Z" fill="#EFF1F6"/>
<path d="M83.4199 38.0823L94.6246 31.4421L89.4934 29.3926L78.4277 35.7207L83.4199 38.0823Z" fill="#EFF1F6"/>
<path d="M41.5493 62.7387L58.3271 52.7673M41.5493 62.7387L58.3261 52.8299M41.5493 62.7387L41.4903 66.3827M41.5493 62.7387L38.8694 61.3201M58.3271 52.7673L58.2129 59.8409M58.3271 52.7673L71.9639 44.7495M58.3261 52.8299L71.9634 44.7753M58.3261 52.8299L53.1414 50.1811M41.4903 66.3827L41.4296 70.1344L58.2129 59.8409M41.4903 66.3827L119.826 19.3313M38.8694 61.3201L36.3576 59.9614M38.8694 61.3201L117.026 15.8504M119.876 16.6269L111.886 21.2775M119.876 16.6269C117.089 18.2785 114.286 19.7895 111.887 21.2114M119.876 16.6269L111.887 21.2114M119.876 16.6269L119.826 19.3313M119.876 16.6269L117.026 15.8504M111.886 21.2775L103.901 25.9718M111.886 21.2775L111.794 26.9787M111.887 21.2114C109.075 22.8776 106.465 24.4247 103.901 25.9436M111.887 21.2114L103.901 25.9436M111.887 21.2114L92.7287 14.3947M119.826 19.3313L119.781 22.0798L111.794 26.9787M117.026 15.8504L114.532 15.128M58.2129 59.8409L71.8552 51.4737M71.9639 44.7495L71.8552 51.4737M71.9639 44.7495L83.4717 37.9836M71.8552 51.4737L83.3678 44.4129M83.4717 37.9836L83.3678 44.4129M83.4717 37.9836L94.624 31.4263M83.3678 44.4129L94.5248 37.5699M94.624 31.4263L94.5248 37.5699M94.624 31.4263L103.901 25.9718M94.5248 37.5699L103.806 31.8777M103.901 25.9718L103.806 31.8777M103.806 31.8777L111.794 26.9787M83.4193 38.0822L71.9634 44.7753M83.4193 38.0822C87.5881 35.6117 91.217 33.4613 94.624 31.4421M83.4193 38.0822L78.4271 35.7207M83.4193 38.0822L94.624 31.4421M71.9634 44.7753L66.9328 42.2941M94.624 31.4421C97.824 29.5455 100.829 27.7649 103.901 25.9436M94.624 31.4421L103.901 25.9436M94.624 31.4421L89.4928 29.3926M78.4271 35.7207L66.9328 42.2941M78.4271 35.7207L73.9294 33.5932M78.4271 35.7207L89.4928 29.3926M64.5334 29.1487L38.6761 43.1215M64.5334 29.1487L75.1665 23.6707M64.5334 29.1487L69.2151 31.3633M38.6761 43.1215L21.1904 52.3287L23.5088 53.5419M38.6761 43.1215L43.3185 45.4397M75.1665 23.6707L84.517 18.7619M75.1665 23.6707L89.4928 29.3926M69.2151 31.3633L104.998 12.4537M69.2151 31.3633L57.4651 37.6245M69.2151 31.3633L73.9294 33.5932M109.78 13.8124L73.9294 33.5932M109.78 13.8124L111.954 14.4433M109.78 13.8124L107.317 13.1331M73.9294 33.5932L62.3011 40.0096M111.954 14.4433L114.532 15.128M111.954 14.4433L33.8458 58.6512M107.317 13.1331L104.998 12.4537M107.317 13.1331L28.6772 55.9823M53.1414 50.1811L36.3576 59.9614M53.1414 50.1811L48.3258 47.7209M53.1414 50.1811L66.9328 42.2941M23.5088 53.5419L26.3104 54.9975M23.5088 53.5419L102.341 11.7744M43.3185 45.4397L26.3104 54.9975M43.3185 45.4397L48.3258 47.7209M43.3185 45.4397L57.4651 37.6245M66.9328 42.2941L62.3011 40.0096M52.884 35.3649L57.4651 37.6245M57.4651 37.6245L62.3011 40.0096M103.901 25.9436L84.517 18.7619M89.4928 29.3926L114.532 15.128M84.517 18.7619L92.7287 14.3947M92.7287 14.3947L99.2498 10.9009L102.341 11.7744M102.341 11.7744L104.998 12.4537M31.3822 57.3894L48.3258 47.7209M31.3822 57.3894L33.8458 58.6512M31.3822 57.3894L28.6772 55.9823M48.3258 47.7209L62.3011 40.0096M33.8458 58.6512L36.3576 59.9614M28.6772 55.9823L26.3104 54.9975" stroke="#6E7E92" stroke-width="0.2" stroke-linecap="round" stroke-linejoin="round"/>
<path d="M41.4297 70.1334L41.4903 66.3817L41.5493 62.7378L58.3271 52.7664L71.9638 44.7487L83.4713 37.9827L94.6244 31.4254L103.901 25.971L111.885 21.2765L119.876 16.626L119.825 19.3304L119.781 23.1082L111.793 27.9122L103.806 32.8999L94.5252 37.9285L83.3673 44.6735L71.8552 51.6999L58.2128 59.84L41.4297 70.1334Z" fill="#C9CFDB"/>
<path d="M41.5493 62.7378L58.3271 52.7664M41.5493 62.7378L58.3261 52.829L71.9634 44.7744L83.4197 38.0813M41.5493 62.7378L41.4903 66.3817M58.3271 52.7664L58.2128 59.84M58.3271 52.7664L71.9638 44.7487M83.4197 38.0813C87.5884 35.6108 91.2166 33.4604 94.6236 31.4412M83.4197 38.0813L94.6236 31.4412M41.4903 66.3817L41.4297 70.1334L58.2128 59.84M41.4903 66.3817L119.825 19.3304M119.876 16.626L111.885 21.2765M119.876 16.626C117.089 18.2776 114.286 19.7886 111.886 21.2105M119.876 16.626L111.886 21.2105M119.876 16.626L119.825 19.3304M111.885 21.2765L103.901 25.971M111.885 21.2765L111.793 27.9122M111.886 21.2105C109.075 22.8767 106.464 24.4238 103.902 25.9427M111.886 21.2105L103.902 25.9427M119.825 19.3304L119.781 23.1082L111.793 27.9122M58.2128 59.84L71.8552 51.6999M71.9638 44.7487L71.8552 51.6999M71.9638 44.7487L83.4713 37.9827M71.8552 51.6999L83.3673 44.6735M83.4713 37.9827L83.3673 44.6735M83.4713 37.9827L94.6244 31.4254M83.3673 44.6735L94.5252 37.9285M94.6244 31.4254L94.5252 37.9285M94.6244 31.4254L103.901 25.971M94.5252 37.9285L103.806 32.8999M103.901 25.971L103.806 32.8999M103.806 32.8999L111.793 27.9122M94.6236 31.4412C97.8236 29.5446 100.828 27.764 103.902 25.9427M94.6236 31.4412L103.902 25.9427" stroke="#6E7E92" stroke-width="0.2" stroke-linecap="round" stroke-linejoin="round"/>
<path d="M41.4775 77.2003L41.5382 73.4486L41.5972 69.7596L58.375 59.7994L72.0114 51.4336L83.5193 44.2672L94.5724 37.8597L103.949 32.4779L111.933 27.6716L119.918 22.8677L119.873 26.3976L119.923 29.1604L111.841 34.045L103.854 38.9439L94.5724 44.6361L83.4154 51.4792L71.9031 58.5399L58.2607 66.9071L41.4775 77.2003Z" fill="#C9CFDB"/>
<path d="M119.918 22.8677L111.933 27.6716M119.918 22.8677C117.131 24.5193 114.333 26.2497 111.933 27.6716M119.918 22.8677L119.873 26.3976M111.933 27.6716L103.949 32.4779M111.933 27.6716C109.122 29.3378 106.512 30.959 103.949 32.4779M111.933 27.6716L111.841 34.045M119.873 26.3976L119.923 29.1604L111.841 34.045M119.873 26.3976L41.5382 73.4486M58.375 59.7994L41.5972 69.7596L41.5382 73.4486M58.375 59.7994L58.2607 66.9071M58.375 59.7994L72.0114 51.4336M41.5382 73.4486L41.4775 77.2003L58.2607 66.9071M58.2607 66.9071L71.9031 58.5399M72.0114 51.4336L71.9031 58.5399M72.0114 51.4336L83.5193 44.2672M71.9031 58.5399L83.4154 51.4792M83.5193 44.2672L83.4154 51.4792M83.5193 44.2672L94.5724 37.8597M83.5193 44.2672C87.688 41.7967 91.1654 39.8789 94.5724 37.8597M83.4154 51.4792L94.5724 44.6361M94.5724 37.8597V44.6361M94.5724 37.8597L103.949 32.4779M94.5724 37.8597C97.7732 35.9633 100.876 34.2992 103.949 32.4779M94.5724 44.6361L103.854 38.9439M103.949 32.4779L103.854 38.9439M103.854 38.9439L111.841 34.045" stroke="#6E7E92" stroke-width="0.2" stroke-linecap="round" stroke-linejoin="round"/>
<path d="M21.2146 55.6109L21.1895 52.3413L23.5047 53.4574L26.273 54.8647L28.6658 56.0292L31.3567 57.3394L33.823 58.6011L36.2894 59.8141L38.9177 61.1244L41.4773 62.386V66.3839V69.8103L38.8834 68.4094L36.2894 67.1152L33.823 65.8803L31.3567 64.5893L28.6658 63.1359L26.273 61.9664L23.5047 60.4713L21.2398 59.248L21.2146 55.6109Z" fill="#E0E4EC"/>
<path d="M26.273 54.8647V61.9664M26.273 54.8647L28.6658 56.0292M26.273 54.8647L23.5047 53.4574M26.273 61.9664L28.6658 63.1359M26.273 61.9664L23.5047 60.4713M28.6658 56.0292L31.3567 57.3394M28.6658 56.0292V63.1359M23.5047 53.4574L21.1895 52.3413L21.2146 55.6109M23.5047 53.4574V60.4713M28.6658 63.1359L31.3567 64.5893M23.5047 60.4713L21.2398 59.248L21.2146 55.6109M31.3567 57.3394V64.5893M31.3567 57.3394L33.823 58.6011M31.3567 64.5893L33.823 65.8803M33.823 58.6011L36.2894 59.8141M33.823 58.6011V65.8803M33.823 65.8803L36.2894 67.1152M36.2894 59.8141V67.1152M36.2894 59.8141L38.9177 61.1244M36.2894 67.1152L38.8834 68.4094M38.9177 61.1244L41.4773 62.386V66.3839M38.9177 61.1244L38.8834 68.4094M38.8834 68.4094L41.4773 69.8103V66.3839M21.2146 55.6109L41.4773 66.3839" stroke="#6E7E92" stroke-width="0.2" stroke-linecap="round" stroke-linejoin="round"/>
<path d="M128.289 34.8243L53.9281 84.6085C53.9281 84.6085 49.4496 87.0275 46.3777 88.0599C42.6115 89.325 40.3398 89.5247 36.4019 90.0386C32.6367 90.529 29.4464 91.1925 26.7008 90.6825C24.255 90.2282 22.8543 89.7801 20.7062 88.5197C18.6152 87.293 17.4657 86.4032 15.9929 84.4707C15.3868 83.6756 14.6201 82.3087 14.6201 82.3087C14.6201 82.3087 19.2886 83.103 22.3078 83.1367C24.7433 83.1633 26.1099 82.9878 28.5312 82.7223C33.4018 82.188 40.8407 80.2838 40.8407 80.2838C40.8407 80.2838 47.2929 78.3513 49.9012 76.6029C51.274 75.6826 54.889 78.4891 54.889 78.4891L124.628 33.2599C125.909 32.4777 127.648 27.4164 127.648 27.4164V25.944L136.25 20.6987V21.987L132.041 28.7047L128.289 34.8243Z" fill="#9EA9B9"/>
<path d="M95.9492 74.3964C96.4055 75.5066 93.6336 76.8846 89.832 78.4611C86.0297 80.0379 82.4758 80.3904 82.0195 79.2804C81.543 78.1208 83.6836 76.8665 85.6273 75.8985C86.6648 75.3816 87.55 74.9129 88.1641 74.6581C90.1945 73.8161 91.6422 73.1174 92.9297 73.1464C94.0523 73.1716 95.7367 73.8792 95.9492 74.3964Z" fill="#EFF1F6" stroke="#6E7E92" stroke-width="0.2" stroke-linecap="round" stroke-linejoin="round"/>
<path d="M95.9492 74.3964C96.4055 75.5066 93.6336 76.8846 89.832 78.4611C86.0297 80.0379 82.4758 80.3904 82.0195 79.2804C81.543 78.1208 83.6836 76.8665 85.6273 75.8985C86.6648 75.3816 87.55 74.9129 88.1641 74.6581C90.1945 73.8161 91.6422 73.1174 92.9297 73.1464C94.0523 73.1716 95.7367 73.8792 95.9492 74.3964Z" fill="#EFF1F6" stroke="#6E7E92" stroke-width="0.2" stroke-linecap="round" stroke-linejoin="round"/>
<path d="M95.6696 75.4328C95.9493 76.1886 92.6407 77.8748 89.7946 79.2802C86.6985 80.8085 83.4571 81.8504 82.0196 79.8239C80.5821 77.7972 83.6845 77.41 85.6274 76.4419C86.6649 75.9251 87.5501 75.4564 88.1641 75.2016C90.1946 74.3596 91.6423 73.6609 92.9298 73.6898C93.5282 73.7033 96.5087 73.9888 96.5087 73.9888C96.3829 74.7932 95.6227 75.3068 95.6696 75.4328Z" fill="#9EA9B9"/>
<path d="M96.77 73.3882C97.1997 74.4347 93.7434 76.0033 89.795 77.9137C85.9177 79.881 81.8028 80.228 81.1231 78.6504C80.552 77.3248 83.1075 76.2086 85.2872 75.1183C86.4505 74.5361 87.4427 74.0076 88.1317 73.7216C90.4106 72.7768 92.0341 71.9902 93.4841 72.0366C94.7497 72.0771 96.5247 72.7928 96.77 73.3882Z" fill="#E0E4EC"/>
<path fill-rule="evenodd" clip-rule="evenodd" d="M95.9972 74.6266C96.6128 74.1586 96.9144 73.7436 96.7683 73.3887C96.5237 72.7933 94.7487 72.0776 93.4831 72.0371C92.2276 71.997 90.8417 72.5812 89.0136 73.3519C88.7308 73.4714 88.4362 73.5953 88.1308 73.7221C87.63 73.9298 86.9698 74.2652 86.2003 74.6563C85.9105 74.8038 85.6042 74.9593 85.2855 75.1187C85.1034 75.2099 84.9183 75.3013 84.7331 75.3929C82.7011 76.3971 80.5987 77.4361 81.1222 78.6506C81.2815 79.0204 81.6292 79.2843 82.1183 79.4465C82.0769 79.3956 82.0433 79.34 82.019 79.2804C81.5425 78.1209 83.6831 76.8667 85.6269 75.8987C85.9112 75.7571 86.1839 75.6191 86.4425 75.4882C87.1284 75.1411 87.7175 74.8433 88.1636 74.6583C88.4362 74.5453 88.698 74.4349 88.9503 74.3285C90.58 73.6419 91.8144 73.1215 92.9292 73.1465C94.0519 73.1718 95.7355 73.8794 95.948 74.3967C95.9792 74.4721 95.9956 74.5488 95.9972 74.6266Z" fill="#EFF1F6"/>
<path d="M95.9971 74.6268L95.919 74.6287C95.9197 74.6582 95.9369 74.6846 95.9635 74.6974C95.99 74.7102 96.0213 74.707 96.0447 74.6893L95.9971 74.6268ZM82.1182 79.4467L82.094 79.5211C82.1268 79.5321 82.1627 79.5195 82.183 79.4913C82.2025 79.4623 82.201 79.424 82.1783 79.3973L82.1182 79.4467ZM96.6963 73.4187C96.7557 73.5637 96.7291 73.7285 96.6033 73.9227C96.476 74.1181 96.2557 74.3324 95.9502 74.5644L96.0447 74.6893C96.3549 74.4532 96.5924 74.226 96.7338 74.0082C96.876 73.7891 96.9268 73.5689 96.8408 73.359L96.6963 73.4187ZM93.4807 72.1156C94.1018 72.1354 94.8525 72.3217 95.4791 72.5775C95.7916 72.7052 96.0705 72.8494 96.2854 72.9968C96.5033 73.1461 96.644 73.2917 96.6963 73.4187L96.8408 73.359C96.7705 73.1882 96.5979 73.0211 96.3736 72.8675C96.1471 72.7121 95.858 72.563 95.5377 72.4324C94.8986 72.1714 94.1299 71.9796 93.4854 71.959L93.4807 72.1156ZM89.044 73.4243C89.9588 73.0385 90.7588 72.7013 91.4869 72.4651C92.215 72.2291 92.8658 72.0959 93.4807 72.1156L93.4854 71.959C92.8447 71.9385 92.1752 72.0774 91.4393 72.3161C90.7033 72.5547 89.8963 72.8949 88.9838 73.2799L89.044 73.4243ZM88.1604 73.7947C88.4666 73.6678 88.7611 73.5438 89.044 73.4243L88.9838 73.2799C88.7002 73.3993 88.4065 73.5233 88.101 73.6499L88.1604 73.7947ZM86.2361 74.7263C87.0065 74.3346 87.6635 74.0009 88.1604 73.7947L88.101 73.6499C87.5971 73.859 86.9338 74.1961 86.165 74.5866L86.2361 74.7263ZM85.3205 75.189C85.6393 75.0294 85.9455 74.8738 86.2361 74.7263L86.165 74.5866C85.8752 74.7341 85.569 74.8895 85.251 75.0488L85.3205 75.189ZM84.7674 75.4634C84.9533 75.3717 85.1377 75.2803 85.3205 75.189L85.251 75.0488C85.069 75.1399 84.8838 75.2312 84.6986 75.3228L84.7674 75.4634ZM81.194 78.6195C81.0736 78.3414 81.1025 78.0742 81.2479 77.8083C81.3955 77.5387 81.6627 77.2716 82.0158 77.0057C82.7229 76.474 83.7494 75.9666 84.7674 75.4634L84.6986 75.3228C83.6846 75.8238 82.644 76.338 81.9221 76.8804C81.5619 77.1516 81.2744 77.4348 81.1111 77.7329C80.9463 78.0348 80.9088 78.3531 81.0502 78.6821L81.194 78.6195ZM82.1432 79.3723C81.6658 79.214 81.3408 78.9618 81.194 78.6195L81.0502 78.6821C81.2213 79.0793 81.5924 79.355 82.094 79.5211L82.1432 79.3723ZM82.1783 79.3973C82.1416 79.3519 82.1127 79.3033 82.0908 79.2508L81.9463 79.3104C81.9736 79.3777 82.0111 79.4396 82.058 79.496L82.1783 79.3973ZM82.0908 79.2508C81.983 78.9884 82.0205 78.7182 82.1768 78.4377C82.333 78.1543 82.608 77.8661 82.9643 77.579C83.6752 77.0053 84.6901 76.4529 85.6611 75.969L85.5916 75.8287C84.6197 76.3129 83.5916 76.8716 82.8658 77.4569C82.5033 77.7494 82.2111 78.0527 82.04 78.361C81.8674 78.672 81.8158 78.9931 81.9463 79.3104L82.0908 79.2508ZM85.6611 75.969C85.9455 75.8273 86.219 75.6893 86.4775 75.5583L86.4072 75.4184C86.1486 75.5494 85.876 75.6872 85.5916 75.8287L85.6611 75.969ZM86.4775 75.5583C87.165 75.2106 87.7502 74.9146 88.1932 74.7309L88.1338 74.5861C87.6838 74.7725 87.0924 75.0719 86.4072 75.4184L86.4775 75.5583ZM88.1932 74.7309C88.4658 74.6178 88.7283 74.5073 88.9807 74.4009L88.9205 74.2565C88.6674 74.3629 88.4057 74.4732 88.1338 74.5861L88.1932 74.7309ZM88.9807 74.4009C89.7963 74.0573 90.5088 73.7569 91.1572 73.5454C91.8049 73.3339 92.3822 73.2128 92.9268 73.2251L92.9307 73.0685C92.3611 73.0556 91.7643 73.1823 91.1088 73.3964C90.4533 73.6104 89.7338 73.9135 88.9205 74.2565L88.9807 74.4009ZM92.9268 73.2251C93.476 73.2374 94.1682 73.4173 94.7502 73.6597C95.0408 73.7806 95.301 73.916 95.501 74.0517C95.7041 74.1897 95.8322 74.3201 95.876 74.4267L96.0205 74.367C95.958 74.215 95.7955 74.0628 95.5885 73.922C95.3775 73.7787 95.1072 73.6387 94.8096 73.515C94.2166 73.2679 93.5049 73.0814 92.9307 73.0685L92.9268 73.2251ZM95.876 74.4267C95.9033 74.4934 95.9174 74.5606 95.919 74.6287L96.0752 74.625C96.0729 74.5372 96.0549 74.4511 96.0205 74.367L95.876 74.4267Z" fill="#6E7E92"/>
<path d="M87.6629 78.9312L84.4512 77.1582V76.16L84.8176 76.2472V74.658L86.5441 73.8052L87.9043 74.4672L89.1973 73.9021L92.2934 75.2684C92.5184 75.3729 92.6035 75.4665 92.6504 75.724C92.6645 75.8014 92.7949 75.7821 92.7949 75.8693V76.2084C91.0098 77.2551 89.8863 77.8483 87.6629 78.9312Z" fill="#C9CFDB"/>
<path d="M87.6629 78.9312L84.4512 77.1582V76.16L84.8176 76.2472V74.658M87.6629 78.9312V77.9043L87.2004 77.5845M87.6629 78.9312C89.8863 77.8483 91.0098 77.2551 92.7949 76.2084V75.8693C92.7949 75.7821 92.6645 75.8014 92.6504 75.724C92.6035 75.4665 92.5184 75.3729 92.2934 75.2684M84.8176 74.658L87.2004 75.8499M84.8176 74.658L86.5441 73.8052L87.9043 74.4672M87.2004 77.5845V75.8499M87.2004 77.5845L90.441 76.1107M92.2934 75.2684L90.441 76.1107M92.2934 75.2684L89.1973 73.9021L87.9043 74.4672M87.2004 75.8499L89.0332 75.0165M90.441 76.1107C90.441 75.3363 89.0332 75.8693 89.0332 75.0165M89.0332 75.0165L87.9043 74.4672" stroke="#6E7E92" stroke-width="0.2" stroke-linecap="round" stroke-linejoin="round"/>
<path d="M84.8174 74.6579L87.2002 75.8498L89.033 75.0165L87.9041 74.4672L86.5439 73.8052L84.8174 74.6579Z" fill="#EFF1F6" stroke="#6E7E92" stroke-width="0.2" stroke-linecap="round" stroke-linejoin="round"/>
<path d="M87.6629 78.9319L84.4512 77.1589V76.1607L84.8176 76.248V74.6587L87.2004 75.8507V77.5852L87.6629 77.9051V78.9319Z" fill="#E0E4EC" stroke="#6E7E92" stroke-width="0.2" stroke-linecap="round" stroke-linejoin="round"/>
<path fill-rule="evenodd" clip-rule="evenodd" d="M87.0371 69.8938L86.584 69.8066L86.6996 74.7062L86.7012 74.7067C86.7074 74.751 86.7918 74.8063 86.9035 74.8363C87.027 74.8696 87.1371 74.8591 87.1496 74.813C87.152 74.8021 87.1496 74.7902 87.1418 74.7778L87.0371 69.8938Z" fill="#EFF1F6"/>
<path d="M86.584 69.8068L86.5989 69.7299C86.5754 69.7255 86.552 69.7317 86.534 69.7471C86.5153 69.7624 86.5051 69.785 86.5059 69.8087L86.584 69.8068ZM87.0372 69.894L87.1153 69.8924C87.1145 69.8554 87.0887 69.8241 87.052 69.8171L87.0372 69.894ZM86.6997 74.7064L86.6215 74.7082C86.6223 74.7437 86.6465 74.7743 86.6809 74.7826L86.6997 74.7064ZM86.7012 74.7069L86.7786 74.6956C86.7739 74.6639 86.7504 74.6382 86.72 74.6307L86.7012 74.7069ZM87.1418 74.778L87.0637 74.7798C87.0637 74.7939 87.0684 74.8076 87.0754 74.8196L87.1418 74.778ZM86.5692 69.8838L87.0231 69.971L87.052 69.8171L86.5989 69.7299L86.5692 69.8838ZM86.7778 74.7046L86.6622 69.805L86.5059 69.8087L86.6215 74.7082L86.7778 74.7046ZM86.72 74.6307L86.7176 74.6302L86.6809 74.7826L86.6832 74.7831L86.72 74.6307ZM86.9239 74.7609C86.8739 74.7476 86.8332 74.7292 86.8051 74.7112C86.7911 74.7022 86.7832 74.6946 86.7786 74.6896C86.7731 74.6837 86.777 74.6857 86.7786 74.6956L86.6239 74.7182C86.6286 74.7502 86.6457 74.7758 86.6614 74.7937C86.6786 74.8124 86.6989 74.8288 86.7207 74.843C86.7645 74.8713 86.8215 74.8955 86.8832 74.9121L86.9239 74.7609ZM87.0739 74.793C87.0786 74.7748 87.0911 74.7695 87.0887 74.7708C87.0864 74.772 87.0778 74.7751 87.0606 74.7766C87.0278 74.7798 86.9786 74.7757 86.9239 74.7609L86.8832 74.9121C86.9512 74.9306 87.0192 74.9379 87.0754 74.9326C87.1028 74.93 87.1325 74.9239 87.1575 74.9112C87.1832 74.8986 87.2137 74.8746 87.2247 74.8335L87.0739 74.793ZM87.0754 74.8196C87.0762 74.8207 87.0692 74.8101 87.0739 74.793L87.2247 74.8335C87.2356 74.7946 87.2223 74.76 87.2082 74.7366L87.0754 74.8196ZM86.9598 69.8958L87.0637 74.7798L87.22 74.7764L87.1153 69.8924L86.9598 69.8958Z" fill="#6E7E92"/>
<path d="M86.7911 69.9376C86.9161 69.9691 87.0269 69.9571 87.0384 69.9108C87.05 69.8645 86.958 69.8014 86.8329 69.7699C86.7078 69.7384 86.5971 69.7504 86.5855 69.7967C86.574 69.843 86.666 69.9061 86.7911 69.9376Z" fill="#EFF1F6" stroke="#6E7E92" stroke-width="0.2" stroke-linecap="round" stroke-linejoin="round"/>
</svg>
