<svg width="142" height="88" viewBox="0 0 142 88" fill="none" xmlns="http://www.w3.org/2000/svg">
<path d="M9.62784 78.1321L11.4514 78.4086L12.2929 72.9861L16.4543 66.3566L22.5794 61.4424L115.625 12.8568L131.516 17.4927L133.907 16.0556L117.822 11.605L106.881 9.93604L97.951 14.5721L95.5666 19.6253L30.9488 53.2829C30.9488 53.2829 23.9257 56.5743 19.961 59.2171C17.4713 60.8766 15.5191 61.8327 13.9762 63.3895C12.667 64.7104 10.4227 68.4428 9.62784 69.9726C8.95208 71.2732 8.83301 73.6353 8.83301 73.6353L9.62784 78.1321Z" fill="#EFF1F6"/>
<path d="M9.62784 78.1321C9.62784 78.1321 10.3669 78.2561 11.4514 78.4086M9.62784 78.1321L11.4514 78.4086M9.62784 78.1321L8.83301 73.6354C8.83301 73.6354 8.95208 71.2732 9.62784 69.9726C10.4227 68.4428 12.667 64.7104 13.9762 63.3895C15.5191 61.8327 17.4713 60.8766 19.961 59.2171C23.9257 56.5744 30.9488 53.2829 30.9488 53.2829L95.5666 19.6253L97.951 14.5721L106.881 9.93604L117.822 11.605L133.907 16.0556L131.516 17.4927L115.625 12.8568L22.5794 61.4424L16.4543 66.3566L12.2929 72.9861L11.4514 78.4086" stroke="#6E7E92" stroke-width="0.2" stroke-linecap="round" stroke-linejoin="round"/>
<path d="M17.4624 78.9431C19.9514 78.971 21.3479 78.7935 23.8224 78.5258C28.8 77.9876 31.605 77.4911 36.4022 76.0677C40.2072 74.9391 45.8955 79.1756 45.8955 79.1756L52.1151 74.6304L125.115 29.5054V21.2966L131.516 17.4473L115.622 12.8096L22.5598 61.4129L16.4336 66.3288L12.2715 72.9607L11.4297 78.385C13.1006 78.6204 15.5914 78.9226 17.4624 78.9431Z" fill="#E0E4EC"/>
<path d="M95.874 42.1244L76.0547 34.6931L80.1113 32.5479L99.7169 39.7303L95.874 42.1244Z" fill="#EFF1F6" stroke="#6E7E92" stroke-width="0.2" stroke-linecap="round" stroke-linejoin="round"/>
<path d="M73.8813 56.8723L51.6191 47.1042L55.6756 44.959L77.7247 54.4782L73.8813 56.8723Z" fill="#EFF1F6" stroke="#6E7E92" stroke-width="0.2" stroke-linecap="round" stroke-linejoin="round"/>
<path d="M99.6689 18.8018L123.379 26.3706V28.5732L99.6689 21.1407V18.8018Z" fill="#E0E4EC" stroke="#6E7E92" stroke-width="0.2" stroke-linecap="round" stroke-linejoin="round"/>
<path d="M99.7178 18.8429L123.38 26.3712L132.893 17.9331L112.273 11.9478L99.7178 18.8429Z" fill="#E0E4EC" stroke="#6E7E92" stroke-width="0.2" stroke-linecap="round" stroke-linejoin="round"/>
<path d="M121.464 25.7758L123.411 24.5568L123.468 14.3478L122.515 14.1528L121.431 15.2181L121.464 25.7758Z" fill="#C9CFDB" stroke="#6E7E92" stroke-width="0.2" stroke-linecap="round" stroke-linejoin="round"/>
<path d="M121.448 25.7006L101.891 19.7669V13.75L99.3923 8.19224L97.7852 6.30811L128.306 14.4961L126.012 15.2407L121.444 19.45L121.448 25.7006Z" fill="#E0E4EC" stroke="#6E7E92" stroke-width="0.2" stroke-linecap="round" stroke-linejoin="round"/>
<path d="M129.367 12.1235L128.331 12.8491V14.5006L129.367 13.7777V12.1235Z" fill="#C9CFDB" stroke="#6E7E92" stroke-width="0.2" stroke-linecap="round" stroke-linejoin="round"/>
<path d="M129.368 12.102L128.301 12.8971L97.7852 4.82371L99.007 4.03418L129.368 12.102Z" fill="#EFF1F6" stroke="#6E7E92" stroke-width="0.2" stroke-linecap="round" stroke-linejoin="round"/>
<path d="M128.306 14.4961L128.291 12.8445L97.7852 4.82373V6.30812L128.306 14.4961Z" fill="#E0E4EC" stroke="#6E7E92" stroke-width="0.2" stroke-linecap="round" stroke-linejoin="round"/>
<path d="M125.77 30.2933L49.7765 80.438C49.7765 80.438 45.1997 82.8741 42.0603 83.914C38.2115 85.1885 35.8899 85.3902 31.8655 85.9072C28.0176 86.4015 24.7573 87.0695 21.9514 86.5555C19.4519 86.0986 18.0205 85.6469 15.8252 84.3775C13.6883 83.1418 12.5134 82.2457 11.0084 80.2994C10.389 79.4986 9.60547 78.1214 9.60547 78.1214C9.60547 78.1214 14.3764 78.9215 17.462 78.9552C19.951 78.9823 21.3475 78.8056 23.822 78.5379C28.7996 77.9997 36.4018 76.082 36.4018 76.082C36.4018 76.082 42.9956 74.1357 45.6612 72.3744C47.0641 71.4474 50.7585 74.2743 50.7585 74.2743L122.028 28.7176C123.338 27.9297 125.114 22.8317 125.114 22.8317V21.3487L133.907 16.0654V17.3631L129.605 24.1295L125.77 30.2933Z" fill="#9EA9B9"/>
<path d="M36.6975 54.4854L59.9738 65.9294L54.3237 69.9037L31.627 58.2202L36.6975 54.4854Z" fill="#C9CFDB"/>
<path d="M69.7769 37.3916L92.8603 46.5372L79.8214 54.9646L56.3037 44.7177L69.7769 37.3916Z" fill="#C9CFDB"/>
<path d="M36.6975 54.4854L59.9738 65.9294L54.3237 69.9037L31.627 58.2202L36.6975 54.4854Z" stroke="#6E7E92" stroke-width="0.2" stroke-linecap="round" stroke-linejoin="round"/>
<path d="M69.7769 37.3916L92.8603 46.5372L79.8214 54.9646L56.3037 44.7177L69.7769 37.3916Z" stroke="#6E7E92" stroke-width="0.2" stroke-linecap="round" stroke-linejoin="round"/>
<path d="M79.7246 51.0378L79.8215 54.9642L83.8101 52.3915V48.4521L79.7246 51.0378Z" fill="#C9CFDB" stroke="#6E7E92" stroke-width="0.2" stroke-linecap="round" stroke-linejoin="round"/>
<path d="M79.7244 51.0374L71.3701 47.4462L75.5717 45.0615L83.8092 48.4517L79.7244 51.0374Z" fill="#EFF1F6" stroke="#6E7E92" stroke-width="0.2" stroke-linecap="round" stroke-linejoin="round"/>
<path d="M79.7244 51.0375L71.3701 47.4463V51.2769L79.8213 54.9639L79.7244 51.0375Z" fill="#E0E4EC" stroke="#6E7E92" stroke-width="0.2" stroke-linecap="round" stroke-linejoin="round"/>
<path d="M30.3506 69.6258C30.198 69.6797 29.9929 69.4961 29.8924 69.2155C29.792 68.9351 29.8342 68.6639 29.9868 68.61L100.441 27.4059C100.563 27.3629 100.726 27.5094 100.807 27.7333C100.887 27.9571 100.853 28.1735 100.732 28.2166L30.3506 69.6258Z" fill="#EFF1F6" stroke="#6E7E92" stroke-width="0.2" stroke-linecap="round" stroke-linejoin="round"/>
<path d="M30.3358 69.6155C30.4885 69.5616 30.5308 69.2909 30.4303 69.0108C30.3297 68.7307 30.1245 68.5473 29.9718 68.6012C29.8191 68.6551 29.7768 68.9258 29.8773 69.2059C29.9778 69.486 30.1831 69.6694 30.3358 69.6155Z" fill="#C9CFDB" stroke="#6E7E92" stroke-width="0.2" stroke-linecap="round" stroke-linejoin="round"/>
<path d="M41.7676 67.1579L41.8642 71.0843L45.8525 68.5116V64.5723L41.7676 67.1579Z" fill="#C9CFDB" stroke="#6E7E92" stroke-width="0.2" stroke-linecap="round" stroke-linejoin="round"/>
<path d="M41.7678 67.1575L35.2002 63.662L39.4015 61.2773L45.8527 64.5718L41.7678 67.1575Z" fill="#EFF1F6" stroke="#6E7E92" stroke-width="0.2" stroke-linecap="round" stroke-linejoin="round"/>
<path d="M41.7678 67.158L35.2002 63.624V67.4547L41.8644 71.0844L41.7678 67.158Z" fill="#E0E4EC" stroke="#6E7E92" stroke-width="0.2" stroke-linecap="round" stroke-linejoin="round"/>
<path d="M56.2549 39.7329L57.243 40.1493V45.2438L56.2549 44.8275V39.7329Z" fill="#E0E4EC" stroke="#6E7E92" stroke-width="0.2" stroke-linecap="round" stroke-linejoin="round"/>
<path d="M57.6137 39.9536L57.2432 40.1495V45.244L58.0336 44.7787L57.6137 39.9536Z" fill="#C9CFDB" stroke="#6E7E92" stroke-width="0.2" stroke-linecap="round" stroke-linejoin="round"/>
<path d="M56.2549 39.733L57.243 40.1494L63.8573 36.358L63.4373 36.1865L56.2549 39.733Z" fill="#EFF1F6" stroke="#6E7E92" stroke-width="0.2" stroke-linecap="round" stroke-linejoin="round"/>
<path d="M57.2432 40.8109V40.1496L63.8576 36.3647V36.7076L57.2432 40.8109Z" fill="#C9CFDB" stroke="#6E7E92" stroke-width="0.2" stroke-linecap="round" stroke-linejoin="round"/>
<path d="M91.0186 41.9512L92.0214 42.3736V47.5422L91.0186 47.1198V41.9512Z" fill="#E0E4EC" stroke="#6E7E92" stroke-width="0.2" stroke-linecap="round" stroke-linejoin="round"/>
<path d="M92.3979 42.1748L92.0215 42.3735V47.5421L92.8239 47.07L92.3979 42.1748Z" fill="#C9CFDB" stroke="#6E7E92" stroke-width="0.2" stroke-linecap="round" stroke-linejoin="round"/>
<path d="M92.432 41.6943V42.6424L85.1582 46.2344V45.9076L92.432 41.6943Z" fill="#C9CFDB" stroke="#6E7E92" stroke-width="0.2" stroke-linecap="round" stroke-linejoin="round"/>
<path d="M91.429 41.5493L92.4481 41.6946L85.1581 45.9078L84.7188 45.7122L91.429 41.5493Z" fill="#EFF1F6" stroke="#6E7E92" stroke-width="0.2" stroke-linecap="round" stroke-linejoin="round"/>
<path d="M84.7188 46.0529L85.1581 46.2346V45.9076L84.7188 45.7261V46.0529Z" fill="#E0E4EC" stroke="#6E7E92" stroke-width="0.2" stroke-linecap="round" stroke-linejoin="round"/>
</svg>
