<svg width="156" height="98" viewBox="0 0 156 98" fill="none" xmlns="http://www.w3.org/2000/svg">
<path d="M27.7893 83.0518C31.8593 85.2698 44.3292 85.3923 52.5231 81.7043L15.1913 62.8857L11.5967 74.0481L27.7893 83.0518Z" fill="#E0E4EC" stroke="#6E7E92" stroke-width="0.2" stroke-linecap="round" stroke-linejoin="round"/>
<path d="M58.4536 70.7424L52.5236 81.7041L15.1182 62.849L23.79 54.8218L58.4536 70.7424Z" fill="#EFF1F6" stroke="#6E7E92" stroke-width="0.2" stroke-linecap="round" stroke-linejoin="round"/>
<path d="M58.4539 70.7419V67.0004L23.8105 51.6216V54.8304L58.4539 70.7419Z" fill="#E0E4EC" stroke="#6E7E92" stroke-width="0.2" stroke-linecap="round" stroke-linejoin="round"/>
<path d="M144.289 17.3457L58.454 67.001L23.6689 51.5593L109.473 9.72607L144.289 17.3457Z" fill="#EFF1F6" stroke="#6E7E92" stroke-width="0.2" stroke-linecap="round" stroke-linejoin="round"/>
<path d="M122.023 19.295L114.328 24.0436L116.514 7.60949L122.023 4.90479V19.295Z" fill="#C9CFDB" stroke="#6E7E92" stroke-width="0.2" stroke-linecap="round" stroke-linejoin="round"/>
<path d="M102.661 20.8418L114.329 24.0435L116.514 7.60936L106.992 5.33643L102.661 20.8418Z" fill="#E0E4EC" stroke="#6E7E92" stroke-width="0.2" stroke-linecap="round" stroke-linejoin="round"/>
<path d="M112.484 2.81152L122.035 4.88742L116.515 7.6091L106.991 5.33615L112.484 2.81152Z" fill="#6E7E92" stroke="#6E7E92" stroke-width="0.2" stroke-linecap="round" stroke-linejoin="round"/>
<path d="M58.4537 70.742C58.4537 70.742 85.2601 62.9152 107.435 48.3214C129.61 33.7278 141.757 27.167 141.757 27.167L131.289 43.8131C99.2416 62.9068 81.7298 75.2146 48.2129 89.1717L58.4537 70.742Z" fill="#C9CFDB"/>
<path d="M58.4541 70.7426C83.205 71.609 106.72 51.2649 143.302 26.5609L144.352 24.1074V17.3901L58.4541 66.9363V70.7426Z" fill="#C9CFDB"/>
<path d="M58.4537 70.742C58.4537 70.742 85.2601 62.9152 107.435 48.3214C129.61 33.7278 141.756 27.167 141.756 27.167L131.289 43.8131C99.2416 62.9068 81.7298 75.2146 48.2129 89.1717L58.4537 70.742Z" stroke="#6E7E92" stroke-width="0.2" stroke-linecap="round" stroke-linejoin="round"/>
<path d="M58.4541 70.7426C83.205 71.609 106.72 51.2649 143.302 26.5609L144.352 24.1074V17.3901L58.4541 66.9363V70.7426Z" stroke="#6E7E92" stroke-width="0.2" stroke-linecap="round" stroke-linejoin="round"/>
<path d="M134.953 43.9065L63.6332 91.612C59.4608 93.8505 54.4583 93.8742 50.2648 91.6765L38.9328 85.7385C38.9328 85.7385 29.7516 84.2057 27.7461 83.0305C25.7406 81.8545 27.7454 83.0305 27.7461 83.0305C27.7461 83.0305 32.223 83.7916 35.1187 83.8235C37.4547 83.8496 38.7654 83.6814 41.0877 83.4274C47.4893 82.725 50.7233 82.1101 56.9659 80.4958C58.4982 80.0996 61.5838 82.2922 61.5838 82.2922L117.454 35.89L136.151 24.6587L144.402 19.6323V25.2278L140.365 31.665L134.953 43.9065Z" fill="#9EA9B9"/>
<path d="M31.4951 48.3594L33.2352 50.2552L59.877 61.6662L62.3822 61.1847L31.4951 48.3594Z" fill="#E0E4EC" stroke="#6E7E92" stroke-width="0.2" stroke-linecap="round" stroke-linejoin="round"/>
<path d="M63.8181 58.8071L62.6332 59.4382L62.4092 61.1933L63.5941 60.5651L63.8181 58.8071Z" fill="#C9CFDB" stroke="#6E7E92" stroke-width="0.2" stroke-linecap="round" stroke-linejoin="round"/>
<path d="M63.8215 58.7844L62.5957 59.4853L31.6973 46.7824L33.0853 46.1084L63.8215 58.7844Z" fill="#EFF1F6" stroke="#6E7E92" stroke-width="0.2" stroke-linecap="round" stroke-linejoin="round"/>
<path d="M62.3831 61.185L62.5927 59.4281L31.6973 46.7822L31.4961 48.3598L62.3831 61.185Z" fill="#E0E4EC" stroke="#6E7E92" stroke-width="0.2" stroke-linecap="round" stroke-linejoin="round"/>
</svg>
